<mxfile host="Electron" agent="Mozilla/5.0 (Windows NT 10.0; Win64; x64) AppleWebKit/537.36 (KHTML, like Gecko) draw.io/28.2.5 Chrome/138.0.7204.251 Electron/37.6.1 Safari/537.36" version="28.2.5">
  <diagram name="Page-1" id="uyYLpF2vpdHfLIiW-YD8">
    <mxGraphModel dx="1884" dy="883" grid="0" gridSize="10" guides="1" tooltips="1" connect="1" arrows="1" fold="1" page="1" pageScale="1" pageWidth="827" pageHeight="1169" background="#ffffff" math="0" shadow="0">
      <root>
        <mxCell id="0" />
        <mxCell id="1" parent="0" />
        <mxCell id="SNQ56c9XRR32mOw2F68g-58" value="&lt;font style=&quot;color: rgb(255, 255, 255);&quot;&gt;fact_order_items&lt;/font&gt;" style="shape=table;startSize=30;container=1;collapsible=1;childLayout=tableLayout;fixedRows=1;rowLines=0;fontStyle=1;align=center;resizeLast=1;html=1;whiteSpace=wrap;fillColor=#0050ef;fontColor=#000000;strokeColor=#000000;fontSize=15;labelBorderColor=none;labelBackgroundColor=none;" parent="1" vertex="1">
          <mxGeometry x="570" y="390" width="380" height="480" as="geometry" />
        </mxCell>
        <mxCell id="SNQ56c9XRR32mOw2F68g-2" value="" style="shape=tableRow;horizontal=0;startSize=0;swimlaneHead=0;swimlaneBody=0;fillColor=none;collapsible=0;dropTarget=0;points=[[0,0.5],[1,0.5]];portConstraint=eastwest;top=0;left=0;right=0;bottom=1;fontSize=15;fontColor=#000000;labelBorderColor=none;labelBackgroundColor=none;strokeColor=#000000;" parent="SNQ56c9XRR32mOw2F68g-58" vertex="1">
          <mxGeometry y="30" width="380" height="30" as="geometry" />
        </mxCell>
        <mxCell id="SNQ56c9XRR32mOw2F68g-3" value="PK" style="shape=partialRectangle;connectable=0;fillColor=none;top=0;left=0;bottom=0;right=0;fontStyle=1;overflow=hidden;whiteSpace=wrap;html=1;fontSize=15;fontColor=#000000;labelBorderColor=none;labelBackgroundColor=none;strokeColor=#000000;" parent="SNQ56c9XRR32mOw2F68g-2" vertex="1">
          <mxGeometry width="60" height="30" as="geometry">
            <mxRectangle width="60" height="30" as="alternateBounds" />
          </mxGeometry>
        </mxCell>
        <mxCell id="SNQ56c9XRR32mOw2F68g-4" value="order_id" style="shape=partialRectangle;connectable=0;fillColor=none;top=0;left=0;bottom=0;right=0;align=left;spacingLeft=6;fontStyle=5;overflow=hidden;whiteSpace=wrap;fontSize=15;fontColor=#000000;labelBorderColor=none;labelBackgroundColor=none;strokeColor=#000000;html=1;" parent="SNQ56c9XRR32mOw2F68g-2" vertex="1">
          <mxGeometry x="60" width="250" height="30" as="geometry">
            <mxRectangle width="250" height="30" as="alternateBounds" />
          </mxGeometry>
        </mxCell>
        <mxCell id="SNQ56c9XRR32mOw2F68g-41" value="NVARCHAR(255)" style="shape=partialRectangle;connectable=0;fillColor=none;top=0;left=0;bottom=0;right=0;align=left;spacingLeft=6;fontStyle=5;overflow=hidden;whiteSpace=wrap;html=1;fontSize=15;fontColor=#000000;labelBorderColor=none;labelBackgroundColor=none;strokeColor=#000000;" parent="SNQ56c9XRR32mOw2F68g-2" vertex="1">
          <mxGeometry x="310" width="70" height="30" as="geometry">
            <mxRectangle width="70" height="30" as="alternateBounds" />
          </mxGeometry>
        </mxCell>
        <mxCell id="htcTJ87A9hfYxTRruonu-103" style="shape=tableRow;horizontal=0;startSize=0;swimlaneHead=0;swimlaneBody=0;fillColor=none;collapsible=0;dropTarget=0;points=[[0,0.5],[1,0.5]];portConstraint=eastwest;top=0;left=0;right=0;bottom=1;fontSize=15;fontColor=#000000;labelBorderColor=none;labelBackgroundColor=none;strokeColor=#000000;" vertex="1" parent="SNQ56c9XRR32mOw2F68g-58">
          <mxGeometry y="60" width="380" height="30" as="geometry" />
        </mxCell>
        <mxCell id="htcTJ87A9hfYxTRruonu-104" style="shape=partialRectangle;connectable=0;fillColor=none;top=0;left=0;bottom=0;right=0;fontStyle=1;overflow=hidden;whiteSpace=wrap;html=1;fontSize=15;fontColor=#000000;labelBorderColor=none;labelBackgroundColor=none;strokeColor=#000000;" vertex="1" parent="htcTJ87A9hfYxTRruonu-103">
          <mxGeometry width="60" height="30" as="geometry">
            <mxRectangle width="60" height="30" as="alternateBounds" />
          </mxGeometry>
        </mxCell>
        <mxCell id="htcTJ87A9hfYxTRruonu-105" style="shape=partialRectangle;connectable=0;fillColor=none;top=0;left=0;bottom=0;right=0;align=left;spacingLeft=6;fontStyle=5;overflow=hidden;whiteSpace=wrap;fontSize=15;fontColor=#000000;labelBorderColor=none;labelBackgroundColor=none;strokeColor=#000000;html=1;" vertex="1" parent="htcTJ87A9hfYxTRruonu-103">
          <mxGeometry x="60" width="250" height="30" as="geometry">
            <mxRectangle width="250" height="30" as="alternateBounds" />
          </mxGeometry>
        </mxCell>
        <mxCell id="htcTJ87A9hfYxTRruonu-106" style="shape=partialRectangle;connectable=0;fillColor=none;top=0;left=0;bottom=0;right=0;align=left;spacingLeft=6;fontStyle=5;overflow=hidden;whiteSpace=wrap;html=1;fontSize=15;fontColor=#000000;labelBorderColor=none;labelBackgroundColor=none;strokeColor=#000000;" vertex="1" parent="htcTJ87A9hfYxTRruonu-103">
          <mxGeometry x="310" width="70" height="30" as="geometry">
            <mxRectangle width="70" height="30" as="alternateBounds" />
          </mxGeometry>
        </mxCell>
        <mxCell id="SNQ56c9XRR32mOw2F68g-8" value="" style="shape=tableRow;horizontal=0;startSize=0;swimlaneHead=0;swimlaneBody=0;fillColor=none;collapsible=0;dropTarget=0;points=[[0,0.5],[1,0.5]];portConstraint=eastwest;top=0;left=0;right=0;bottom=0;fontSize=15;fontColor=#000000;labelBorderColor=none;labelBackgroundColor=none;strokeColor=#000000;" parent="SNQ56c9XRR32mOw2F68g-58" vertex="1">
          <mxGeometry y="90" width="380" height="30" as="geometry" />
        </mxCell>
        <mxCell id="SNQ56c9XRR32mOw2F68g-9" value="" style="shape=partialRectangle;connectable=0;fillColor=none;top=0;left=0;bottom=0;right=0;editable=1;overflow=hidden;whiteSpace=wrap;html=1;fontSize=15;fontColor=#000000;labelBorderColor=none;labelBackgroundColor=none;strokeColor=#000000;" parent="SNQ56c9XRR32mOw2F68g-8" vertex="1">
          <mxGeometry width="60" height="30" as="geometry">
            <mxRectangle width="60" height="30" as="alternateBounds" />
          </mxGeometry>
        </mxCell>
        <mxCell id="SNQ56c9XRR32mOw2F68g-10" value="&lt;pre style=&quot;border: none; margin: 0px; padding: 0px; overflow: auto; word-break: break-all; overflow-wrap: break-word; text-wrap-mode: wrap; font-family: menlo, consolas, &amp;quot;DejaVu Sans Mono&amp;quot;, monospace; line-height: 1.3077;&quot; data--h-bstatus=&quot;0OBSERVED&quot;&gt;purchase_date_key&lt;/pre&gt;" style="shape=partialRectangle;connectable=0;fillColor=none;top=0;left=0;bottom=0;right=0;align=left;spacingLeft=6;overflow=hidden;whiteSpace=wrap;html=1;fontSize=15;fontColor=#000000;labelBorderColor=none;labelBackgroundColor=none;strokeColor=#000000;" parent="SNQ56c9XRR32mOw2F68g-8" vertex="1">
          <mxGeometry x="60" width="250" height="30" as="geometry">
            <mxRectangle width="250" height="30" as="alternateBounds" />
          </mxGeometry>
        </mxCell>
        <mxCell id="SNQ56c9XRR32mOw2F68g-43" value="DATETIME" style="shape=partialRectangle;connectable=0;fillColor=none;top=0;left=0;bottom=0;right=0;align=left;spacingLeft=6;overflow=hidden;whiteSpace=wrap;html=1;fontSize=15;fontColor=#000000;labelBorderColor=none;labelBackgroundColor=none;strokeColor=#000000;" parent="SNQ56c9XRR32mOw2F68g-8" vertex="1">
          <mxGeometry x="310" width="70" height="30" as="geometry">
            <mxRectangle width="70" height="30" as="alternateBounds" />
          </mxGeometry>
        </mxCell>
        <mxCell id="SNQ56c9XRR32mOw2F68g-11" value="" style="shape=tableRow;horizontal=0;startSize=0;swimlaneHead=0;swimlaneBody=0;fillColor=none;collapsible=0;dropTarget=0;points=[[0,0.5],[1,0.5]];portConstraint=eastwest;top=0;left=0;right=0;bottom=0;fontSize=15;fontColor=#000000;labelBorderColor=none;labelBackgroundColor=none;strokeColor=#000000;" parent="SNQ56c9XRR32mOw2F68g-58" vertex="1">
          <mxGeometry y="120" width="380" height="30" as="geometry" />
        </mxCell>
        <mxCell id="SNQ56c9XRR32mOw2F68g-12" value="" style="shape=partialRectangle;connectable=0;fillColor=none;top=0;left=0;bottom=0;right=0;editable=1;overflow=hidden;whiteSpace=wrap;html=1;fontSize=15;fontColor=#000000;labelBorderColor=none;labelBackgroundColor=none;strokeColor=#000000;" parent="SNQ56c9XRR32mOw2F68g-11" vertex="1">
          <mxGeometry width="60" height="30" as="geometry">
            <mxRectangle width="60" height="30" as="alternateBounds" />
          </mxGeometry>
        </mxCell>
        <mxCell id="SNQ56c9XRR32mOw2F68g-13" value="&lt;pre style=&quot;border: none; margin: 0px; padding: 0px; overflow: auto; word-break: break-all; overflow-wrap: break-word; text-wrap-mode: wrap; font-family: menlo, consolas, &amp;quot;DejaVu Sans Mono&amp;quot;, monospace; line-height: 1.3077;&quot; data--h-bstatus=&quot;0OBSERVED&quot;&gt;approved_at_date_key&lt;/pre&gt;" style="shape=partialRectangle;connectable=0;fillColor=none;top=0;left=0;bottom=0;right=0;align=left;spacingLeft=6;overflow=hidden;whiteSpace=wrap;html=1;fontSize=15;fontColor=#000000;labelBorderColor=none;labelBackgroundColor=none;strokeColor=#000000;" parent="SNQ56c9XRR32mOw2F68g-11" vertex="1">
          <mxGeometry x="60" width="250" height="30" as="geometry">
            <mxRectangle width="250" height="30" as="alternateBounds" />
          </mxGeometry>
        </mxCell>
        <mxCell id="SNQ56c9XRR32mOw2F68g-44" value="DATETIME" style="shape=partialRectangle;connectable=0;fillColor=none;top=0;left=0;bottom=0;right=0;align=left;spacingLeft=6;overflow=hidden;whiteSpace=wrap;html=1;fontSize=15;fontColor=#000000;labelBorderColor=none;labelBackgroundColor=none;strokeColor=#000000;" parent="SNQ56c9XRR32mOw2F68g-11" vertex="1">
          <mxGeometry x="310" width="70" height="30" as="geometry">
            <mxRectangle width="70" height="30" as="alternateBounds" />
          </mxGeometry>
        </mxCell>
        <mxCell id="SNQ56c9XRR32mOw2F68g-29" style="shape=tableRow;horizontal=0;startSize=0;swimlaneHead=0;swimlaneBody=0;fillColor=none;collapsible=0;dropTarget=0;points=[[0,0.5],[1,0.5]];portConstraint=eastwest;top=0;left=0;right=0;bottom=0;fontSize=15;fontColor=#000000;labelBorderColor=none;labelBackgroundColor=none;strokeColor=#000000;" parent="SNQ56c9XRR32mOw2F68g-58" vertex="1">
          <mxGeometry y="150" width="380" height="30" as="geometry" />
        </mxCell>
        <mxCell id="SNQ56c9XRR32mOw2F68g-30" style="shape=partialRectangle;connectable=0;fillColor=none;top=0;left=0;bottom=0;right=0;editable=1;overflow=hidden;whiteSpace=wrap;html=1;fontSize=15;fontColor=#000000;labelBorderColor=none;labelBackgroundColor=none;strokeColor=#000000;" parent="SNQ56c9XRR32mOw2F68g-29" vertex="1">
          <mxGeometry width="60" height="30" as="geometry">
            <mxRectangle width="60" height="30" as="alternateBounds" />
          </mxGeometry>
        </mxCell>
        <mxCell id="SNQ56c9XRR32mOw2F68g-31" value="&lt;pre style=&quot;border: none; margin: 0px; padding: 0px; overflow: auto; word-break: break-all; overflow-wrap: break-word; text-wrap-mode: wrap; font-family: menlo, consolas, &amp;quot;DejaVu Sans Mono&amp;quot;, monospace; line-height: 1.3077;&quot; data--h-bstatus=&quot;0OBSERVED&quot;&gt;delivered_carrier_date_key&lt;/pre&gt;" style="shape=partialRectangle;connectable=0;fillColor=none;top=0;left=0;bottom=0;right=0;align=left;spacingLeft=6;overflow=hidden;whiteSpace=wrap;html=1;fontSize=15;fontColor=#000000;labelBorderColor=none;labelBackgroundColor=none;strokeColor=#000000;" parent="SNQ56c9XRR32mOw2F68g-29" vertex="1">
          <mxGeometry x="60" width="250" height="30" as="geometry">
            <mxRectangle width="250" height="30" as="alternateBounds" />
          </mxGeometry>
        </mxCell>
        <mxCell id="SNQ56c9XRR32mOw2F68g-45" value="DATETIME" style="shape=partialRectangle;connectable=0;fillColor=none;top=0;left=0;bottom=0;right=0;align=left;spacingLeft=6;overflow=hidden;whiteSpace=wrap;html=1;fontSize=15;fontColor=#000000;labelBorderColor=none;labelBackgroundColor=none;strokeColor=#000000;" parent="SNQ56c9XRR32mOw2F68g-29" vertex="1">
          <mxGeometry x="310" width="70" height="30" as="geometry">
            <mxRectangle width="70" height="30" as="alternateBounds" />
          </mxGeometry>
        </mxCell>
        <mxCell id="SNQ56c9XRR32mOw2F68g-26" style="shape=tableRow;horizontal=0;startSize=0;swimlaneHead=0;swimlaneBody=0;fillColor=none;collapsible=0;dropTarget=0;points=[[0,0.5],[1,0.5]];portConstraint=eastwest;top=0;left=0;right=0;bottom=0;fontSize=15;fontColor=#000000;labelBorderColor=none;labelBackgroundColor=none;strokeColor=#000000;" parent="SNQ56c9XRR32mOw2F68g-58" vertex="1">
          <mxGeometry y="180" width="380" height="30" as="geometry" />
        </mxCell>
        <mxCell id="SNQ56c9XRR32mOw2F68g-27" style="shape=partialRectangle;connectable=0;fillColor=none;top=0;left=0;bottom=0;right=0;editable=1;overflow=hidden;whiteSpace=wrap;html=1;fontSize=15;fontColor=#000000;labelBorderColor=none;labelBackgroundColor=none;strokeColor=#000000;" parent="SNQ56c9XRR32mOw2F68g-26" vertex="1">
          <mxGeometry width="60" height="30" as="geometry">
            <mxRectangle width="60" height="30" as="alternateBounds" />
          </mxGeometry>
        </mxCell>
        <mxCell id="SNQ56c9XRR32mOw2F68g-28" value="&lt;pre style=&quot;border: none; margin: 0px; padding: 0px; overflow: auto; word-break: break-all; overflow-wrap: break-word; text-wrap-mode: wrap; font-family: menlo, consolas, &amp;quot;DejaVu Sans Mono&amp;quot;, monospace; line-height: 1.3077;&quot; data--h-bstatus=&quot;0OBSERVED&quot;&gt;delivered_customer_date_key&lt;/pre&gt;" style="shape=partialRectangle;connectable=0;fillColor=none;top=0;left=0;bottom=0;right=0;align=left;spacingLeft=6;overflow=hidden;whiteSpace=wrap;html=1;fontSize=15;fontColor=#000000;labelBorderColor=none;labelBackgroundColor=none;strokeColor=#000000;" parent="SNQ56c9XRR32mOw2F68g-26" vertex="1">
          <mxGeometry x="60" width="250" height="30" as="geometry">
            <mxRectangle width="250" height="30" as="alternateBounds" />
          </mxGeometry>
        </mxCell>
        <mxCell id="SNQ56c9XRR32mOw2F68g-46" value="DATETIME" style="shape=partialRectangle;connectable=0;fillColor=none;top=0;left=0;bottom=0;right=0;align=left;spacingLeft=6;overflow=hidden;whiteSpace=wrap;html=1;fontSize=15;fontColor=#000000;labelBorderColor=none;labelBackgroundColor=none;strokeColor=#000000;" parent="SNQ56c9XRR32mOw2F68g-26" vertex="1">
          <mxGeometry x="310" width="70" height="30" as="geometry">
            <mxRectangle width="70" height="30" as="alternateBounds" />
          </mxGeometry>
        </mxCell>
        <mxCell id="SNQ56c9XRR32mOw2F68g-23" style="shape=tableRow;horizontal=0;startSize=0;swimlaneHead=0;swimlaneBody=0;fillColor=none;collapsible=0;dropTarget=0;points=[[0,0.5],[1,0.5]];portConstraint=eastwest;top=0;left=0;right=0;bottom=0;fontSize=15;fontColor=#000000;labelBorderColor=none;labelBackgroundColor=none;strokeColor=#000000;" parent="SNQ56c9XRR32mOw2F68g-58" vertex="1">
          <mxGeometry y="210" width="380" height="30" as="geometry" />
        </mxCell>
        <mxCell id="SNQ56c9XRR32mOw2F68g-24" style="shape=partialRectangle;connectable=0;fillColor=none;top=0;left=0;bottom=0;right=0;editable=1;overflow=hidden;whiteSpace=wrap;html=1;fontSize=15;fontColor=#000000;labelBorderColor=none;labelBackgroundColor=none;strokeColor=#000000;" parent="SNQ56c9XRR32mOw2F68g-23" vertex="1">
          <mxGeometry width="60" height="30" as="geometry">
            <mxRectangle width="60" height="30" as="alternateBounds" />
          </mxGeometry>
        </mxCell>
        <mxCell id="SNQ56c9XRR32mOw2F68g-25" value="estimated_delivery_date_key" style="shape=partialRectangle;connectable=0;fillColor=none;top=0;left=0;bottom=0;right=0;align=left;spacingLeft=6;overflow=hidden;whiteSpace=wrap;html=1;fontSize=15;fontColor=#000000;labelBorderColor=none;labelBackgroundColor=none;strokeColor=#000000;" parent="SNQ56c9XRR32mOw2F68g-23" vertex="1">
          <mxGeometry x="60" width="250" height="30" as="geometry">
            <mxRectangle width="250" height="30" as="alternateBounds" />
          </mxGeometry>
        </mxCell>
        <mxCell id="SNQ56c9XRR32mOw2F68g-47" value="DATETIME" style="shape=partialRectangle;connectable=0;fillColor=none;top=0;left=0;bottom=0;right=0;align=left;spacingLeft=6;overflow=hidden;whiteSpace=wrap;html=1;fontSize=15;fontColor=#000000;labelBorderColor=none;labelBackgroundColor=none;strokeColor=#000000;" parent="SNQ56c9XRR32mOw2F68g-23" vertex="1">
          <mxGeometry x="310" width="70" height="30" as="geometry">
            <mxRectangle width="70" height="30" as="alternateBounds" />
          </mxGeometry>
        </mxCell>
        <mxCell id="SNQ56c9XRR32mOw2F68g-20" style="shape=tableRow;horizontal=0;startSize=0;swimlaneHead=0;swimlaneBody=0;fillColor=none;collapsible=0;dropTarget=0;points=[[0,0.5],[1,0.5]];portConstraint=eastwest;top=0;left=0;right=0;bottom=0;fontSize=15;fontColor=#000000;labelBorderColor=none;labelBackgroundColor=none;strokeColor=#000000;" parent="SNQ56c9XRR32mOw2F68g-58" vertex="1">
          <mxGeometry y="240" width="380" height="30" as="geometry" />
        </mxCell>
        <mxCell id="SNQ56c9XRR32mOw2F68g-21" style="shape=partialRectangle;connectable=0;fillColor=none;top=0;left=0;bottom=0;right=0;editable=1;overflow=hidden;whiteSpace=wrap;html=1;fontSize=15;fontColor=#000000;labelBorderColor=none;labelBackgroundColor=none;strokeColor=#000000;" parent="SNQ56c9XRR32mOw2F68g-20" vertex="1">
          <mxGeometry width="60" height="30" as="geometry">
            <mxRectangle width="60" height="30" as="alternateBounds" />
          </mxGeometry>
        </mxCell>
        <mxCell id="SNQ56c9XRR32mOw2F68g-22" value="&lt;pre style=&quot;border: none; margin: 0px; padding: 0px; overflow: auto; word-break: break-all; overflow-wrap: break-word; text-wrap-mode: wrap; font-family: menlo, consolas, &amp;quot;DejaVu Sans Mono&amp;quot;, monospace; line-height: 1.3077;&quot; data--h-bstatus=&quot;0OBSERVED&quot;&gt;review_score&lt;/pre&gt;" style="shape=partialRectangle;connectable=0;fillColor=none;top=0;left=0;bottom=0;right=0;align=left;spacingLeft=6;overflow=hidden;whiteSpace=wrap;html=1;fontSize=15;fontColor=#000000;labelBorderColor=none;labelBackgroundColor=none;strokeColor=#000000;" parent="SNQ56c9XRR32mOw2F68g-20" vertex="1">
          <mxGeometry x="60" width="250" height="30" as="geometry">
            <mxRectangle width="250" height="30" as="alternateBounds" />
          </mxGeometry>
        </mxCell>
        <mxCell id="SNQ56c9XRR32mOw2F68g-48" value="INT" style="shape=partialRectangle;connectable=0;fillColor=none;top=0;left=0;bottom=0;right=0;align=left;spacingLeft=6;overflow=hidden;whiteSpace=wrap;html=1;fontSize=15;fontColor=#000000;labelBorderColor=none;labelBackgroundColor=none;strokeColor=#000000;" parent="SNQ56c9XRR32mOw2F68g-20" vertex="1">
          <mxGeometry x="310" width="70" height="30" as="geometry">
            <mxRectangle width="70" height="30" as="alternateBounds" />
          </mxGeometry>
        </mxCell>
        <mxCell id="htcTJ87A9hfYxTRruonu-88" style="shape=tableRow;horizontal=0;startSize=0;swimlaneHead=0;swimlaneBody=0;fillColor=none;collapsible=0;dropTarget=0;points=[[0,0.5],[1,0.5]];portConstraint=eastwest;top=0;left=0;right=0;bottom=0;fontSize=15;fontColor=#000000;labelBorderColor=none;labelBackgroundColor=none;strokeColor=#000000;" vertex="1" parent="SNQ56c9XRR32mOw2F68g-58">
          <mxGeometry y="270" width="380" height="30" as="geometry" />
        </mxCell>
        <mxCell id="htcTJ87A9hfYxTRruonu-89" style="shape=partialRectangle;connectable=0;fillColor=none;top=0;left=0;bottom=0;right=0;editable=1;overflow=hidden;whiteSpace=wrap;html=1;fontSize=15;fontColor=#000000;labelBorderColor=none;labelBackgroundColor=none;strokeColor=#000000;" vertex="1" parent="htcTJ87A9hfYxTRruonu-88">
          <mxGeometry width="60" height="30" as="geometry">
            <mxRectangle width="60" height="30" as="alternateBounds" />
          </mxGeometry>
        </mxCell>
        <mxCell id="htcTJ87A9hfYxTRruonu-90" value="payment_value" style="shape=partialRectangle;connectable=0;fillColor=none;top=0;left=0;bottom=0;right=0;align=left;spacingLeft=6;overflow=hidden;whiteSpace=wrap;html=1;fontSize=15;fontColor=#000000;labelBorderColor=none;labelBackgroundColor=none;strokeColor=#000000;" vertex="1" parent="htcTJ87A9hfYxTRruonu-88">
          <mxGeometry x="60" width="250" height="30" as="geometry">
            <mxRectangle width="250" height="30" as="alternateBounds" />
          </mxGeometry>
        </mxCell>
        <mxCell id="htcTJ87A9hfYxTRruonu-91" value="FLOAT" style="shape=partialRectangle;connectable=0;fillColor=none;top=0;left=0;bottom=0;right=0;align=left;spacingLeft=6;overflow=hidden;whiteSpace=wrap;html=1;fontSize=15;fontColor=#000000;labelBorderColor=none;labelBackgroundColor=none;strokeColor=#000000;" vertex="1" parent="htcTJ87A9hfYxTRruonu-88">
          <mxGeometry x="310" width="70" height="30" as="geometry">
            <mxRectangle width="70" height="30" as="alternateBounds" />
          </mxGeometry>
        </mxCell>
        <mxCell id="SNQ56c9XRR32mOw2F68g-65" value="" style="shape=tableRow;horizontal=0;startSize=0;swimlaneHead=0;swimlaneBody=0;fillColor=none;collapsible=0;dropTarget=0;points=[[0,0.5],[1,0.5]];portConstraint=eastwest;top=0;left=0;right=0;bottom=0;html=1;fontSize=15;fontColor=#000000;labelBorderColor=none;labelBackgroundColor=none;strokeColor=#000000;" parent="SNQ56c9XRR32mOw2F68g-58" vertex="1">
          <mxGeometry y="300" width="380" height="30" as="geometry" />
        </mxCell>
        <mxCell id="SNQ56c9XRR32mOw2F68g-66" value="FK" style="shape=partialRectangle;connectable=0;fillColor=none;top=0;left=0;bottom=0;right=0;editable=1;overflow=hidden;html=1;whiteSpace=wrap;fontSize=15;fontColor=#000000;labelBorderColor=none;labelBackgroundColor=none;strokeColor=#000000;fontStyle=1" parent="SNQ56c9XRR32mOw2F68g-65" vertex="1">
          <mxGeometry width="60" height="30" as="geometry">
            <mxRectangle width="60" height="30" as="alternateBounds" />
          </mxGeometry>
        </mxCell>
        <mxCell id="SNQ56c9XRR32mOw2F68g-67" value="product_id" style="shape=partialRectangle;connectable=0;fillColor=none;top=0;left=0;bottom=0;right=0;align=left;spacingLeft=6;overflow=hidden;html=1;whiteSpace=wrap;fontSize=15;fontColor=#000000;labelBorderColor=none;labelBackgroundColor=none;strokeColor=#000000;" parent="SNQ56c9XRR32mOw2F68g-65" vertex="1">
          <mxGeometry x="60" width="250" height="30" as="geometry">
            <mxRectangle width="250" height="30" as="alternateBounds" />
          </mxGeometry>
        </mxCell>
        <mxCell id="SNQ56c9XRR32mOw2F68g-73" value="NVARCHAR(255)" style="shape=partialRectangle;connectable=0;fillColor=none;top=0;left=0;bottom=0;right=0;align=left;spacingLeft=6;overflow=hidden;html=1;whiteSpace=wrap;fontSize=15;fontColor=#000000;labelBorderColor=none;labelBackgroundColor=none;strokeColor=#000000;" parent="SNQ56c9XRR32mOw2F68g-65" vertex="1">
          <mxGeometry x="310" width="70" height="30" as="geometry">
            <mxRectangle width="70" height="30" as="alternateBounds" />
          </mxGeometry>
        </mxCell>
        <mxCell id="SNQ56c9XRR32mOw2F68g-68" value="" style="shape=tableRow;horizontal=0;startSize=0;swimlaneHead=0;swimlaneBody=0;fillColor=none;collapsible=0;dropTarget=0;points=[[0,0.5],[1,0.5]];portConstraint=eastwest;top=0;left=0;right=0;bottom=0;html=1;fontSize=15;fontColor=#000000;labelBorderColor=none;labelBackgroundColor=none;strokeColor=#000000;" parent="SNQ56c9XRR32mOw2F68g-58" vertex="1">
          <mxGeometry y="330" width="380" height="30" as="geometry" />
        </mxCell>
        <mxCell id="SNQ56c9XRR32mOw2F68g-69" value="FK" style="shape=partialRectangle;connectable=0;fillColor=none;top=0;left=0;bottom=0;right=0;editable=1;overflow=hidden;html=1;whiteSpace=wrap;fontSize=15;fontColor=#000000;labelBorderColor=none;labelBackgroundColor=none;strokeColor=#000000;fontStyle=1" parent="SNQ56c9XRR32mOw2F68g-68" vertex="1">
          <mxGeometry width="60" height="30" as="geometry">
            <mxRectangle width="60" height="30" as="alternateBounds" />
          </mxGeometry>
        </mxCell>
        <mxCell id="SNQ56c9XRR32mOw2F68g-70" value="seller_id" style="shape=partialRectangle;connectable=0;fillColor=none;top=0;left=0;bottom=0;right=0;align=left;spacingLeft=6;overflow=hidden;html=1;whiteSpace=wrap;fontSize=15;fontColor=#000000;labelBorderColor=none;labelBackgroundColor=none;strokeColor=#000000;" parent="SNQ56c9XRR32mOw2F68g-68" vertex="1">
          <mxGeometry x="60" width="250" height="30" as="geometry">
            <mxRectangle width="250" height="30" as="alternateBounds" />
          </mxGeometry>
        </mxCell>
        <mxCell id="SNQ56c9XRR32mOw2F68g-74" value="NVARCHAR(255)" style="shape=partialRectangle;connectable=0;fillColor=none;top=0;left=0;bottom=0;right=0;align=left;spacingLeft=6;overflow=hidden;html=1;whiteSpace=wrap;fontSize=15;fontColor=#000000;labelBorderColor=none;labelBackgroundColor=none;strokeColor=#000000;" parent="SNQ56c9XRR32mOw2F68g-68" vertex="1">
          <mxGeometry x="310" width="70" height="30" as="geometry">
            <mxRectangle width="70" height="30" as="alternateBounds" />
          </mxGeometry>
        </mxCell>
        <mxCell id="htcTJ87A9hfYxTRruonu-9" style="shape=tableRow;horizontal=0;startSize=0;swimlaneHead=0;swimlaneBody=0;fillColor=none;collapsible=0;dropTarget=0;points=[[0,0.5],[1,0.5]];portConstraint=eastwest;top=0;left=0;right=0;bottom=0;html=1;fontSize=15;fontColor=#000000;labelBorderColor=none;labelBackgroundColor=none;strokeColor=#000000;" vertex="1" parent="SNQ56c9XRR32mOw2F68g-58">
          <mxGeometry y="360" width="380" height="30" as="geometry" />
        </mxCell>
        <mxCell id="htcTJ87A9hfYxTRruonu-10" value="FK" style="shape=partialRectangle;connectable=0;fillColor=none;top=0;left=0;bottom=0;right=0;editable=1;overflow=hidden;html=1;whiteSpace=wrap;fontSize=15;fontColor=#000000;labelBorderColor=none;labelBackgroundColor=none;strokeColor=#000000;fontStyle=1" vertex="1" parent="htcTJ87A9hfYxTRruonu-9">
          <mxGeometry width="60" height="30" as="geometry">
            <mxRectangle width="60" height="30" as="alternateBounds" />
          </mxGeometry>
        </mxCell>
        <mxCell id="htcTJ87A9hfYxTRruonu-11" value="customer_id" style="shape=partialRectangle;connectable=0;fillColor=none;top=0;left=0;bottom=0;right=0;align=left;spacingLeft=6;overflow=hidden;html=1;whiteSpace=wrap;fontSize=15;fontColor=#000000;labelBorderColor=none;labelBackgroundColor=none;strokeColor=#000000;" vertex="1" parent="htcTJ87A9hfYxTRruonu-9">
          <mxGeometry x="60" width="250" height="30" as="geometry">
            <mxRectangle width="250" height="30" as="alternateBounds" />
          </mxGeometry>
        </mxCell>
        <mxCell id="htcTJ87A9hfYxTRruonu-12" value="NVARCHAR(255)" style="shape=partialRectangle;connectable=0;fillColor=none;top=0;left=0;bottom=0;right=0;align=left;spacingLeft=6;overflow=hidden;html=1;whiteSpace=wrap;fontSize=15;fontColor=#000000;labelBorderColor=none;labelBackgroundColor=none;strokeColor=#000000;" vertex="1" parent="htcTJ87A9hfYxTRruonu-9">
          <mxGeometry x="310" width="70" height="30" as="geometry">
            <mxRectangle width="70" height="30" as="alternateBounds" />
          </mxGeometry>
        </mxCell>
        <mxCell id="htcTJ87A9hfYxTRruonu-5" style="shape=tableRow;horizontal=0;startSize=0;swimlaneHead=0;swimlaneBody=0;fillColor=none;collapsible=0;dropTarget=0;points=[[0,0.5],[1,0.5]];portConstraint=eastwest;top=0;left=0;right=0;bottom=0;html=1;fontSize=15;fontColor=#000000;labelBorderColor=none;labelBackgroundColor=none;strokeColor=#000000;" vertex="1" parent="SNQ56c9XRR32mOw2F68g-58">
          <mxGeometry y="390" width="380" height="30" as="geometry" />
        </mxCell>
        <mxCell id="htcTJ87A9hfYxTRruonu-6" style="shape=partialRectangle;connectable=0;fillColor=none;top=0;left=0;bottom=0;right=0;editable=1;overflow=hidden;html=1;whiteSpace=wrap;fontSize=15;fontColor=#000000;labelBorderColor=none;labelBackgroundColor=none;strokeColor=#000000;fontStyle=1" vertex="1" parent="htcTJ87A9hfYxTRruonu-5">
          <mxGeometry width="60" height="30" as="geometry">
            <mxRectangle width="60" height="30" as="alternateBounds" />
          </mxGeometry>
        </mxCell>
        <mxCell id="htcTJ87A9hfYxTRruonu-7" value="ship_limit_date_key" style="shape=partialRectangle;connectable=0;fillColor=none;top=0;left=0;bottom=0;right=0;align=left;spacingLeft=6;overflow=hidden;html=1;whiteSpace=wrap;fontSize=15;fontColor=#000000;labelBorderColor=none;labelBackgroundColor=none;strokeColor=#000000;" vertex="1" parent="htcTJ87A9hfYxTRruonu-5">
          <mxGeometry x="60" width="250" height="30" as="geometry">
            <mxRectangle width="250" height="30" as="alternateBounds" />
          </mxGeometry>
        </mxCell>
        <mxCell id="htcTJ87A9hfYxTRruonu-8" value="INT" style="shape=partialRectangle;connectable=0;fillColor=none;top=0;left=0;bottom=0;right=0;align=left;spacingLeft=6;overflow=hidden;html=1;whiteSpace=wrap;fontSize=15;fontColor=#000000;labelBorderColor=none;labelBackgroundColor=none;strokeColor=#000000;" vertex="1" parent="htcTJ87A9hfYxTRruonu-5">
          <mxGeometry x="310" width="70" height="30" as="geometry">
            <mxRectangle width="70" height="30" as="alternateBounds" />
          </mxGeometry>
        </mxCell>
        <mxCell id="SNQ56c9XRR32mOw2F68g-79" style="shape=tableRow;horizontal=0;startSize=0;swimlaneHead=0;swimlaneBody=0;fillColor=none;collapsible=0;dropTarget=0;points=[[0,0.5],[1,0.5]];portConstraint=eastwest;top=0;left=0;right=0;bottom=0;html=1;fontSize=15;fontColor=#000000;labelBorderColor=none;labelBackgroundColor=none;strokeColor=#000000;" parent="SNQ56c9XRR32mOw2F68g-58" vertex="1">
          <mxGeometry y="420" width="380" height="30" as="geometry" />
        </mxCell>
        <mxCell id="SNQ56c9XRR32mOw2F68g-80" style="shape=partialRectangle;connectable=0;fillColor=none;top=0;left=0;bottom=0;right=0;editable=1;overflow=hidden;html=1;whiteSpace=wrap;fontSize=15;fontColor=#000000;labelBorderColor=none;labelBackgroundColor=none;strokeColor=#000000;" parent="SNQ56c9XRR32mOw2F68g-79" vertex="1">
          <mxGeometry width="60" height="30" as="geometry">
            <mxRectangle width="60" height="30" as="alternateBounds" />
          </mxGeometry>
        </mxCell>
        <mxCell id="SNQ56c9XRR32mOw2F68g-81" value="price" style="shape=partialRectangle;connectable=0;fillColor=none;top=0;left=0;bottom=0;right=0;align=left;spacingLeft=6;overflow=hidden;html=1;whiteSpace=wrap;fontSize=15;fontColor=#000000;labelBorderColor=none;labelBackgroundColor=none;strokeColor=#000000;" parent="SNQ56c9XRR32mOw2F68g-79" vertex="1">
          <mxGeometry x="60" width="250" height="30" as="geometry">
            <mxRectangle width="250" height="30" as="alternateBounds" />
          </mxGeometry>
        </mxCell>
        <mxCell id="SNQ56c9XRR32mOw2F68g-82" value="FLOAT" style="shape=partialRectangle;connectable=0;fillColor=none;top=0;left=0;bottom=0;right=0;align=left;spacingLeft=6;overflow=hidden;html=1;whiteSpace=wrap;fontSize=15;fontColor=#000000;labelBorderColor=none;labelBackgroundColor=none;strokeColor=#000000;" parent="SNQ56c9XRR32mOw2F68g-79" vertex="1">
          <mxGeometry x="310" width="70" height="30" as="geometry">
            <mxRectangle width="70" height="30" as="alternateBounds" />
          </mxGeometry>
        </mxCell>
        <mxCell id="SNQ56c9XRR32mOw2F68g-83" style="shape=tableRow;horizontal=0;startSize=0;swimlaneHead=0;swimlaneBody=0;fillColor=none;collapsible=0;dropTarget=0;points=[[0,0.5],[1,0.5]];portConstraint=eastwest;top=0;left=0;right=0;bottom=0;html=1;fontSize=15;fontColor=#000000;labelBorderColor=none;labelBackgroundColor=none;strokeColor=#000000;" parent="SNQ56c9XRR32mOw2F68g-58" vertex="1">
          <mxGeometry y="450" width="380" height="30" as="geometry" />
        </mxCell>
        <mxCell id="SNQ56c9XRR32mOw2F68g-84" style="shape=partialRectangle;connectable=0;fillColor=none;top=0;left=0;bottom=0;right=0;editable=1;overflow=hidden;html=1;whiteSpace=wrap;fontSize=15;fontColor=#000000;labelBorderColor=none;labelBackgroundColor=none;strokeColor=#000000;" parent="SNQ56c9XRR32mOw2F68g-83" vertex="1">
          <mxGeometry width="60" height="30" as="geometry">
            <mxRectangle width="60" height="30" as="alternateBounds" />
          </mxGeometry>
        </mxCell>
        <mxCell id="SNQ56c9XRR32mOw2F68g-85" value="freight_value" style="shape=partialRectangle;connectable=0;fillColor=none;top=0;left=0;bottom=0;right=0;align=left;spacingLeft=6;overflow=hidden;html=1;whiteSpace=wrap;fontSize=15;fontColor=#000000;labelBorderColor=none;labelBackgroundColor=none;strokeColor=#000000;" parent="SNQ56c9XRR32mOw2F68g-83" vertex="1">
          <mxGeometry x="60" width="250" height="30" as="geometry">
            <mxRectangle width="250" height="30" as="alternateBounds" />
          </mxGeometry>
        </mxCell>
        <mxCell id="SNQ56c9XRR32mOw2F68g-86" value="FLOAT" style="shape=partialRectangle;connectable=0;fillColor=none;top=0;left=0;bottom=0;right=0;align=left;spacingLeft=6;overflow=hidden;html=1;whiteSpace=wrap;fontSize=15;fontColor=#000000;labelBorderColor=none;labelBackgroundColor=none;strokeColor=#000000;" parent="SNQ56c9XRR32mOw2F68g-83" vertex="1">
          <mxGeometry x="310" width="70" height="30" as="geometry">
            <mxRectangle width="70" height="30" as="alternateBounds" />
          </mxGeometry>
        </mxCell>
        <mxCell id="SNQ56c9XRR32mOw2F68g-121" value="&lt;font style=&quot;color: rgb(255, 255, 255);&quot;&gt;dim_customer&lt;/font&gt;" style="shape=table;startSize=30;container=1;collapsible=1;childLayout=tableLayout;fixedRows=1;rowLines=0;fontStyle=1;align=center;resizeLast=1;html=1;fillColor=#0050ef;fontColor=#000000;strokeColor=#000000;fontSize=15;labelBorderColor=none;labelBackgroundColor=none;" parent="1" vertex="1">
          <mxGeometry x="1040" y="230" width="260" height="210" as="geometry" />
        </mxCell>
        <mxCell id="SNQ56c9XRR32mOw2F68g-122" value="" style="shape=tableRow;horizontal=0;startSize=0;swimlaneHead=0;swimlaneBody=0;fillColor=none;collapsible=0;dropTarget=0;points=[[0,0.5],[1,0.5]];portConstraint=eastwest;top=0;left=0;right=0;bottom=1;fontSize=15;fontColor=#000000;labelBorderColor=none;labelBackgroundColor=none;strokeColor=#000000;" parent="SNQ56c9XRR32mOw2F68g-121" vertex="1">
          <mxGeometry y="30" width="260" height="30" as="geometry" />
        </mxCell>
        <mxCell id="SNQ56c9XRR32mOw2F68g-123" value="PK" style="shape=partialRectangle;connectable=0;fillColor=none;top=0;left=0;bottom=0;right=0;fontStyle=1;overflow=hidden;whiteSpace=wrap;html=1;fontSize=15;fontColor=#000000;labelBorderColor=none;labelBackgroundColor=none;strokeColor=#000000;" parent="SNQ56c9XRR32mOw2F68g-122" vertex="1">
          <mxGeometry width="30" height="30" as="geometry">
            <mxRectangle width="30" height="30" as="alternateBounds" />
          </mxGeometry>
        </mxCell>
        <mxCell id="SNQ56c9XRR32mOw2F68g-124" value="customer_id" style="shape=partialRectangle;connectable=0;fillColor=none;top=0;left=0;bottom=0;right=0;align=left;spacingLeft=6;fontStyle=5;overflow=hidden;whiteSpace=wrap;html=1;fontSize=15;fontColor=#000000;labelBorderColor=none;labelBackgroundColor=none;strokeColor=#000000;" parent="SNQ56c9XRR32mOw2F68g-122" vertex="1">
          <mxGeometry x="30" width="100" height="30" as="geometry">
            <mxRectangle width="100" height="30" as="alternateBounds" />
          </mxGeometry>
        </mxCell>
        <mxCell id="SNQ56c9XRR32mOw2F68g-138" value="NVARCHAR(255)" style="shape=partialRectangle;connectable=0;fillColor=none;top=0;left=0;bottom=0;right=0;align=left;spacingLeft=6;fontStyle=5;overflow=hidden;whiteSpace=wrap;html=1;fontSize=15;fontColor=#000000;labelBorderColor=none;labelBackgroundColor=none;strokeColor=#000000;" parent="SNQ56c9XRR32mOw2F68g-122" vertex="1">
          <mxGeometry x="130" width="130" height="30" as="geometry">
            <mxRectangle width="130" height="30" as="alternateBounds" />
          </mxGeometry>
        </mxCell>
        <mxCell id="SNQ56c9XRR32mOw2F68g-125" value="" style="shape=tableRow;horizontal=0;startSize=0;swimlaneHead=0;swimlaneBody=0;fillColor=none;collapsible=0;dropTarget=0;points=[[0,0.5],[1,0.5]];portConstraint=eastwest;top=0;left=0;right=0;bottom=0;fontSize=15;fontColor=#000000;labelBorderColor=none;labelBackgroundColor=none;strokeColor=#000000;" parent="SNQ56c9XRR32mOw2F68g-121" vertex="1">
          <mxGeometry y="60" width="260" height="30" as="geometry" />
        </mxCell>
        <mxCell id="SNQ56c9XRR32mOw2F68g-126" value="" style="shape=partialRectangle;connectable=0;fillColor=none;top=0;left=0;bottom=0;right=0;editable=1;overflow=hidden;whiteSpace=wrap;html=1;fontSize=15;fontColor=#000000;labelBorderColor=none;labelBackgroundColor=none;strokeColor=#000000;" parent="SNQ56c9XRR32mOw2F68g-125" vertex="1">
          <mxGeometry width="30" height="30" as="geometry">
            <mxRectangle width="30" height="30" as="alternateBounds" />
          </mxGeometry>
        </mxCell>
        <mxCell id="SNQ56c9XRR32mOw2F68g-127" value="first_name" style="shape=partialRectangle;connectable=0;fillColor=none;top=0;left=0;bottom=0;right=0;align=left;spacingLeft=6;overflow=hidden;whiteSpace=wrap;html=1;fontSize=15;fontColor=#000000;labelBorderColor=none;labelBackgroundColor=none;strokeColor=#000000;" parent="SNQ56c9XRR32mOw2F68g-125" vertex="1">
          <mxGeometry x="30" width="100" height="30" as="geometry">
            <mxRectangle width="100" height="30" as="alternateBounds" />
          </mxGeometry>
        </mxCell>
        <mxCell id="SNQ56c9XRR32mOw2F68g-139" value="NVARCHAR(255)" style="shape=partialRectangle;connectable=0;fillColor=none;top=0;left=0;bottom=0;right=0;align=left;spacingLeft=6;overflow=hidden;fontSize=15;fontColor=#000000;labelBorderColor=none;labelBackgroundColor=none;strokeColor=#000000;" parent="SNQ56c9XRR32mOw2F68g-125" vertex="1">
          <mxGeometry x="130" width="130" height="30" as="geometry">
            <mxRectangle width="130" height="30" as="alternateBounds" />
          </mxGeometry>
        </mxCell>
        <mxCell id="SNQ56c9XRR32mOw2F68g-128" value="" style="shape=tableRow;horizontal=0;startSize=0;swimlaneHead=0;swimlaneBody=0;fillColor=none;collapsible=0;dropTarget=0;points=[[0,0.5],[1,0.5]];portConstraint=eastwest;top=0;left=0;right=0;bottom=0;fontSize=15;fontColor=#000000;labelBorderColor=none;labelBackgroundColor=none;strokeColor=#000000;" parent="SNQ56c9XRR32mOw2F68g-121" vertex="1">
          <mxGeometry y="90" width="260" height="30" as="geometry" />
        </mxCell>
        <mxCell id="SNQ56c9XRR32mOw2F68g-129" value="" style="shape=partialRectangle;connectable=0;fillColor=none;top=0;left=0;bottom=0;right=0;editable=1;overflow=hidden;whiteSpace=wrap;html=1;fontSize=15;fontColor=#000000;labelBorderColor=none;labelBackgroundColor=none;strokeColor=#000000;" parent="SNQ56c9XRR32mOw2F68g-128" vertex="1">
          <mxGeometry width="30" height="30" as="geometry">
            <mxRectangle width="30" height="30" as="alternateBounds" />
          </mxGeometry>
        </mxCell>
        <mxCell id="SNQ56c9XRR32mOw2F68g-130" value="last_name" style="shape=partialRectangle;connectable=0;fillColor=none;top=0;left=0;bottom=0;right=0;align=left;spacingLeft=6;overflow=hidden;whiteSpace=wrap;html=1;fontSize=15;fontColor=#000000;labelBorderColor=none;labelBackgroundColor=none;strokeColor=#000000;" parent="SNQ56c9XRR32mOw2F68g-128" vertex="1">
          <mxGeometry x="30" width="100" height="30" as="geometry">
            <mxRectangle width="100" height="30" as="alternateBounds" />
          </mxGeometry>
        </mxCell>
        <mxCell id="SNQ56c9XRR32mOw2F68g-140" value="NVARCHAR(255)" style="shape=partialRectangle;connectable=0;fillColor=none;top=0;left=0;bottom=0;right=0;align=left;spacingLeft=6;overflow=hidden;fontSize=15;fontColor=#000000;labelBorderColor=none;labelBackgroundColor=none;strokeColor=#000000;" parent="SNQ56c9XRR32mOw2F68g-128" vertex="1">
          <mxGeometry x="130" width="130" height="30" as="geometry">
            <mxRectangle width="130" height="30" as="alternateBounds" />
          </mxGeometry>
        </mxCell>
        <mxCell id="SNQ56c9XRR32mOw2F68g-131" value="" style="shape=tableRow;horizontal=0;startSize=0;swimlaneHead=0;swimlaneBody=0;fillColor=none;collapsible=0;dropTarget=0;points=[[0,0.5],[1,0.5]];portConstraint=eastwest;top=0;left=0;right=0;bottom=0;fontSize=15;fontColor=#000000;labelBorderColor=none;labelBackgroundColor=none;strokeColor=#000000;" parent="SNQ56c9XRR32mOw2F68g-121" vertex="1">
          <mxGeometry y="120" width="260" height="30" as="geometry" />
        </mxCell>
        <mxCell id="SNQ56c9XRR32mOw2F68g-132" value="" style="shape=partialRectangle;connectable=0;fillColor=none;top=0;left=0;bottom=0;right=0;editable=1;overflow=hidden;whiteSpace=wrap;html=1;fontSize=15;fontColor=#000000;labelBorderColor=none;labelBackgroundColor=none;strokeColor=#000000;" parent="SNQ56c9XRR32mOw2F68g-131" vertex="1">
          <mxGeometry width="30" height="30" as="geometry">
            <mxRectangle width="30" height="30" as="alternateBounds" />
          </mxGeometry>
        </mxCell>
        <mxCell id="SNQ56c9XRR32mOw2F68g-133" value="gender" style="shape=partialRectangle;connectable=0;fillColor=none;top=0;left=0;bottom=0;right=0;align=left;spacingLeft=6;overflow=hidden;whiteSpace=wrap;html=1;fontSize=15;fontColor=#000000;labelBorderColor=none;labelBackgroundColor=none;strokeColor=#000000;" parent="SNQ56c9XRR32mOw2F68g-131" vertex="1">
          <mxGeometry x="30" width="100" height="30" as="geometry">
            <mxRectangle width="100" height="30" as="alternateBounds" />
          </mxGeometry>
        </mxCell>
        <mxCell id="SNQ56c9XRR32mOw2F68g-141" value="NVARCHAR(255)" style="shape=partialRectangle;connectable=0;fillColor=none;top=0;left=0;bottom=0;right=0;align=left;spacingLeft=6;overflow=hidden;fontSize=15;fontColor=#000000;labelBorderColor=none;labelBackgroundColor=none;strokeColor=#000000;" parent="SNQ56c9XRR32mOw2F68g-131" vertex="1">
          <mxGeometry x="130" width="130" height="30" as="geometry">
            <mxRectangle width="130" height="30" as="alternateBounds" />
          </mxGeometry>
        </mxCell>
        <mxCell id="XDzjaHD1MAUmJ3mkmiZD-13" style="shape=tableRow;horizontal=0;startSize=0;swimlaneHead=0;swimlaneBody=0;fillColor=none;collapsible=0;dropTarget=0;points=[[0,0.5],[1,0.5]];portConstraint=eastwest;top=0;left=0;right=0;bottom=0;fontSize=15;fontColor=#000000;labelBorderColor=none;labelBackgroundColor=none;strokeColor=#000000;" parent="SNQ56c9XRR32mOw2F68g-121" vertex="1">
          <mxGeometry y="150" width="260" height="30" as="geometry" />
        </mxCell>
        <mxCell id="XDzjaHD1MAUmJ3mkmiZD-14" style="shape=partialRectangle;connectable=0;fillColor=none;top=0;left=0;bottom=0;right=0;editable=1;overflow=hidden;whiteSpace=wrap;html=1;fontSize=15;fontColor=#000000;labelBorderColor=none;labelBackgroundColor=none;strokeColor=#000000;" parent="XDzjaHD1MAUmJ3mkmiZD-13" vertex="1">
          <mxGeometry width="30" height="30" as="geometry">
            <mxRectangle width="30" height="30" as="alternateBounds" />
          </mxGeometry>
        </mxCell>
        <mxCell id="XDzjaHD1MAUmJ3mkmiZD-15" value="Age" style="shape=partialRectangle;connectable=0;fillColor=none;top=0;left=0;bottom=0;right=0;align=left;spacingLeft=6;overflow=hidden;whiteSpace=wrap;html=1;fontSize=15;fontColor=#000000;labelBorderColor=none;labelBackgroundColor=none;strokeColor=#000000;" parent="XDzjaHD1MAUmJ3mkmiZD-13" vertex="1">
          <mxGeometry x="30" width="100" height="30" as="geometry">
            <mxRectangle width="100" height="30" as="alternateBounds" />
          </mxGeometry>
        </mxCell>
        <mxCell id="XDzjaHD1MAUmJ3mkmiZD-16" value="INT" style="shape=partialRectangle;connectable=0;fillColor=none;top=0;left=0;bottom=0;right=0;align=left;spacingLeft=6;overflow=hidden;fontSize=15;fontColor=#000000;labelBorderColor=none;labelBackgroundColor=none;strokeColor=#000000;" parent="XDzjaHD1MAUmJ3mkmiZD-13" vertex="1">
          <mxGeometry x="130" width="130" height="30" as="geometry">
            <mxRectangle width="130" height="30" as="alternateBounds" />
          </mxGeometry>
        </mxCell>
        <mxCell id="SNQ56c9XRR32mOw2F68g-142" style="shape=tableRow;horizontal=0;startSize=0;swimlaneHead=0;swimlaneBody=0;fillColor=none;collapsible=0;dropTarget=0;points=[[0,0.5],[1,0.5]];portConstraint=eastwest;top=0;left=0;right=0;bottom=0;fontSize=15;fontColor=#000000;labelBorderColor=none;labelBackgroundColor=none;strokeColor=#000000;" parent="SNQ56c9XRR32mOw2F68g-121" vertex="1">
          <mxGeometry y="180" width="260" height="30" as="geometry" />
        </mxCell>
        <mxCell id="SNQ56c9XRR32mOw2F68g-143" value="FK" style="shape=partialRectangle;connectable=0;fillColor=none;top=0;left=0;bottom=0;right=0;editable=1;overflow=hidden;whiteSpace=wrap;html=1;fontSize=15;fontColor=#000000;labelBorderColor=none;labelBackgroundColor=none;strokeColor=#000000;" parent="SNQ56c9XRR32mOw2F68g-142" vertex="1">
          <mxGeometry width="30" height="30" as="geometry">
            <mxRectangle width="30" height="30" as="alternateBounds" />
          </mxGeometry>
        </mxCell>
        <mxCell id="SNQ56c9XRR32mOw2F68g-144" value="geo_id" style="shape=partialRectangle;connectable=0;fillColor=none;top=0;left=0;bottom=0;right=0;align=left;spacingLeft=6;overflow=hidden;whiteSpace=wrap;html=1;fontSize=15;fontColor=#000000;labelBorderColor=none;labelBackgroundColor=none;strokeColor=#000000;" parent="SNQ56c9XRR32mOw2F68g-142" vertex="1">
          <mxGeometry x="30" width="100" height="30" as="geometry">
            <mxRectangle width="100" height="30" as="alternateBounds" />
          </mxGeometry>
        </mxCell>
        <mxCell id="SNQ56c9XRR32mOw2F68g-145" value="INT" style="shape=partialRectangle;connectable=0;fillColor=none;top=0;left=0;bottom=0;right=0;align=left;spacingLeft=6;overflow=hidden;whiteSpace=wrap;html=1;fontSize=15;fontColor=#000000;labelBorderColor=none;labelBackgroundColor=none;strokeColor=#000000;" parent="SNQ56c9XRR32mOw2F68g-142" vertex="1">
          <mxGeometry x="130" width="130" height="30" as="geometry">
            <mxRectangle width="130" height="30" as="alternateBounds" />
          </mxGeometry>
        </mxCell>
        <mxCell id="SNQ56c9XRR32mOw2F68g-146" value="&lt;font style=&quot;color: rgb(255, 255, 255);&quot;&gt;geolocation&lt;/font&gt;" style="shape=table;startSize=30;container=1;collapsible=1;childLayout=tableLayout;fixedRows=1;rowLines=0;fontStyle=1;align=center;resizeLast=1;html=1;fillColor=#0050ef;fontColor=#000000;strokeColor=#000000;fontSize=15;labelBorderColor=none;labelBackgroundColor=none;" parent="1" vertex="1">
          <mxGeometry x="1390" y="480" width="310" height="150" as="geometry" />
        </mxCell>
        <mxCell id="SNQ56c9XRR32mOw2F68g-147" value="" style="shape=tableRow;horizontal=0;startSize=0;swimlaneHead=0;swimlaneBody=0;fillColor=none;collapsible=0;dropTarget=0;points=[[0,0.5],[1,0.5]];portConstraint=eastwest;top=0;left=0;right=0;bottom=1;fontSize=15;fontColor=#000000;labelBorderColor=none;labelBackgroundColor=none;strokeColor=#000000;" parent="SNQ56c9XRR32mOw2F68g-146" vertex="1">
          <mxGeometry y="30" width="310" height="30" as="geometry" />
        </mxCell>
        <mxCell id="SNQ56c9XRR32mOw2F68g-148" value="PK" style="shape=partialRectangle;connectable=0;fillColor=none;top=0;left=0;bottom=0;right=0;fontStyle=1;overflow=hidden;whiteSpace=wrap;html=1;fontSize=15;fontColor=#000000;labelBorderColor=none;labelBackgroundColor=none;strokeColor=#000000;" parent="SNQ56c9XRR32mOw2F68g-147" vertex="1">
          <mxGeometry width="30" height="30" as="geometry">
            <mxRectangle width="30" height="30" as="alternateBounds" />
          </mxGeometry>
        </mxCell>
        <mxCell id="SNQ56c9XRR32mOw2F68g-149" value="geo_id" style="shape=partialRectangle;connectable=0;fillColor=none;top=0;left=0;bottom=0;right=0;align=left;spacingLeft=6;fontStyle=5;overflow=hidden;whiteSpace=wrap;html=1;fontSize=15;fontColor=#000000;labelBorderColor=none;labelBackgroundColor=none;strokeColor=#000000;" parent="SNQ56c9XRR32mOw2F68g-147" vertex="1">
          <mxGeometry x="30" width="150" height="30" as="geometry">
            <mxRectangle width="150" height="30" as="alternateBounds" />
          </mxGeometry>
        </mxCell>
        <mxCell id="SNQ56c9XRR32mOw2F68g-159" value="INT" style="shape=partialRectangle;connectable=0;fillColor=none;top=0;left=0;bottom=0;right=0;align=left;spacingLeft=6;fontStyle=5;overflow=hidden;whiteSpace=wrap;html=1;fontSize=15;fontColor=#000000;labelBorderColor=none;labelBackgroundColor=none;strokeColor=#000000;" parent="SNQ56c9XRR32mOw2F68g-147" vertex="1">
          <mxGeometry x="180" width="130" height="30" as="geometry">
            <mxRectangle width="130" height="30" as="alternateBounds" />
          </mxGeometry>
        </mxCell>
        <mxCell id="SNQ56c9XRR32mOw2F68g-150" value="" style="shape=tableRow;horizontal=0;startSize=0;swimlaneHead=0;swimlaneBody=0;fillColor=none;collapsible=0;dropTarget=0;points=[[0,0.5],[1,0.5]];portConstraint=eastwest;top=0;left=0;right=0;bottom=0;fontSize=15;fontColor=#000000;labelBorderColor=none;labelBackgroundColor=none;strokeColor=#000000;" parent="SNQ56c9XRR32mOw2F68g-146" vertex="1">
          <mxGeometry y="60" width="310" height="30" as="geometry" />
        </mxCell>
        <mxCell id="SNQ56c9XRR32mOw2F68g-151" value="" style="shape=partialRectangle;connectable=0;fillColor=none;top=0;left=0;bottom=0;right=0;editable=1;overflow=hidden;whiteSpace=wrap;html=1;fontSize=15;fontColor=#000000;labelBorderColor=none;labelBackgroundColor=none;strokeColor=#000000;" parent="SNQ56c9XRR32mOw2F68g-150" vertex="1">
          <mxGeometry width="30" height="30" as="geometry">
            <mxRectangle width="30" height="30" as="alternateBounds" />
          </mxGeometry>
        </mxCell>
        <mxCell id="SNQ56c9XRR32mOw2F68g-152" value="zip_code_prefix" style="shape=partialRectangle;connectable=0;fillColor=none;top=0;left=0;bottom=0;right=0;align=left;spacingLeft=6;overflow=hidden;whiteSpace=wrap;html=1;fontSize=15;fontColor=#000000;labelBorderColor=none;labelBackgroundColor=none;strokeColor=#000000;" parent="SNQ56c9XRR32mOw2F68g-150" vertex="1">
          <mxGeometry x="30" width="150" height="30" as="geometry">
            <mxRectangle width="150" height="30" as="alternateBounds" />
          </mxGeometry>
        </mxCell>
        <mxCell id="SNQ56c9XRR32mOw2F68g-160" value="INT" style="shape=partialRectangle;connectable=0;fillColor=none;top=0;left=0;bottom=0;right=0;align=left;spacingLeft=6;overflow=hidden;whiteSpace=wrap;html=1;fontSize=15;fontColor=#000000;labelBorderColor=none;labelBackgroundColor=none;strokeColor=#000000;" parent="SNQ56c9XRR32mOw2F68g-150" vertex="1">
          <mxGeometry x="180" width="130" height="30" as="geometry">
            <mxRectangle width="130" height="30" as="alternateBounds" />
          </mxGeometry>
        </mxCell>
        <mxCell id="SNQ56c9XRR32mOw2F68g-153" value="" style="shape=tableRow;horizontal=0;startSize=0;swimlaneHead=0;swimlaneBody=0;fillColor=none;collapsible=0;dropTarget=0;points=[[0,0.5],[1,0.5]];portConstraint=eastwest;top=0;left=0;right=0;bottom=0;fontSize=15;fontColor=#000000;labelBorderColor=none;labelBackgroundColor=none;strokeColor=#000000;" parent="SNQ56c9XRR32mOw2F68g-146" vertex="1">
          <mxGeometry y="90" width="310" height="30" as="geometry" />
        </mxCell>
        <mxCell id="SNQ56c9XRR32mOw2F68g-154" value="" style="shape=partialRectangle;connectable=0;fillColor=none;top=0;left=0;bottom=0;right=0;editable=1;overflow=hidden;whiteSpace=wrap;html=1;fontSize=15;fontColor=#000000;labelBorderColor=none;labelBackgroundColor=none;strokeColor=#000000;" parent="SNQ56c9XRR32mOw2F68g-153" vertex="1">
          <mxGeometry width="30" height="30" as="geometry">
            <mxRectangle width="30" height="30" as="alternateBounds" />
          </mxGeometry>
        </mxCell>
        <mxCell id="SNQ56c9XRR32mOw2F68g-155" value="city" style="shape=partialRectangle;connectable=0;fillColor=none;top=0;left=0;bottom=0;right=0;align=left;spacingLeft=6;overflow=hidden;whiteSpace=wrap;html=1;fontSize=15;fontColor=#000000;labelBorderColor=none;labelBackgroundColor=none;strokeColor=#000000;" parent="SNQ56c9XRR32mOw2F68g-153" vertex="1">
          <mxGeometry x="30" width="150" height="30" as="geometry">
            <mxRectangle width="150" height="30" as="alternateBounds" />
          </mxGeometry>
        </mxCell>
        <mxCell id="SNQ56c9XRR32mOw2F68g-161" value="NVARCHAR(255)" style="shape=partialRectangle;connectable=0;fillColor=none;top=0;left=0;bottom=0;right=0;align=left;spacingLeft=6;overflow=hidden;whiteSpace=wrap;html=1;fontSize=15;fontColor=#000000;labelBorderColor=none;labelBackgroundColor=none;strokeColor=#000000;" parent="SNQ56c9XRR32mOw2F68g-153" vertex="1">
          <mxGeometry x="180" width="130" height="30" as="geometry">
            <mxRectangle width="130" height="30" as="alternateBounds" />
          </mxGeometry>
        </mxCell>
        <mxCell id="SNQ56c9XRR32mOw2F68g-156" value="" style="shape=tableRow;horizontal=0;startSize=0;swimlaneHead=0;swimlaneBody=0;fillColor=none;collapsible=0;dropTarget=0;points=[[0,0.5],[1,0.5]];portConstraint=eastwest;top=0;left=0;right=0;bottom=0;fontSize=15;fontColor=#000000;labelBorderColor=none;labelBackgroundColor=none;strokeColor=#000000;" parent="SNQ56c9XRR32mOw2F68g-146" vertex="1">
          <mxGeometry y="120" width="310" height="30" as="geometry" />
        </mxCell>
        <mxCell id="SNQ56c9XRR32mOw2F68g-157" value="" style="shape=partialRectangle;connectable=0;fillColor=none;top=0;left=0;bottom=0;right=0;editable=1;overflow=hidden;whiteSpace=wrap;html=1;fontSize=15;fontColor=#000000;labelBorderColor=none;labelBackgroundColor=none;strokeColor=#000000;" parent="SNQ56c9XRR32mOw2F68g-156" vertex="1">
          <mxGeometry width="30" height="30" as="geometry">
            <mxRectangle width="30" height="30" as="alternateBounds" />
          </mxGeometry>
        </mxCell>
        <mxCell id="SNQ56c9XRR32mOw2F68g-158" value="state" style="shape=partialRectangle;connectable=0;fillColor=none;top=0;left=0;bottom=0;right=0;align=left;spacingLeft=6;overflow=hidden;whiteSpace=wrap;html=1;fontSize=15;fontColor=#000000;labelBorderColor=none;labelBackgroundColor=none;strokeColor=#000000;" parent="SNQ56c9XRR32mOw2F68g-156" vertex="1">
          <mxGeometry x="30" width="150" height="30" as="geometry">
            <mxRectangle width="150" height="30" as="alternateBounds" />
          </mxGeometry>
        </mxCell>
        <mxCell id="SNQ56c9XRR32mOw2F68g-162" value="&lt;span style=&quot;font-family: Helvetica; font-style: normal; font-variant-ligatures: normal; font-variant-caps: normal; font-weight: 400; letter-spacing: normal; orphans: 2; text-align: left; text-indent: 0px; text-transform: none; widows: 2; word-spacing: 0px; -webkit-text-stroke-width: 0px; white-space: normal; text-decoration-thickness: initial; text-decoration-style: initial; text-decoration-color: initial; float: none; display: inline !important;&quot;&gt;NVARCHAR(255)&lt;/span&gt;&lt;div&gt;&lt;br&gt;&lt;/div&gt;" style="shape=partialRectangle;connectable=0;fillColor=none;top=0;left=0;bottom=0;right=0;align=left;spacingLeft=6;overflow=hidden;whiteSpace=wrap;html=1;fontSize=15;fontColor=#000000;labelBorderColor=none;labelBackgroundColor=none;strokeColor=#000000;" parent="SNQ56c9XRR32mOw2F68g-156" vertex="1">
          <mxGeometry x="180" width="130" height="30" as="geometry">
            <mxRectangle width="130" height="30" as="alternateBounds" />
          </mxGeometry>
        </mxCell>
        <mxCell id="SNQ56c9XRR32mOw2F68g-175" value="&lt;font style=&quot;color: rgb(255, 255, 255);&quot;&gt;dim_product&lt;/font&gt;" style="shape=table;startSize=30;container=1;collapsible=1;childLayout=tableLayout;fixedRows=1;rowLines=0;fontStyle=1;align=center;resizeLast=1;html=1;fillColor=#0050ef;fontColor=#000000;strokeColor=#000000;fontSize=15;labelBorderColor=none;labelBackgroundColor=none;" parent="1" vertex="1">
          <mxGeometry x="130" y="740" width="360" height="360" as="geometry" />
        </mxCell>
        <mxCell id="SNQ56c9XRR32mOw2F68g-176" value="" style="shape=tableRow;horizontal=0;startSize=0;swimlaneHead=0;swimlaneBody=0;fillColor=none;collapsible=0;dropTarget=0;points=[[0,0.5],[1,0.5]];portConstraint=eastwest;top=0;left=0;right=0;bottom=1;fontSize=15;fontColor=#000000;labelBorderColor=none;labelBackgroundColor=none;strokeColor=#000000;" parent="SNQ56c9XRR32mOw2F68g-175" vertex="1">
          <mxGeometry y="30" width="360" height="30" as="geometry" />
        </mxCell>
        <mxCell id="SNQ56c9XRR32mOw2F68g-177" value="PK" style="shape=partialRectangle;connectable=0;fillColor=none;top=0;left=0;bottom=0;right=0;fontStyle=1;overflow=hidden;whiteSpace=wrap;html=1;fontSize=15;fontColor=#000000;labelBorderColor=none;labelBackgroundColor=none;strokeColor=#000000;" parent="SNQ56c9XRR32mOw2F68g-176" vertex="1">
          <mxGeometry width="30" height="30" as="geometry">
            <mxRectangle width="30" height="30" as="alternateBounds" />
          </mxGeometry>
        </mxCell>
        <mxCell id="SNQ56c9XRR32mOw2F68g-178" value="product_id" style="shape=partialRectangle;connectable=0;fillColor=none;top=0;left=0;bottom=0;right=0;align=left;spacingLeft=6;fontStyle=5;overflow=hidden;whiteSpace=wrap;html=1;fontSize=15;fontColor=#000000;labelBorderColor=none;labelBackgroundColor=none;strokeColor=#000000;" parent="SNQ56c9XRR32mOw2F68g-176" vertex="1">
          <mxGeometry x="30" width="200" height="30" as="geometry">
            <mxRectangle width="200" height="30" as="alternateBounds" />
          </mxGeometry>
        </mxCell>
        <mxCell id="SNQ56c9XRR32mOw2F68g-191" value="NVARCHAR(255)" style="shape=partialRectangle;connectable=0;fillColor=none;top=0;left=0;bottom=0;right=0;align=left;spacingLeft=6;fontStyle=5;overflow=hidden;whiteSpace=wrap;html=1;fontSize=15;fontColor=#000000;labelBorderColor=none;labelBackgroundColor=none;strokeColor=#000000;" parent="SNQ56c9XRR32mOw2F68g-176" vertex="1">
          <mxGeometry x="230" width="130" height="30" as="geometry">
            <mxRectangle width="130" height="30" as="alternateBounds" />
          </mxGeometry>
        </mxCell>
        <mxCell id="XDzjaHD1MAUmJ3mkmiZD-5" style="shape=tableRow;horizontal=0;startSize=0;swimlaneHead=0;swimlaneBody=0;fillColor=none;collapsible=0;dropTarget=0;points=[[0,0.5],[1,0.5]];portConstraint=eastwest;top=0;left=0;right=0;bottom=0;fontSize=15;fontColor=#000000;labelBorderColor=none;labelBackgroundColor=none;strokeColor=#000000;" parent="SNQ56c9XRR32mOw2F68g-175" vertex="1">
          <mxGeometry y="60" width="360" height="30" as="geometry" />
        </mxCell>
        <mxCell id="XDzjaHD1MAUmJ3mkmiZD-6" style="shape=partialRectangle;connectable=0;fillColor=none;top=0;left=0;bottom=0;right=0;editable=1;overflow=hidden;whiteSpace=wrap;html=1;fontSize=15;fontColor=#000000;labelBorderColor=none;labelBackgroundColor=none;strokeColor=#000000;" parent="XDzjaHD1MAUmJ3mkmiZD-5" vertex="1">
          <mxGeometry width="30" height="30" as="geometry">
            <mxRectangle width="30" height="30" as="alternateBounds" />
          </mxGeometry>
        </mxCell>
        <mxCell id="XDzjaHD1MAUmJ3mkmiZD-7" value="product_name" style="shape=partialRectangle;connectable=0;fillColor=none;top=0;left=0;bottom=0;right=0;align=left;spacingLeft=6;overflow=hidden;whiteSpace=wrap;html=1;fontSize=15;fontColor=#000000;labelBorderColor=none;labelBackgroundColor=none;strokeColor=#000000;" parent="XDzjaHD1MAUmJ3mkmiZD-5" vertex="1">
          <mxGeometry x="30" width="200" height="30" as="geometry">
            <mxRectangle width="200" height="30" as="alternateBounds" />
          </mxGeometry>
        </mxCell>
        <mxCell id="XDzjaHD1MAUmJ3mkmiZD-8" value="NVARCHAR(255)" style="shape=partialRectangle;connectable=0;fillColor=none;top=0;left=0;bottom=0;right=0;align=left;spacingLeft=6;overflow=hidden;whiteSpace=wrap;html=1;fontSize=15;fontColor=#000000;labelBorderColor=none;labelBackgroundColor=none;strokeColor=#000000;" parent="XDzjaHD1MAUmJ3mkmiZD-5" vertex="1">
          <mxGeometry x="230" width="130" height="30" as="geometry">
            <mxRectangle width="130" height="30" as="alternateBounds" />
          </mxGeometry>
        </mxCell>
        <mxCell id="XDzjaHD1MAUmJ3mkmiZD-9" style="shape=tableRow;horizontal=0;startSize=0;swimlaneHead=0;swimlaneBody=0;fillColor=none;collapsible=0;dropTarget=0;points=[[0,0.5],[1,0.5]];portConstraint=eastwest;top=0;left=0;right=0;bottom=0;fontSize=15;fontColor=#000000;labelBorderColor=none;labelBackgroundColor=none;strokeColor=#000000;" parent="SNQ56c9XRR32mOw2F68g-175" vertex="1">
          <mxGeometry y="90" width="360" height="30" as="geometry" />
        </mxCell>
        <mxCell id="XDzjaHD1MAUmJ3mkmiZD-10" style="shape=partialRectangle;connectable=0;fillColor=none;top=0;left=0;bottom=0;right=0;editable=1;overflow=hidden;whiteSpace=wrap;html=1;fontSize=15;fontColor=#000000;labelBorderColor=none;labelBackgroundColor=none;strokeColor=#000000;" parent="XDzjaHD1MAUmJ3mkmiZD-9" vertex="1">
          <mxGeometry width="30" height="30" as="geometry">
            <mxRectangle width="30" height="30" as="alternateBounds" />
          </mxGeometry>
        </mxCell>
        <mxCell id="XDzjaHD1MAUmJ3mkmiZD-11" value="brand" style="shape=partialRectangle;connectable=0;fillColor=none;top=0;left=0;bottom=0;right=0;align=left;spacingLeft=6;overflow=hidden;whiteSpace=wrap;html=1;fontSize=15;fontColor=#000000;labelBorderColor=none;labelBackgroundColor=none;strokeColor=#000000;" parent="XDzjaHD1MAUmJ3mkmiZD-9" vertex="1">
          <mxGeometry x="30" width="200" height="30" as="geometry">
            <mxRectangle width="200" height="30" as="alternateBounds" />
          </mxGeometry>
        </mxCell>
        <mxCell id="XDzjaHD1MAUmJ3mkmiZD-12" value="NVARCHAR(255)" style="shape=partialRectangle;connectable=0;fillColor=none;top=0;left=0;bottom=0;right=0;align=left;spacingLeft=6;overflow=hidden;whiteSpace=wrap;html=1;fontSize=15;fontColor=#000000;labelBorderColor=none;labelBackgroundColor=none;strokeColor=#000000;" parent="XDzjaHD1MAUmJ3mkmiZD-9" vertex="1">
          <mxGeometry x="230" width="130" height="30" as="geometry">
            <mxRectangle width="130" height="30" as="alternateBounds" />
          </mxGeometry>
        </mxCell>
        <mxCell id="SNQ56c9XRR32mOw2F68g-179" value="" style="shape=tableRow;horizontal=0;startSize=0;swimlaneHead=0;swimlaneBody=0;fillColor=none;collapsible=0;dropTarget=0;points=[[0,0.5],[1,0.5]];portConstraint=eastwest;top=0;left=0;right=0;bottom=0;fontSize=15;fontColor=#000000;labelBorderColor=none;labelBackgroundColor=none;strokeColor=#000000;" parent="SNQ56c9XRR32mOw2F68g-175" vertex="1">
          <mxGeometry y="120" width="360" height="30" as="geometry" />
        </mxCell>
        <mxCell id="SNQ56c9XRR32mOw2F68g-180" value="" style="shape=partialRectangle;connectable=0;fillColor=none;top=0;left=0;bottom=0;right=0;editable=1;overflow=hidden;whiteSpace=wrap;html=1;fontSize=15;fontColor=#000000;labelBorderColor=none;labelBackgroundColor=none;strokeColor=#000000;" parent="SNQ56c9XRR32mOw2F68g-179" vertex="1">
          <mxGeometry width="30" height="30" as="geometry">
            <mxRectangle width="30" height="30" as="alternateBounds" />
          </mxGeometry>
        </mxCell>
        <mxCell id="SNQ56c9XRR32mOw2F68g-181" value="category_name" style="shape=partialRectangle;connectable=0;fillColor=none;top=0;left=0;bottom=0;right=0;align=left;spacingLeft=6;overflow=hidden;whiteSpace=wrap;html=1;fontSize=15;fontColor=#000000;labelBorderColor=none;labelBackgroundColor=none;strokeColor=#000000;" parent="SNQ56c9XRR32mOw2F68g-179" vertex="1">
          <mxGeometry x="30" width="200" height="30" as="geometry">
            <mxRectangle width="200" height="30" as="alternateBounds" />
          </mxGeometry>
        </mxCell>
        <mxCell id="SNQ56c9XRR32mOw2F68g-192" value="NVARCHAR(255)" style="shape=partialRectangle;connectable=0;fillColor=none;top=0;left=0;bottom=0;right=0;align=left;spacingLeft=6;overflow=hidden;whiteSpace=wrap;html=1;fontSize=15;fontColor=#000000;labelBorderColor=none;labelBackgroundColor=none;strokeColor=#000000;" parent="SNQ56c9XRR32mOw2F68g-179" vertex="1">
          <mxGeometry x="230" width="130" height="30" as="geometry">
            <mxRectangle width="130" height="30" as="alternateBounds" />
          </mxGeometry>
        </mxCell>
        <mxCell id="SNQ56c9XRR32mOw2F68g-182" value="" style="shape=tableRow;horizontal=0;startSize=0;swimlaneHead=0;swimlaneBody=0;fillColor=none;collapsible=0;dropTarget=0;points=[[0,0.5],[1,0.5]];portConstraint=eastwest;top=0;left=0;right=0;bottom=0;fontSize=15;fontColor=#000000;labelBorderColor=none;labelBackgroundColor=none;strokeColor=#000000;" parent="SNQ56c9XRR32mOw2F68g-175" vertex="1">
          <mxGeometry y="150" width="360" height="30" as="geometry" />
        </mxCell>
        <mxCell id="SNQ56c9XRR32mOw2F68g-183" value="" style="shape=partialRectangle;connectable=0;fillColor=none;top=0;left=0;bottom=0;right=0;editable=1;overflow=hidden;whiteSpace=wrap;html=1;fontSize=15;fontColor=#000000;labelBorderColor=none;labelBackgroundColor=none;strokeColor=#000000;" parent="SNQ56c9XRR32mOw2F68g-182" vertex="1">
          <mxGeometry width="30" height="30" as="geometry">
            <mxRectangle width="30" height="30" as="alternateBounds" />
          </mxGeometry>
        </mxCell>
        <mxCell id="SNQ56c9XRR32mOw2F68g-184" value="product_name_length" style="shape=partialRectangle;connectable=0;fillColor=none;top=0;left=0;bottom=0;right=0;align=left;spacingLeft=6;overflow=hidden;whiteSpace=wrap;html=1;fontSize=15;fontColor=#000000;labelBorderColor=none;labelBackgroundColor=none;strokeColor=#000000;" parent="SNQ56c9XRR32mOw2F68g-182" vertex="1">
          <mxGeometry x="30" width="200" height="30" as="geometry">
            <mxRectangle width="200" height="30" as="alternateBounds" />
          </mxGeometry>
        </mxCell>
        <mxCell id="SNQ56c9XRR32mOw2F68g-193" value="INT" style="shape=partialRectangle;connectable=0;fillColor=none;top=0;left=0;bottom=0;right=0;align=left;spacingLeft=6;overflow=hidden;whiteSpace=wrap;html=1;fontSize=15;fontColor=#000000;labelBorderColor=none;labelBackgroundColor=none;strokeColor=#000000;" parent="SNQ56c9XRR32mOw2F68g-182" vertex="1">
          <mxGeometry x="230" width="130" height="30" as="geometry">
            <mxRectangle width="130" height="30" as="alternateBounds" />
          </mxGeometry>
        </mxCell>
        <mxCell id="SNQ56c9XRR32mOw2F68g-185" value="" style="shape=tableRow;horizontal=0;startSize=0;swimlaneHead=0;swimlaneBody=0;fillColor=none;collapsible=0;dropTarget=0;points=[[0,0.5],[1,0.5]];portConstraint=eastwest;top=0;left=0;right=0;bottom=0;fontSize=15;fontColor=#000000;labelBorderColor=none;labelBackgroundColor=none;strokeColor=#000000;" parent="SNQ56c9XRR32mOw2F68g-175" vertex="1">
          <mxGeometry y="180" width="360" height="30" as="geometry" />
        </mxCell>
        <mxCell id="SNQ56c9XRR32mOw2F68g-186" value="" style="shape=partialRectangle;connectable=0;fillColor=none;top=0;left=0;bottom=0;right=0;editable=1;overflow=hidden;whiteSpace=wrap;html=1;fontSize=15;fontColor=#000000;labelBorderColor=none;labelBackgroundColor=none;strokeColor=#000000;" parent="SNQ56c9XRR32mOw2F68g-185" vertex="1">
          <mxGeometry width="30" height="30" as="geometry">
            <mxRectangle width="30" height="30" as="alternateBounds" />
          </mxGeometry>
        </mxCell>
        <mxCell id="SNQ56c9XRR32mOw2F68g-187" value="&lt;pre style=&quot;border: none; margin: 0px; padding: 0px; overflow: auto; word-break: break-all; overflow-wrap: break-word; text-wrap-mode: wrap; font-family: menlo, consolas, &amp;quot;DejaVu Sans Mono&amp;quot;, monospace; line-height: 1.3077;&quot; data--h-bstatus=&quot;0OBSERVED&quot;&gt;product_description_length&lt;/pre&gt;" style="shape=partialRectangle;connectable=0;fillColor=none;top=0;left=0;bottom=0;right=0;align=left;spacingLeft=6;overflow=hidden;whiteSpace=wrap;html=1;fontSize=15;fontColor=#000000;labelBorderColor=none;labelBackgroundColor=none;strokeColor=#000000;" parent="SNQ56c9XRR32mOw2F68g-185" vertex="1">
          <mxGeometry x="30" width="200" height="30" as="geometry">
            <mxRectangle width="200" height="30" as="alternateBounds" />
          </mxGeometry>
        </mxCell>
        <mxCell id="SNQ56c9XRR32mOw2F68g-194" value="INT" style="shape=partialRectangle;connectable=0;fillColor=none;top=0;left=0;bottom=0;right=0;align=left;spacingLeft=6;overflow=hidden;whiteSpace=wrap;html=1;fontSize=15;fontColor=#000000;labelBorderColor=none;labelBackgroundColor=none;strokeColor=#000000;" parent="SNQ56c9XRR32mOw2F68g-185" vertex="1">
          <mxGeometry x="230" width="130" height="30" as="geometry">
            <mxRectangle width="130" height="30" as="alternateBounds" />
          </mxGeometry>
        </mxCell>
        <mxCell id="SNQ56c9XRR32mOw2F68g-188" style="shape=tableRow;horizontal=0;startSize=0;swimlaneHead=0;swimlaneBody=0;fillColor=none;collapsible=0;dropTarget=0;points=[[0,0.5],[1,0.5]];portConstraint=eastwest;top=0;left=0;right=0;bottom=0;fontSize=15;fontColor=#000000;labelBorderColor=none;labelBackgroundColor=none;strokeColor=#000000;" parent="SNQ56c9XRR32mOw2F68g-175" vertex="1">
          <mxGeometry y="210" width="360" height="30" as="geometry" />
        </mxCell>
        <mxCell id="SNQ56c9XRR32mOw2F68g-189" style="shape=partialRectangle;connectable=0;fillColor=none;top=0;left=0;bottom=0;right=0;editable=1;overflow=hidden;whiteSpace=wrap;html=1;fontSize=15;fontColor=#000000;labelBorderColor=none;labelBackgroundColor=none;strokeColor=#000000;" parent="SNQ56c9XRR32mOw2F68g-188" vertex="1">
          <mxGeometry width="30" height="30" as="geometry">
            <mxRectangle width="30" height="30" as="alternateBounds" />
          </mxGeometry>
        </mxCell>
        <mxCell id="SNQ56c9XRR32mOw2F68g-190" value="&lt;pre style=&quot;border: none; margin: 0px; padding: 0px; overflow: auto; word-break: break-all; overflow-wrap: break-word; text-wrap-mode: wrap; font-family: menlo, consolas, &amp;quot;DejaVu Sans Mono&amp;quot;, monospace; line-height: 1.3077;&quot; data--h-bstatus=&quot;0OBSERVED&quot;&gt;product_photos_qty&lt;/pre&gt;" style="shape=partialRectangle;connectable=0;fillColor=none;top=0;left=0;bottom=0;right=0;align=left;spacingLeft=6;overflow=hidden;whiteSpace=wrap;html=1;fontSize=15;fontColor=#000000;labelBorderColor=none;labelBackgroundColor=none;strokeColor=#000000;" parent="SNQ56c9XRR32mOw2F68g-188" vertex="1">
          <mxGeometry x="30" width="200" height="30" as="geometry">
            <mxRectangle width="200" height="30" as="alternateBounds" />
          </mxGeometry>
        </mxCell>
        <mxCell id="SNQ56c9XRR32mOw2F68g-195" value="INT" style="shape=partialRectangle;connectable=0;fillColor=none;top=0;left=0;bottom=0;right=0;align=left;spacingLeft=6;overflow=hidden;whiteSpace=wrap;html=1;fontSize=15;fontColor=#000000;labelBorderColor=none;labelBackgroundColor=none;strokeColor=#000000;" parent="SNQ56c9XRR32mOw2F68g-188" vertex="1">
          <mxGeometry x="230" width="130" height="30" as="geometry">
            <mxRectangle width="130" height="30" as="alternateBounds" />
          </mxGeometry>
        </mxCell>
        <mxCell id="SNQ56c9XRR32mOw2F68g-196" style="shape=tableRow;horizontal=0;startSize=0;swimlaneHead=0;swimlaneBody=0;fillColor=none;collapsible=0;dropTarget=0;points=[[0,0.5],[1,0.5]];portConstraint=eastwest;top=0;left=0;right=0;bottom=0;fontSize=15;fontColor=#000000;labelBorderColor=none;labelBackgroundColor=none;strokeColor=#000000;" parent="SNQ56c9XRR32mOw2F68g-175" vertex="1">
          <mxGeometry y="240" width="360" height="30" as="geometry" />
        </mxCell>
        <mxCell id="SNQ56c9XRR32mOw2F68g-197" style="shape=partialRectangle;connectable=0;fillColor=none;top=0;left=0;bottom=0;right=0;editable=1;overflow=hidden;whiteSpace=wrap;html=1;fontSize=15;fontColor=#000000;labelBorderColor=none;labelBackgroundColor=none;strokeColor=#000000;" parent="SNQ56c9XRR32mOw2F68g-196" vertex="1">
          <mxGeometry width="30" height="30" as="geometry">
            <mxRectangle width="30" height="30" as="alternateBounds" />
          </mxGeometry>
        </mxCell>
        <mxCell id="SNQ56c9XRR32mOw2F68g-198" value="&lt;pre style=&quot;border: none; margin: 0px; padding: 0px; overflow: auto; word-break: break-all; overflow-wrap: break-word; text-wrap-mode: wrap; font-family: menlo, consolas, &amp;quot;DejaVu Sans Mono&amp;quot;, monospace; line-height: 1.3077;&quot; data--h-bstatus=&quot;0OBSERVED&quot;&gt;product_weight_g&lt;/pre&gt;" style="shape=partialRectangle;connectable=0;fillColor=none;top=0;left=0;bottom=0;right=0;align=left;spacingLeft=6;overflow=hidden;whiteSpace=wrap;html=1;fontSize=15;fontColor=#000000;labelBorderColor=none;labelBackgroundColor=none;strokeColor=#000000;" parent="SNQ56c9XRR32mOw2F68g-196" vertex="1">
          <mxGeometry x="30" width="200" height="30" as="geometry">
            <mxRectangle width="200" height="30" as="alternateBounds" />
          </mxGeometry>
        </mxCell>
        <mxCell id="SNQ56c9XRR32mOw2F68g-199" value="INT" style="shape=partialRectangle;connectable=0;fillColor=none;top=0;left=0;bottom=0;right=0;align=left;spacingLeft=6;overflow=hidden;whiteSpace=wrap;html=1;fontSize=15;fontColor=#000000;labelBorderColor=none;labelBackgroundColor=none;strokeColor=#000000;" parent="SNQ56c9XRR32mOw2F68g-196" vertex="1">
          <mxGeometry x="230" width="130" height="30" as="geometry">
            <mxRectangle width="130" height="30" as="alternateBounds" />
          </mxGeometry>
        </mxCell>
        <mxCell id="SNQ56c9XRR32mOw2F68g-200" style="shape=tableRow;horizontal=0;startSize=0;swimlaneHead=0;swimlaneBody=0;fillColor=none;collapsible=0;dropTarget=0;points=[[0,0.5],[1,0.5]];portConstraint=eastwest;top=0;left=0;right=0;bottom=0;fontSize=15;fontColor=#000000;labelBorderColor=none;labelBackgroundColor=none;strokeColor=#000000;" parent="SNQ56c9XRR32mOw2F68g-175" vertex="1">
          <mxGeometry y="270" width="360" height="30" as="geometry" />
        </mxCell>
        <mxCell id="SNQ56c9XRR32mOw2F68g-201" style="shape=partialRectangle;connectable=0;fillColor=none;top=0;left=0;bottom=0;right=0;editable=1;overflow=hidden;whiteSpace=wrap;html=1;fontSize=15;fontColor=#000000;labelBorderColor=none;labelBackgroundColor=none;strokeColor=#000000;" parent="SNQ56c9XRR32mOw2F68g-200" vertex="1">
          <mxGeometry width="30" height="30" as="geometry">
            <mxRectangle width="30" height="30" as="alternateBounds" />
          </mxGeometry>
        </mxCell>
        <mxCell id="SNQ56c9XRR32mOw2F68g-202" value="&lt;pre style=&quot;border: none; margin: 0px; padding: 0px; overflow: auto; word-break: break-all; overflow-wrap: break-word; text-wrap-mode: wrap; font-family: menlo, consolas, &amp;quot;DejaVu Sans Mono&amp;quot;, monospace; line-height: 1.3077;&quot; data--h-bstatus=&quot;0OBSERVED&quot;&gt;product_length_cm&lt;/pre&gt;" style="shape=partialRectangle;connectable=0;fillColor=none;top=0;left=0;bottom=0;right=0;align=left;spacingLeft=6;overflow=hidden;whiteSpace=wrap;html=1;fontSize=15;fontColor=#000000;labelBorderColor=none;labelBackgroundColor=none;strokeColor=#000000;" parent="SNQ56c9XRR32mOw2F68g-200" vertex="1">
          <mxGeometry x="30" width="200" height="30" as="geometry">
            <mxRectangle width="200" height="30" as="alternateBounds" />
          </mxGeometry>
        </mxCell>
        <mxCell id="SNQ56c9XRR32mOw2F68g-203" value="INT" style="shape=partialRectangle;connectable=0;fillColor=none;top=0;left=0;bottom=0;right=0;align=left;spacingLeft=6;overflow=hidden;whiteSpace=wrap;html=1;fontSize=15;fontColor=#000000;labelBorderColor=none;labelBackgroundColor=none;strokeColor=#000000;" parent="SNQ56c9XRR32mOw2F68g-200" vertex="1">
          <mxGeometry x="230" width="130" height="30" as="geometry">
            <mxRectangle width="130" height="30" as="alternateBounds" />
          </mxGeometry>
        </mxCell>
        <mxCell id="SNQ56c9XRR32mOw2F68g-208" style="shape=tableRow;horizontal=0;startSize=0;swimlaneHead=0;swimlaneBody=0;fillColor=none;collapsible=0;dropTarget=0;points=[[0,0.5],[1,0.5]];portConstraint=eastwest;top=0;left=0;right=0;bottom=0;fontSize=15;fontColor=#000000;labelBorderColor=none;labelBackgroundColor=none;strokeColor=#000000;" parent="SNQ56c9XRR32mOw2F68g-175" vertex="1">
          <mxGeometry y="300" width="360" height="30" as="geometry" />
        </mxCell>
        <mxCell id="SNQ56c9XRR32mOw2F68g-209" style="shape=partialRectangle;connectable=0;fillColor=none;top=0;left=0;bottom=0;right=0;editable=1;overflow=hidden;whiteSpace=wrap;html=1;fontSize=15;fontColor=#000000;labelBorderColor=none;labelBackgroundColor=none;strokeColor=#000000;" parent="SNQ56c9XRR32mOw2F68g-208" vertex="1">
          <mxGeometry width="30" height="30" as="geometry">
            <mxRectangle width="30" height="30" as="alternateBounds" />
          </mxGeometry>
        </mxCell>
        <mxCell id="SNQ56c9XRR32mOw2F68g-210" value="&lt;pre style=&quot;border: none; margin: 0px; padding: 0px; overflow: auto; word-break: break-all; overflow-wrap: break-word; text-wrap-mode: wrap; font-family: menlo, consolas, &amp;quot;DejaVu Sans Mono&amp;quot;, monospace; line-height: 1.3077;&quot; data--h-bstatus=&quot;0OBSERVED&quot;&gt;product_heigth_cm&lt;/pre&gt;" style="shape=partialRectangle;connectable=0;fillColor=none;top=0;left=0;bottom=0;right=0;align=left;spacingLeft=6;overflow=hidden;whiteSpace=wrap;html=1;fontSize=15;fontColor=#000000;labelBorderColor=none;labelBackgroundColor=none;strokeColor=#000000;" parent="SNQ56c9XRR32mOw2F68g-208" vertex="1">
          <mxGeometry x="30" width="200" height="30" as="geometry">
            <mxRectangle width="200" height="30" as="alternateBounds" />
          </mxGeometry>
        </mxCell>
        <mxCell id="SNQ56c9XRR32mOw2F68g-211" value="INT" style="shape=partialRectangle;connectable=0;fillColor=none;top=0;left=0;bottom=0;right=0;align=left;spacingLeft=6;overflow=hidden;whiteSpace=wrap;html=1;fontSize=15;fontColor=#000000;labelBorderColor=none;labelBackgroundColor=none;strokeColor=#000000;" parent="SNQ56c9XRR32mOw2F68g-208" vertex="1">
          <mxGeometry x="230" width="130" height="30" as="geometry">
            <mxRectangle width="130" height="30" as="alternateBounds" />
          </mxGeometry>
        </mxCell>
        <mxCell id="SNQ56c9XRR32mOw2F68g-212" style="shape=tableRow;horizontal=0;startSize=0;swimlaneHead=0;swimlaneBody=0;fillColor=none;collapsible=0;dropTarget=0;points=[[0,0.5],[1,0.5]];portConstraint=eastwest;top=0;left=0;right=0;bottom=0;fontSize=15;fontColor=#000000;labelBorderColor=none;labelBackgroundColor=none;strokeColor=#000000;" parent="SNQ56c9XRR32mOw2F68g-175" vertex="1">
          <mxGeometry y="330" width="360" height="30" as="geometry" />
        </mxCell>
        <mxCell id="SNQ56c9XRR32mOw2F68g-213" style="shape=partialRectangle;connectable=0;fillColor=none;top=0;left=0;bottom=0;right=0;editable=1;overflow=hidden;whiteSpace=wrap;html=1;fontSize=15;fontColor=#000000;labelBorderColor=none;labelBackgroundColor=none;strokeColor=#000000;" parent="SNQ56c9XRR32mOw2F68g-212" vertex="1">
          <mxGeometry width="30" height="30" as="geometry">
            <mxRectangle width="30" height="30" as="alternateBounds" />
          </mxGeometry>
        </mxCell>
        <mxCell id="SNQ56c9XRR32mOw2F68g-214" value="&lt;pre style=&quot;border: none; margin: 0px; padding: 0px; overflow: auto; word-break: break-all; overflow-wrap: break-word; text-wrap-mode: wrap; font-family: menlo, consolas, &amp;quot;DejaVu Sans Mono&amp;quot;, monospace; line-height: 1.3077;&quot; data--h-bstatus=&quot;0OBSERVED&quot;&gt;product_width_cm&lt;/pre&gt;" style="shape=partialRectangle;connectable=0;fillColor=none;top=0;left=0;bottom=0;right=0;align=left;spacingLeft=6;overflow=hidden;whiteSpace=wrap;html=1;fontSize=15;fontColor=#000000;labelBorderColor=none;labelBackgroundColor=none;strokeColor=#000000;" parent="SNQ56c9XRR32mOw2F68g-212" vertex="1">
          <mxGeometry x="30" width="200" height="30" as="geometry">
            <mxRectangle width="200" height="30" as="alternateBounds" />
          </mxGeometry>
        </mxCell>
        <mxCell id="SNQ56c9XRR32mOw2F68g-215" value="INT" style="shape=partialRectangle;connectable=0;fillColor=none;top=0;left=0;bottom=0;right=0;align=left;spacingLeft=6;overflow=hidden;whiteSpace=wrap;html=1;fontSize=15;fontColor=#000000;labelBorderColor=none;labelBackgroundColor=none;strokeColor=#000000;" parent="SNQ56c9XRR32mOw2F68g-212" vertex="1">
          <mxGeometry x="230" width="130" height="30" as="geometry">
            <mxRectangle width="130" height="30" as="alternateBounds" />
          </mxGeometry>
        </mxCell>
        <mxCell id="SNQ56c9XRR32mOw2F68g-216" value="&lt;font style=&quot;color: rgb(255, 255, 255);&quot;&gt;dim_sales_rep&lt;/font&gt;" style="shape=table;startSize=30;container=1;collapsible=1;childLayout=tableLayout;fixedRows=1;rowLines=0;fontStyle=1;align=center;resizeLast=1;html=1;fillColor=#0050ef;fontColor=#000000;strokeColor=#000000;fontSize=15;labelBorderColor=none;labelBackgroundColor=none;" parent="1" vertex="1">
          <mxGeometry x="940" y="940" width="290" height="210" as="geometry" />
        </mxCell>
        <mxCell id="SNQ56c9XRR32mOw2F68g-217" value="" style="shape=tableRow;horizontal=0;startSize=0;swimlaneHead=0;swimlaneBody=0;fillColor=none;collapsible=0;dropTarget=0;points=[[0,0.5],[1,0.5]];portConstraint=eastwest;top=0;left=0;right=0;bottom=1;fontSize=15;fontColor=#000000;labelBorderColor=none;labelBackgroundColor=none;strokeColor=#000000;" parent="SNQ56c9XRR32mOw2F68g-216" vertex="1">
          <mxGeometry y="30" width="290" height="30" as="geometry" />
        </mxCell>
        <mxCell id="SNQ56c9XRR32mOw2F68g-218" value="PK" style="shape=partialRectangle;connectable=0;fillColor=none;top=0;left=0;bottom=0;right=0;fontStyle=1;overflow=hidden;whiteSpace=wrap;html=1;fontSize=15;fontColor=#000000;labelBorderColor=none;labelBackgroundColor=none;strokeColor=#000000;" parent="SNQ56c9XRR32mOw2F68g-217" vertex="1">
          <mxGeometry width="30" height="30" as="geometry">
            <mxRectangle width="30" height="30" as="alternateBounds" />
          </mxGeometry>
        </mxCell>
        <mxCell id="SNQ56c9XRR32mOw2F68g-219" value="sales_rep_id" style="shape=partialRectangle;connectable=0;fillColor=none;top=0;left=0;bottom=0;right=0;align=left;spacingLeft=6;fontStyle=5;overflow=hidden;whiteSpace=wrap;html=1;fontSize=15;fontColor=#000000;labelBorderColor=none;labelBackgroundColor=none;strokeColor=#000000;" parent="SNQ56c9XRR32mOw2F68g-217" vertex="1">
          <mxGeometry x="30" width="120" height="30" as="geometry">
            <mxRectangle width="120" height="30" as="alternateBounds" />
          </mxGeometry>
        </mxCell>
        <mxCell id="SNQ56c9XRR32mOw2F68g-229" value="NVARCHAR(255)" style="shape=partialRectangle;connectable=0;fillColor=none;top=0;left=0;bottom=0;right=0;align=left;spacingLeft=6;fontStyle=5;overflow=hidden;whiteSpace=wrap;html=1;fontSize=15;fontColor=#000000;labelBorderColor=none;labelBackgroundColor=none;strokeColor=#000000;" parent="SNQ56c9XRR32mOw2F68g-217" vertex="1">
          <mxGeometry x="150" width="140" height="30" as="geometry">
            <mxRectangle width="140" height="30" as="alternateBounds" />
          </mxGeometry>
        </mxCell>
        <mxCell id="SNQ56c9XRR32mOw2F68g-220" value="" style="shape=tableRow;horizontal=0;startSize=0;swimlaneHead=0;swimlaneBody=0;fillColor=none;collapsible=0;dropTarget=0;points=[[0,0.5],[1,0.5]];portConstraint=eastwest;top=0;left=0;right=0;bottom=0;fontSize=15;fontColor=#000000;labelBorderColor=none;labelBackgroundColor=none;strokeColor=#000000;" parent="SNQ56c9XRR32mOw2F68g-216" vertex="1">
          <mxGeometry y="60" width="290" height="30" as="geometry" />
        </mxCell>
        <mxCell id="SNQ56c9XRR32mOw2F68g-221" value="" style="shape=partialRectangle;connectable=0;fillColor=none;top=0;left=0;bottom=0;right=0;editable=1;overflow=hidden;whiteSpace=wrap;html=1;fontSize=15;fontColor=#000000;labelBorderColor=none;labelBackgroundColor=none;strokeColor=#000000;" parent="SNQ56c9XRR32mOw2F68g-220" vertex="1">
          <mxGeometry width="30" height="30" as="geometry">
            <mxRectangle width="30" height="30" as="alternateBounds" />
          </mxGeometry>
        </mxCell>
        <mxCell id="SNQ56c9XRR32mOw2F68g-222" value="first_name" style="shape=partialRectangle;connectable=0;fillColor=none;top=0;left=0;bottom=0;right=0;align=left;spacingLeft=6;overflow=hidden;whiteSpace=wrap;html=1;fontSize=15;fontColor=#000000;labelBorderColor=none;labelBackgroundColor=none;strokeColor=#000000;" parent="SNQ56c9XRR32mOw2F68g-220" vertex="1">
          <mxGeometry x="30" width="120" height="30" as="geometry">
            <mxRectangle width="120" height="30" as="alternateBounds" />
          </mxGeometry>
        </mxCell>
        <mxCell id="SNQ56c9XRR32mOw2F68g-230" value="NVARCHAR(255)" style="shape=partialRectangle;connectable=0;fillColor=none;top=0;left=0;bottom=0;right=0;align=left;spacingLeft=6;overflow=hidden;whiteSpace=wrap;html=1;fontSize=15;fontColor=#000000;labelBorderColor=none;labelBackgroundColor=none;strokeColor=#000000;" parent="SNQ56c9XRR32mOw2F68g-220" vertex="1">
          <mxGeometry x="150" width="140" height="30" as="geometry">
            <mxRectangle width="140" height="30" as="alternateBounds" />
          </mxGeometry>
        </mxCell>
        <mxCell id="SNQ56c9XRR32mOw2F68g-223" value="" style="shape=tableRow;horizontal=0;startSize=0;swimlaneHead=0;swimlaneBody=0;fillColor=none;collapsible=0;dropTarget=0;points=[[0,0.5],[1,0.5]];portConstraint=eastwest;top=0;left=0;right=0;bottom=0;fontSize=15;fontColor=#000000;labelBorderColor=none;labelBackgroundColor=none;strokeColor=#000000;" parent="SNQ56c9XRR32mOw2F68g-216" vertex="1">
          <mxGeometry y="90" width="290" height="30" as="geometry" />
        </mxCell>
        <mxCell id="SNQ56c9XRR32mOw2F68g-224" value="" style="shape=partialRectangle;connectable=0;fillColor=none;top=0;left=0;bottom=0;right=0;editable=1;overflow=hidden;whiteSpace=wrap;html=1;fontSize=15;fontColor=#000000;labelBorderColor=none;labelBackgroundColor=none;strokeColor=#000000;" parent="SNQ56c9XRR32mOw2F68g-223" vertex="1">
          <mxGeometry width="30" height="30" as="geometry">
            <mxRectangle width="30" height="30" as="alternateBounds" />
          </mxGeometry>
        </mxCell>
        <mxCell id="SNQ56c9XRR32mOw2F68g-225" value="last_name" style="shape=partialRectangle;connectable=0;fillColor=none;top=0;left=0;bottom=0;right=0;align=left;spacingLeft=6;overflow=hidden;whiteSpace=wrap;html=1;fontSize=15;fontColor=#000000;labelBorderColor=none;labelBackgroundColor=none;strokeColor=#000000;" parent="SNQ56c9XRR32mOw2F68g-223" vertex="1">
          <mxGeometry x="30" width="120" height="30" as="geometry">
            <mxRectangle width="120" height="30" as="alternateBounds" />
          </mxGeometry>
        </mxCell>
        <mxCell id="SNQ56c9XRR32mOw2F68g-231" value="NVARCHAR(255)" style="shape=partialRectangle;connectable=0;fillColor=none;top=0;left=0;bottom=0;right=0;align=left;spacingLeft=6;overflow=hidden;whiteSpace=wrap;html=1;fontSize=15;fontColor=#000000;labelBorderColor=none;labelBackgroundColor=none;strokeColor=#000000;" parent="SNQ56c9XRR32mOw2F68g-223" vertex="1">
          <mxGeometry x="150" width="140" height="30" as="geometry">
            <mxRectangle width="140" height="30" as="alternateBounds" />
          </mxGeometry>
        </mxCell>
        <mxCell id="SNQ56c9XRR32mOw2F68g-226" value="" style="shape=tableRow;horizontal=0;startSize=0;swimlaneHead=0;swimlaneBody=0;fillColor=none;collapsible=0;dropTarget=0;points=[[0,0.5],[1,0.5]];portConstraint=eastwest;top=0;left=0;right=0;bottom=0;fontSize=15;fontColor=#000000;labelBorderColor=none;labelBackgroundColor=none;strokeColor=#000000;" parent="SNQ56c9XRR32mOw2F68g-216" vertex="1">
          <mxGeometry y="120" width="290" height="30" as="geometry" />
        </mxCell>
        <mxCell id="SNQ56c9XRR32mOw2F68g-227" value="" style="shape=partialRectangle;connectable=0;fillColor=none;top=0;left=0;bottom=0;right=0;editable=1;overflow=hidden;whiteSpace=wrap;html=1;fontSize=15;fontColor=#000000;labelBorderColor=none;labelBackgroundColor=none;strokeColor=#000000;" parent="SNQ56c9XRR32mOw2F68g-226" vertex="1">
          <mxGeometry width="30" height="30" as="geometry">
            <mxRectangle width="30" height="30" as="alternateBounds" />
          </mxGeometry>
        </mxCell>
        <mxCell id="SNQ56c9XRR32mOw2F68g-228" value="gender" style="shape=partialRectangle;connectable=0;fillColor=none;top=0;left=0;bottom=0;right=0;align=left;spacingLeft=6;overflow=hidden;whiteSpace=wrap;html=1;fontSize=15;fontColor=#000000;labelBorderColor=none;labelBackgroundColor=none;strokeColor=#000000;" parent="SNQ56c9XRR32mOw2F68g-226" vertex="1">
          <mxGeometry x="30" width="120" height="30" as="geometry">
            <mxRectangle width="120" height="30" as="alternateBounds" />
          </mxGeometry>
        </mxCell>
        <mxCell id="SNQ56c9XRR32mOw2F68g-232" value="NVARCHAR(255)" style="shape=partialRectangle;connectable=0;fillColor=none;top=0;left=0;bottom=0;right=0;align=left;spacingLeft=6;overflow=hidden;whiteSpace=wrap;html=1;fontSize=15;fontColor=#000000;labelBorderColor=none;labelBackgroundColor=none;strokeColor=#000000;" parent="SNQ56c9XRR32mOw2F68g-226" vertex="1">
          <mxGeometry x="150" width="140" height="30" as="geometry">
            <mxRectangle width="140" height="30" as="alternateBounds" />
          </mxGeometry>
        </mxCell>
        <mxCell id="SNQ56c9XRR32mOw2F68g-383" style="shape=tableRow;horizontal=0;startSize=0;swimlaneHead=0;swimlaneBody=0;fillColor=none;collapsible=0;dropTarget=0;points=[[0,0.5],[1,0.5]];portConstraint=eastwest;top=0;left=0;right=0;bottom=0;fontSize=15;fontColor=#000000;labelBorderColor=none;labelBackgroundColor=none;strokeColor=#000000;" parent="SNQ56c9XRR32mOw2F68g-216" vertex="1">
          <mxGeometry y="150" width="290" height="30" as="geometry" />
        </mxCell>
        <mxCell id="SNQ56c9XRR32mOw2F68g-384" style="shape=partialRectangle;connectable=0;fillColor=none;top=0;left=0;bottom=0;right=0;editable=1;overflow=hidden;whiteSpace=wrap;html=1;fontSize=15;fontColor=#000000;labelBorderColor=none;labelBackgroundColor=none;strokeColor=#000000;" parent="SNQ56c9XRR32mOw2F68g-383" vertex="1">
          <mxGeometry width="30" height="30" as="geometry">
            <mxRectangle width="30" height="30" as="alternateBounds" />
          </mxGeometry>
        </mxCell>
        <mxCell id="SNQ56c9XRR32mOw2F68g-385" value="&lt;pre style=&quot;border: none; margin: 0px; padding: 0px; overflow: auto; word-break: break-all; overflow-wrap: break-word; text-wrap-mode: wrap; font-family: menlo, consolas, &amp;quot;DejaVu Sans Mono&amp;quot;, monospace; line-height: 1.3077;&quot; data--h-bstatus=&quot;0OBSERVED&quot;&gt;role&lt;/pre&gt;" style="shape=partialRectangle;connectable=0;fillColor=none;top=0;left=0;bottom=0;right=0;align=left;spacingLeft=6;overflow=hidden;whiteSpace=wrap;html=1;fontSize=15;fontColor=#000000;labelBorderColor=none;labelBackgroundColor=none;strokeColor=#000000;" parent="SNQ56c9XRR32mOw2F68g-383" vertex="1">
          <mxGeometry x="30" width="120" height="30" as="geometry">
            <mxRectangle width="120" height="30" as="alternateBounds" />
          </mxGeometry>
        </mxCell>
        <mxCell id="SNQ56c9XRR32mOw2F68g-386" value="NVARCHAR(255)" style="shape=partialRectangle;connectable=0;fillColor=none;top=0;left=0;bottom=0;right=0;align=left;spacingLeft=6;overflow=hidden;whiteSpace=wrap;html=1;fontSize=15;fontColor=#000000;labelBorderColor=none;labelBackgroundColor=none;strokeColor=#000000;" parent="SNQ56c9XRR32mOw2F68g-383" vertex="1">
          <mxGeometry x="150" width="140" height="30" as="geometry">
            <mxRectangle width="140" height="30" as="alternateBounds" />
          </mxGeometry>
        </mxCell>
        <mxCell id="etcNweYctCut84uKnA2f-1" style="shape=tableRow;horizontal=0;startSize=0;swimlaneHead=0;swimlaneBody=0;fillColor=none;collapsible=0;dropTarget=0;points=[[0,0.5],[1,0.5]];portConstraint=eastwest;top=0;left=0;right=0;bottom=0;fontSize=15;fontColor=#000000;labelBorderColor=none;labelBackgroundColor=none;strokeColor=#000000;" parent="SNQ56c9XRR32mOw2F68g-216" vertex="1">
          <mxGeometry y="180" width="290" height="30" as="geometry" />
        </mxCell>
        <mxCell id="etcNweYctCut84uKnA2f-2" style="shape=partialRectangle;connectable=0;fillColor=none;top=0;left=0;bottom=0;right=0;editable=1;overflow=hidden;whiteSpace=wrap;html=1;fontSize=15;fontColor=#000000;labelBorderColor=none;labelBackgroundColor=none;strokeColor=#000000;" parent="etcNweYctCut84uKnA2f-1" vertex="1">
          <mxGeometry width="30" height="30" as="geometry">
            <mxRectangle width="30" height="30" as="alternateBounds" />
          </mxGeometry>
        </mxCell>
        <mxCell id="etcNweYctCut84uKnA2f-3" value="facebook_page" style="shape=partialRectangle;connectable=0;fillColor=none;top=0;left=0;bottom=0;right=0;align=left;spacingLeft=6;overflow=hidden;whiteSpace=wrap;html=1;fontSize=15;fontColor=#000000;labelBorderColor=none;labelBackgroundColor=none;strokeColor=#000000;" parent="etcNweYctCut84uKnA2f-1" vertex="1">
          <mxGeometry x="30" width="120" height="30" as="geometry">
            <mxRectangle width="120" height="30" as="alternateBounds" />
          </mxGeometry>
        </mxCell>
        <mxCell id="etcNweYctCut84uKnA2f-4" value="NVARCHAR(255)" style="shape=partialRectangle;connectable=0;fillColor=none;top=0;left=0;bottom=0;right=0;align=left;spacingLeft=6;overflow=hidden;whiteSpace=wrap;html=1;fontSize=15;fontColor=#000000;labelBorderColor=none;labelBackgroundColor=none;strokeColor=#000000;" parent="etcNweYctCut84uKnA2f-1" vertex="1">
          <mxGeometry x="150" width="140" height="30" as="geometry">
            <mxRectangle width="140" height="30" as="alternateBounds" />
          </mxGeometry>
        </mxCell>
        <mxCell id="SNQ56c9XRR32mOw2F68g-246" value="&lt;font color=&quot;#ffffff&quot;&gt;dim_payment&lt;/font&gt;" style="shape=table;startSize=30;container=1;collapsible=1;childLayout=tableLayout;fixedRows=1;rowLines=0;fontStyle=1;align=center;resizeLast=1;html=1;whiteSpace=wrap;fillColor=#0050ef;fontColor=#000000;strokeColor=#000000;fontSize=15;labelBorderColor=none;labelBackgroundColor=none;" parent="1" vertex="1">
          <mxGeometry x="140" y="260" width="340" height="150" as="geometry" />
        </mxCell>
        <mxCell id="SNQ56c9XRR32mOw2F68g-247" value="" style="shape=tableRow;horizontal=0;startSize=0;swimlaneHead=0;swimlaneBody=0;fillColor=none;collapsible=0;dropTarget=0;points=[[0,0.5],[1,0.5]];portConstraint=eastwest;top=0;left=0;right=0;bottom=0;html=1;fontSize=15;fontColor=#000000;labelBorderColor=none;labelBackgroundColor=none;strokeColor=#000000;" parent="SNQ56c9XRR32mOw2F68g-246" vertex="1">
          <mxGeometry y="30" width="340" height="30" as="geometry" />
        </mxCell>
        <mxCell id="SNQ56c9XRR32mOw2F68g-248" value="FK,PK" style="shape=partialRectangle;connectable=0;fillColor=none;top=0;left=0;bottom=0;right=0;fontStyle=1;overflow=hidden;html=1;whiteSpace=wrap;fontSize=15;fontColor=#000000;labelBorderColor=none;labelBackgroundColor=none;strokeColor=#000000;" parent="SNQ56c9XRR32mOw2F68g-247" vertex="1">
          <mxGeometry width="50" height="30" as="geometry">
            <mxRectangle width="50" height="30" as="alternateBounds" />
          </mxGeometry>
        </mxCell>
        <mxCell id="SNQ56c9XRR32mOw2F68g-249" value="order_id" style="shape=partialRectangle;connectable=0;fillColor=none;top=0;left=0;bottom=0;right=0;align=left;spacingLeft=6;fontStyle=5;overflow=hidden;html=1;whiteSpace=wrap;fontSize=15;fontColor=#000000;labelBorderColor=none;labelBackgroundColor=none;strokeColor=#000000;" parent="SNQ56c9XRR32mOw2F68g-247" vertex="1">
          <mxGeometry x="50" width="160" height="30" as="geometry">
            <mxRectangle width="160" height="30" as="alternateBounds" />
          </mxGeometry>
        </mxCell>
        <mxCell id="SNQ56c9XRR32mOw2F68g-262" value="NVARCHAR(255)" style="shape=partialRectangle;connectable=0;fillColor=none;top=0;left=0;bottom=0;right=0;align=left;spacingLeft=6;fontStyle=5;overflow=hidden;html=1;whiteSpace=wrap;fontSize=15;fontColor=#000000;labelBorderColor=none;labelBackgroundColor=none;strokeColor=#000000;" parent="SNQ56c9XRR32mOw2F68g-247" vertex="1">
          <mxGeometry x="210" width="130" height="30" as="geometry">
            <mxRectangle width="130" height="30" as="alternateBounds" />
          </mxGeometry>
        </mxCell>
        <mxCell id="SNQ56c9XRR32mOw2F68g-250" value="" style="shape=tableRow;horizontal=0;startSize=0;swimlaneHead=0;swimlaneBody=0;fillColor=none;collapsible=0;dropTarget=0;points=[[0,0.5],[1,0.5]];portConstraint=eastwest;top=0;left=0;right=0;bottom=1;html=1;fontSize=15;fontColor=#000000;labelBorderColor=none;labelBackgroundColor=none;strokeColor=#000000;" parent="SNQ56c9XRR32mOw2F68g-246" vertex="1">
          <mxGeometry y="60" width="340" height="30" as="geometry" />
        </mxCell>
        <mxCell id="SNQ56c9XRR32mOw2F68g-251" value="PK" style="shape=partialRectangle;connectable=0;fillColor=none;top=0;left=0;bottom=0;right=0;fontStyle=1;overflow=hidden;html=1;whiteSpace=wrap;fontSize=15;fontColor=#000000;labelBorderColor=none;labelBackgroundColor=none;strokeColor=#000000;" parent="SNQ56c9XRR32mOw2F68g-250" vertex="1">
          <mxGeometry width="50" height="30" as="geometry">
            <mxRectangle width="50" height="30" as="alternateBounds" />
          </mxGeometry>
        </mxCell>
        <mxCell id="SNQ56c9XRR32mOw2F68g-252" value="payment_sequential" style="shape=partialRectangle;connectable=0;fillColor=none;top=0;left=0;bottom=0;right=0;align=left;spacingLeft=6;fontStyle=5;overflow=hidden;whiteSpace=wrap;fontSize=15;fontColor=#000000;labelBorderColor=none;labelBackgroundColor=none;strokeColor=#000000;html=1;" parent="SNQ56c9XRR32mOw2F68g-250" vertex="1">
          <mxGeometry x="50" width="160" height="30" as="geometry">
            <mxRectangle width="160" height="30" as="alternateBounds" />
          </mxGeometry>
        </mxCell>
        <mxCell id="SNQ56c9XRR32mOw2F68g-263" value="INT" style="shape=partialRectangle;connectable=0;fillColor=none;top=0;left=0;bottom=0;right=0;align=left;spacingLeft=6;fontStyle=5;overflow=hidden;html=1;whiteSpace=wrap;fontSize=15;fontColor=#000000;labelBorderColor=none;labelBackgroundColor=none;strokeColor=#000000;" parent="SNQ56c9XRR32mOw2F68g-250" vertex="1">
          <mxGeometry x="210" width="130" height="30" as="geometry">
            <mxRectangle width="130" height="30" as="alternateBounds" />
          </mxGeometry>
        </mxCell>
        <mxCell id="SNQ56c9XRR32mOw2F68g-253" value="" style="shape=tableRow;horizontal=0;startSize=0;swimlaneHead=0;swimlaneBody=0;fillColor=none;collapsible=0;dropTarget=0;points=[[0,0.5],[1,0.5]];portConstraint=eastwest;top=0;left=0;right=0;bottom=0;html=1;fontSize=15;fontColor=#000000;labelBorderColor=none;labelBackgroundColor=none;strokeColor=#000000;" parent="SNQ56c9XRR32mOw2F68g-246" vertex="1">
          <mxGeometry y="90" width="340" height="30" as="geometry" />
        </mxCell>
        <mxCell id="SNQ56c9XRR32mOw2F68g-254" value="" style="shape=partialRectangle;connectable=0;fillColor=none;top=0;left=0;bottom=0;right=0;editable=1;overflow=hidden;html=1;whiteSpace=wrap;fontSize=15;fontColor=#000000;labelBorderColor=none;labelBackgroundColor=none;strokeColor=#000000;" parent="SNQ56c9XRR32mOw2F68g-253" vertex="1">
          <mxGeometry width="50" height="30" as="geometry">
            <mxRectangle width="50" height="30" as="alternateBounds" />
          </mxGeometry>
        </mxCell>
        <mxCell id="SNQ56c9XRR32mOw2F68g-255" value="payment_type" style="shape=partialRectangle;connectable=0;fillColor=none;top=0;left=0;bottom=0;right=0;align=left;spacingLeft=6;overflow=hidden;html=1;whiteSpace=wrap;fontSize=15;fontColor=#000000;labelBorderColor=none;labelBackgroundColor=none;strokeColor=#000000;" parent="SNQ56c9XRR32mOw2F68g-253" vertex="1">
          <mxGeometry x="50" width="160" height="30" as="geometry">
            <mxRectangle width="160" height="30" as="alternateBounds" />
          </mxGeometry>
        </mxCell>
        <mxCell id="SNQ56c9XRR32mOw2F68g-264" value="NVARCHAR(255)" style="shape=partialRectangle;connectable=0;fillColor=none;top=0;left=0;bottom=0;right=0;align=left;spacingLeft=6;overflow=hidden;html=1;whiteSpace=wrap;fontSize=15;fontColor=#000000;labelBorderColor=none;labelBackgroundColor=none;strokeColor=#000000;" parent="SNQ56c9XRR32mOw2F68g-253" vertex="1">
          <mxGeometry x="210" width="130" height="30" as="geometry">
            <mxRectangle width="130" height="30" as="alternateBounds" />
          </mxGeometry>
        </mxCell>
        <mxCell id="SNQ56c9XRR32mOw2F68g-256" value="" style="shape=tableRow;horizontal=0;startSize=0;swimlaneHead=0;swimlaneBody=0;fillColor=none;collapsible=0;dropTarget=0;points=[[0,0.5],[1,0.5]];portConstraint=eastwest;top=0;left=0;right=0;bottom=0;html=1;fontSize=15;fontColor=#000000;labelBorderColor=none;labelBackgroundColor=none;strokeColor=#000000;" parent="SNQ56c9XRR32mOw2F68g-246" vertex="1">
          <mxGeometry y="120" width="340" height="30" as="geometry" />
        </mxCell>
        <mxCell id="SNQ56c9XRR32mOw2F68g-257" value="" style="shape=partialRectangle;connectable=0;fillColor=none;top=0;left=0;bottom=0;right=0;editable=1;overflow=hidden;html=1;whiteSpace=wrap;fontSize=15;fontColor=#000000;labelBorderColor=none;labelBackgroundColor=none;strokeColor=#000000;" parent="SNQ56c9XRR32mOw2F68g-256" vertex="1">
          <mxGeometry width="50" height="30" as="geometry">
            <mxRectangle width="50" height="30" as="alternateBounds" />
          </mxGeometry>
        </mxCell>
        <mxCell id="SNQ56c9XRR32mOw2F68g-258" value="payment_installments" style="shape=partialRectangle;connectable=0;fillColor=none;top=0;left=0;bottom=0;right=0;align=left;spacingLeft=6;overflow=hidden;html=1;whiteSpace=wrap;fontSize=15;fontColor=#000000;labelBorderColor=none;labelBackgroundColor=none;strokeColor=#000000;" parent="SNQ56c9XRR32mOw2F68g-256" vertex="1">
          <mxGeometry x="50" width="160" height="30" as="geometry">
            <mxRectangle width="160" height="30" as="alternateBounds" />
          </mxGeometry>
        </mxCell>
        <mxCell id="SNQ56c9XRR32mOw2F68g-265" value="INT" style="shape=partialRectangle;connectable=0;fillColor=none;top=0;left=0;bottom=0;right=0;align=left;spacingLeft=6;overflow=hidden;html=1;whiteSpace=wrap;fontSize=15;fontColor=#000000;labelBorderColor=none;labelBackgroundColor=none;strokeColor=#000000;" parent="SNQ56c9XRR32mOw2F68g-256" vertex="1">
          <mxGeometry x="210" width="130" height="30" as="geometry">
            <mxRectangle width="130" height="30" as="alternateBounds" />
          </mxGeometry>
        </mxCell>
        <mxCell id="SNQ56c9XRR32mOw2F68g-267" value="&lt;font style=&quot;color: rgb(255, 255, 255);&quot;&gt;dim_seller&lt;/font&gt;" style="shape=table;startSize=30;container=1;collapsible=1;childLayout=tableLayout;fixedRows=1;rowLines=0;fontStyle=1;align=center;resizeLast=1;html=1;fillColor=#0050ef;fontColor=#000000;strokeColor=#000000;fontSize=15;labelBorderColor=none;labelBackgroundColor=none;" parent="1" vertex="1">
          <mxGeometry x="1000" y="660" width="270" height="180" as="geometry" />
        </mxCell>
        <mxCell id="SNQ56c9XRR32mOw2F68g-268" value="" style="shape=tableRow;horizontal=0;startSize=0;swimlaneHead=0;swimlaneBody=0;fillColor=none;collapsible=0;dropTarget=0;points=[[0,0.5],[1,0.5]];portConstraint=eastwest;top=0;left=0;right=0;bottom=1;fontSize=15;fontColor=#000000;labelBorderColor=none;labelBackgroundColor=none;strokeColor=#000000;" parent="SNQ56c9XRR32mOw2F68g-267" vertex="1">
          <mxGeometry y="30" width="270" height="30" as="geometry" />
        </mxCell>
        <mxCell id="SNQ56c9XRR32mOw2F68g-269" value="PK" style="shape=partialRectangle;connectable=0;fillColor=none;top=0;left=0;bottom=0;right=0;fontStyle=1;overflow=hidden;whiteSpace=wrap;html=1;fontSize=15;fontColor=#000000;labelBorderColor=none;labelBackgroundColor=none;strokeColor=#000000;" parent="SNQ56c9XRR32mOw2F68g-268" vertex="1">
          <mxGeometry width="30" height="30" as="geometry">
            <mxRectangle width="30" height="30" as="alternateBounds" />
          </mxGeometry>
        </mxCell>
        <mxCell id="SNQ56c9XRR32mOw2F68g-270" value="seller_id" style="shape=partialRectangle;connectable=0;fillColor=none;top=0;left=0;bottom=0;right=0;align=left;spacingLeft=6;fontStyle=5;overflow=hidden;whiteSpace=wrap;html=1;fontSize=15;fontColor=#000000;labelBorderColor=none;labelBackgroundColor=none;strokeColor=#000000;" parent="SNQ56c9XRR32mOw2F68g-268" vertex="1">
          <mxGeometry x="30" width="100" height="30" as="geometry">
            <mxRectangle width="100" height="30" as="alternateBounds" />
          </mxGeometry>
        </mxCell>
        <mxCell id="SNQ56c9XRR32mOw2F68g-280" value="NVARCHAR(255)" style="shape=partialRectangle;connectable=0;fillColor=none;top=0;left=0;bottom=0;right=0;align=left;spacingLeft=6;fontStyle=5;overflow=hidden;whiteSpace=wrap;html=1;fontSize=15;fontColor=#000000;labelBorderColor=none;labelBackgroundColor=none;strokeColor=#000000;" parent="SNQ56c9XRR32mOw2F68g-268" vertex="1">
          <mxGeometry x="130" width="140" height="30" as="geometry">
            <mxRectangle width="140" height="30" as="alternateBounds" />
          </mxGeometry>
        </mxCell>
        <mxCell id="SNQ56c9XRR32mOw2F68g-271" value="" style="shape=tableRow;horizontal=0;startSize=0;swimlaneHead=0;swimlaneBody=0;fillColor=none;collapsible=0;dropTarget=0;points=[[0,0.5],[1,0.5]];portConstraint=eastwest;top=0;left=0;right=0;bottom=0;fontSize=15;fontColor=#000000;labelBorderColor=none;labelBackgroundColor=none;strokeColor=#000000;" parent="SNQ56c9XRR32mOw2F68g-267" vertex="1">
          <mxGeometry y="60" width="270" height="30" as="geometry" />
        </mxCell>
        <mxCell id="SNQ56c9XRR32mOw2F68g-272" value="" style="shape=partialRectangle;connectable=0;fillColor=none;top=0;left=0;bottom=0;right=0;editable=1;overflow=hidden;whiteSpace=wrap;html=1;fontSize=15;fontColor=#000000;labelBorderColor=none;labelBackgroundColor=none;strokeColor=#000000;" parent="SNQ56c9XRR32mOw2F68g-271" vertex="1">
          <mxGeometry width="30" height="30" as="geometry">
            <mxRectangle width="30" height="30" as="alternateBounds" />
          </mxGeometry>
        </mxCell>
        <mxCell id="SNQ56c9XRR32mOw2F68g-273" value="first_name" style="shape=partialRectangle;connectable=0;fillColor=none;top=0;left=0;bottom=0;right=0;align=left;spacingLeft=6;overflow=hidden;whiteSpace=wrap;html=1;fontSize=15;fontColor=#000000;labelBorderColor=none;labelBackgroundColor=none;strokeColor=#000000;" parent="SNQ56c9XRR32mOw2F68g-271" vertex="1">
          <mxGeometry x="30" width="100" height="30" as="geometry">
            <mxRectangle width="100" height="30" as="alternateBounds" />
          </mxGeometry>
        </mxCell>
        <mxCell id="SNQ56c9XRR32mOw2F68g-281" value="NVARCHAR(255)" style="shape=partialRectangle;connectable=0;fillColor=none;top=0;left=0;bottom=0;right=0;align=left;spacingLeft=6;overflow=hidden;whiteSpace=wrap;html=1;fontSize=15;fontColor=#000000;labelBorderColor=none;labelBackgroundColor=none;strokeColor=#000000;" parent="SNQ56c9XRR32mOw2F68g-271" vertex="1">
          <mxGeometry x="130" width="140" height="30" as="geometry">
            <mxRectangle width="140" height="30" as="alternateBounds" />
          </mxGeometry>
        </mxCell>
        <mxCell id="SNQ56c9XRR32mOw2F68g-274" value="" style="shape=tableRow;horizontal=0;startSize=0;swimlaneHead=0;swimlaneBody=0;fillColor=none;collapsible=0;dropTarget=0;points=[[0,0.5],[1,0.5]];portConstraint=eastwest;top=0;left=0;right=0;bottom=0;fontSize=15;fontColor=#000000;labelBorderColor=none;labelBackgroundColor=none;strokeColor=#000000;" parent="SNQ56c9XRR32mOw2F68g-267" vertex="1">
          <mxGeometry y="90" width="270" height="30" as="geometry" />
        </mxCell>
        <mxCell id="SNQ56c9XRR32mOw2F68g-275" value="" style="shape=partialRectangle;connectable=0;fillColor=none;top=0;left=0;bottom=0;right=0;editable=1;overflow=hidden;whiteSpace=wrap;html=1;fontSize=15;fontColor=#000000;labelBorderColor=none;labelBackgroundColor=none;strokeColor=#000000;" parent="SNQ56c9XRR32mOw2F68g-274" vertex="1">
          <mxGeometry width="30" height="30" as="geometry">
            <mxRectangle width="30" height="30" as="alternateBounds" />
          </mxGeometry>
        </mxCell>
        <mxCell id="SNQ56c9XRR32mOw2F68g-276" value="last_name" style="shape=partialRectangle;connectable=0;fillColor=none;top=0;left=0;bottom=0;right=0;align=left;spacingLeft=6;overflow=hidden;whiteSpace=wrap;html=1;fontSize=15;fontColor=#000000;labelBorderColor=none;labelBackgroundColor=none;strokeColor=#000000;" parent="SNQ56c9XRR32mOw2F68g-274" vertex="1">
          <mxGeometry x="30" width="100" height="30" as="geometry">
            <mxRectangle width="100" height="30" as="alternateBounds" />
          </mxGeometry>
        </mxCell>
        <mxCell id="SNQ56c9XRR32mOw2F68g-282" value="NVARCHAR(255)" style="shape=partialRectangle;connectable=0;fillColor=none;top=0;left=0;bottom=0;right=0;align=left;spacingLeft=6;overflow=hidden;whiteSpace=wrap;html=1;fontSize=15;fontColor=#000000;labelBorderColor=none;labelBackgroundColor=none;strokeColor=#000000;" parent="SNQ56c9XRR32mOw2F68g-274" vertex="1">
          <mxGeometry x="130" width="140" height="30" as="geometry">
            <mxRectangle width="140" height="30" as="alternateBounds" />
          </mxGeometry>
        </mxCell>
        <mxCell id="SNQ56c9XRR32mOw2F68g-277" value="" style="shape=tableRow;horizontal=0;startSize=0;swimlaneHead=0;swimlaneBody=0;fillColor=none;collapsible=0;dropTarget=0;points=[[0,0.5],[1,0.5]];portConstraint=eastwest;top=0;left=0;right=0;bottom=0;fontSize=15;fontColor=#000000;labelBorderColor=none;labelBackgroundColor=none;strokeColor=#000000;" parent="SNQ56c9XRR32mOw2F68g-267" vertex="1">
          <mxGeometry y="120" width="270" height="30" as="geometry" />
        </mxCell>
        <mxCell id="SNQ56c9XRR32mOw2F68g-278" value="" style="shape=partialRectangle;connectable=0;fillColor=none;top=0;left=0;bottom=0;right=0;editable=1;overflow=hidden;whiteSpace=wrap;html=1;fontSize=15;fontColor=#000000;labelBorderColor=none;labelBackgroundColor=none;strokeColor=#000000;" parent="SNQ56c9XRR32mOw2F68g-277" vertex="1">
          <mxGeometry width="30" height="30" as="geometry">
            <mxRectangle width="30" height="30" as="alternateBounds" />
          </mxGeometry>
        </mxCell>
        <mxCell id="SNQ56c9XRR32mOw2F68g-279" value="gender" style="shape=partialRectangle;connectable=0;fillColor=none;top=0;left=0;bottom=0;right=0;align=left;spacingLeft=6;overflow=hidden;whiteSpace=wrap;html=1;fontSize=15;fontColor=#000000;labelBorderColor=none;labelBackgroundColor=none;strokeColor=#000000;" parent="SNQ56c9XRR32mOw2F68g-277" vertex="1">
          <mxGeometry x="30" width="100" height="30" as="geometry">
            <mxRectangle width="100" height="30" as="alternateBounds" />
          </mxGeometry>
        </mxCell>
        <mxCell id="SNQ56c9XRR32mOw2F68g-283" value="NVARCHAR(255)" style="shape=partialRectangle;connectable=0;fillColor=none;top=0;left=0;bottom=0;right=0;align=left;spacingLeft=6;overflow=hidden;whiteSpace=wrap;html=1;fontSize=15;fontColor=#000000;labelBorderColor=none;labelBackgroundColor=none;strokeColor=#000000;" parent="SNQ56c9XRR32mOw2F68g-277" vertex="1">
          <mxGeometry x="130" width="140" height="30" as="geometry">
            <mxRectangle width="140" height="30" as="alternateBounds" />
          </mxGeometry>
        </mxCell>
        <mxCell id="SNQ56c9XRR32mOw2F68g-284" style="shape=tableRow;horizontal=0;startSize=0;swimlaneHead=0;swimlaneBody=0;fillColor=none;collapsible=0;dropTarget=0;points=[[0,0.5],[1,0.5]];portConstraint=eastwest;top=0;left=0;right=0;bottom=0;fontSize=15;fontColor=#000000;labelBorderColor=none;labelBackgroundColor=none;strokeColor=#000000;" parent="SNQ56c9XRR32mOw2F68g-267" vertex="1">
          <mxGeometry y="150" width="270" height="30" as="geometry" />
        </mxCell>
        <mxCell id="SNQ56c9XRR32mOw2F68g-285" style="shape=partialRectangle;connectable=0;fillColor=none;top=0;left=0;bottom=0;right=0;editable=1;overflow=hidden;whiteSpace=wrap;html=1;fontSize=15;fontColor=#000000;labelBorderColor=none;labelBackgroundColor=none;strokeColor=#000000;" parent="SNQ56c9XRR32mOw2F68g-284" vertex="1">
          <mxGeometry width="30" height="30" as="geometry">
            <mxRectangle width="30" height="30" as="alternateBounds" />
          </mxGeometry>
        </mxCell>
        <mxCell id="SNQ56c9XRR32mOw2F68g-286" value="geo_id" style="shape=partialRectangle;connectable=0;fillColor=none;top=0;left=0;bottom=0;right=0;align=left;spacingLeft=6;overflow=hidden;whiteSpace=wrap;html=1;fontSize=15;fontColor=#000000;labelBorderColor=none;labelBackgroundColor=none;strokeColor=#000000;" parent="SNQ56c9XRR32mOw2F68g-284" vertex="1">
          <mxGeometry x="30" width="100" height="30" as="geometry">
            <mxRectangle width="100" height="30" as="alternateBounds" />
          </mxGeometry>
        </mxCell>
        <mxCell id="SNQ56c9XRR32mOw2F68g-287" value="INT" style="shape=partialRectangle;connectable=0;fillColor=none;top=0;left=0;bottom=0;right=0;align=left;spacingLeft=6;overflow=hidden;whiteSpace=wrap;html=1;fontSize=15;fontColor=#000000;labelBorderColor=none;labelBackgroundColor=none;strokeColor=#000000;" parent="SNQ56c9XRR32mOw2F68g-284" vertex="1">
          <mxGeometry x="130" width="140" height="30" as="geometry">
            <mxRectangle width="140" height="30" as="alternateBounds" />
          </mxGeometry>
        </mxCell>
        <mxCell id="SNQ56c9XRR32mOw2F68g-288" value="&lt;font color=&quot;#ffffff&quot;&gt;dim_lead&lt;/font&gt;" style="shape=table;startSize=30;container=1;collapsible=1;childLayout=tableLayout;fixedRows=1;rowLines=0;fontStyle=1;align=center;resizeLast=1;html=1;fillColor=#0050ef;fontColor=#000000;strokeColor=#000000;fontSize=15;labelBorderColor=none;labelBackgroundColor=none;" parent="1" vertex="1">
          <mxGeometry x="1810" y="740" width="340" height="300" as="geometry" />
        </mxCell>
        <mxCell id="SNQ56c9XRR32mOw2F68g-289" value="" style="shape=tableRow;horizontal=0;startSize=0;swimlaneHead=0;swimlaneBody=0;fillColor=none;collapsible=0;dropTarget=0;points=[[0,0.5],[1,0.5]];portConstraint=eastwest;top=0;left=0;right=0;bottom=1;fontSize=15;fontColor=#000000;labelBorderColor=none;labelBackgroundColor=none;strokeColor=#000000;" parent="SNQ56c9XRR32mOw2F68g-288" vertex="1">
          <mxGeometry y="30" width="340" height="30" as="geometry" />
        </mxCell>
        <mxCell id="SNQ56c9XRR32mOw2F68g-290" value="PK" style="shape=partialRectangle;connectable=0;fillColor=none;top=0;left=0;bottom=0;right=0;fontStyle=1;overflow=hidden;whiteSpace=wrap;html=1;fontSize=15;fontColor=#000000;labelBorderColor=none;labelBackgroundColor=none;strokeColor=#000000;" parent="SNQ56c9XRR32mOw2F68g-289" vertex="1">
          <mxGeometry width="30" height="30" as="geometry">
            <mxRectangle width="30" height="30" as="alternateBounds" />
          </mxGeometry>
        </mxCell>
        <mxCell id="SNQ56c9XRR32mOw2F68g-291" value="mql_key" style="shape=partialRectangle;connectable=0;fillColor=none;top=0;left=0;bottom=0;right=0;align=left;spacingLeft=6;fontStyle=5;overflow=hidden;whiteSpace=wrap;html=1;fontSize=15;fontColor=#000000;labelBorderColor=none;labelBackgroundColor=none;strokeColor=#000000;" parent="SNQ56c9XRR32mOw2F68g-289" vertex="1">
          <mxGeometry x="30" width="180" height="30" as="geometry">
            <mxRectangle width="180" height="30" as="alternateBounds" />
          </mxGeometry>
        </mxCell>
        <mxCell id="SNQ56c9XRR32mOw2F68g-301" value="INT" style="shape=partialRectangle;connectable=0;fillColor=none;top=0;left=0;bottom=0;right=0;align=left;spacingLeft=6;fontStyle=5;overflow=hidden;whiteSpace=wrap;html=1;fontSize=15;fontColor=#000000;labelBorderColor=none;labelBackgroundColor=none;strokeColor=#000000;" parent="SNQ56c9XRR32mOw2F68g-289" vertex="1">
          <mxGeometry x="210" width="130" height="30" as="geometry">
            <mxRectangle width="130" height="30" as="alternateBounds" />
          </mxGeometry>
        </mxCell>
        <mxCell id="SNQ56c9XRR32mOw2F68g-295" value="" style="shape=tableRow;horizontal=0;startSize=0;swimlaneHead=0;swimlaneBody=0;fillColor=none;collapsible=0;dropTarget=0;points=[[0,0.5],[1,0.5]];portConstraint=eastwest;top=0;left=0;right=0;bottom=0;fontSize=15;fontColor=#000000;labelBorderColor=none;labelBackgroundColor=none;strokeColor=#000000;" parent="SNQ56c9XRR32mOw2F68g-288" vertex="1">
          <mxGeometry y="60" width="340" height="30" as="geometry" />
        </mxCell>
        <mxCell id="SNQ56c9XRR32mOw2F68g-296" value="" style="shape=partialRectangle;connectable=0;fillColor=none;top=0;left=0;bottom=0;right=0;editable=1;overflow=hidden;whiteSpace=wrap;html=1;fontSize=15;fontColor=#000000;labelBorderColor=none;labelBackgroundColor=none;strokeColor=#000000;" parent="SNQ56c9XRR32mOw2F68g-295" vertex="1">
          <mxGeometry width="30" height="30" as="geometry">
            <mxRectangle width="30" height="30" as="alternateBounds" />
          </mxGeometry>
        </mxCell>
        <mxCell id="SNQ56c9XRR32mOw2F68g-297" value="&lt;pre style=&quot;border: none; margin: 0px; padding: 0px; overflow: auto; word-break: break-all; overflow-wrap: break-word; text-wrap-mode: wrap; font-family: menlo, consolas, &amp;quot;DejaVu Sans Mono&amp;quot;, monospace; line-height: 1.3077;&quot; data--h-bstatus=&quot;0OBSERVED&quot;&gt;landing_page_id&lt;/pre&gt;" style="shape=partialRectangle;connectable=0;fillColor=none;top=0;left=0;bottom=0;right=0;align=left;spacingLeft=6;overflow=hidden;whiteSpace=wrap;html=1;fontSize=15;fontColor=#000000;labelBorderColor=none;labelBackgroundColor=none;strokeColor=#000000;" parent="SNQ56c9XRR32mOw2F68g-295" vertex="1">
          <mxGeometry x="30" width="180" height="30" as="geometry">
            <mxRectangle width="180" height="30" as="alternateBounds" />
          </mxGeometry>
        </mxCell>
        <mxCell id="SNQ56c9XRR32mOw2F68g-303" value="NVARCHAR(255)" style="shape=partialRectangle;connectable=0;fillColor=none;top=0;left=0;bottom=0;right=0;align=left;spacingLeft=6;overflow=hidden;whiteSpace=wrap;html=1;fontSize=15;fontColor=#000000;labelBorderColor=none;labelBackgroundColor=none;strokeColor=#000000;" parent="SNQ56c9XRR32mOw2F68g-295" vertex="1">
          <mxGeometry x="210" width="130" height="30" as="geometry">
            <mxRectangle width="130" height="30" as="alternateBounds" />
          </mxGeometry>
        </mxCell>
        <mxCell id="htcTJ87A9hfYxTRruonu-63" style="shape=tableRow;horizontal=0;startSize=0;swimlaneHead=0;swimlaneBody=0;fillColor=none;collapsible=0;dropTarget=0;points=[[0,0.5],[1,0.5]];portConstraint=eastwest;top=0;left=0;right=0;bottom=0;fontSize=15;fontColor=#000000;labelBorderColor=none;labelBackgroundColor=none;strokeColor=#000000;" vertex="1" parent="SNQ56c9XRR32mOw2F68g-288">
          <mxGeometry y="90" width="340" height="30" as="geometry" />
        </mxCell>
        <mxCell id="htcTJ87A9hfYxTRruonu-64" style="shape=partialRectangle;connectable=0;fillColor=none;top=0;left=0;bottom=0;right=0;editable=1;overflow=hidden;whiteSpace=wrap;html=1;fontSize=15;fontColor=#000000;labelBorderColor=none;labelBackgroundColor=none;strokeColor=#000000;" vertex="1" parent="htcTJ87A9hfYxTRruonu-63">
          <mxGeometry width="30" height="30" as="geometry">
            <mxRectangle width="30" height="30" as="alternateBounds" />
          </mxGeometry>
        </mxCell>
        <mxCell id="htcTJ87A9hfYxTRruonu-65" value="lead_type" style="shape=partialRectangle;connectable=0;fillColor=none;top=0;left=0;bottom=0;right=0;align=left;spacingLeft=6;overflow=hidden;whiteSpace=wrap;html=1;fontSize=15;fontColor=#000000;labelBorderColor=none;labelBackgroundColor=none;strokeColor=#000000;" vertex="1" parent="htcTJ87A9hfYxTRruonu-63">
          <mxGeometry x="30" width="180" height="30" as="geometry">
            <mxRectangle width="180" height="30" as="alternateBounds" />
          </mxGeometry>
        </mxCell>
        <mxCell id="htcTJ87A9hfYxTRruonu-66" value="NVARCHAR(255)" style="shape=partialRectangle;connectable=0;fillColor=none;top=0;left=0;bottom=0;right=0;align=left;spacingLeft=6;overflow=hidden;whiteSpace=wrap;html=1;fontSize=15;fontColor=#000000;labelBorderColor=none;labelBackgroundColor=none;strokeColor=#000000;" vertex="1" parent="htcTJ87A9hfYxTRruonu-63">
          <mxGeometry x="210" width="130" height="30" as="geometry">
            <mxRectangle width="130" height="30" as="alternateBounds" />
          </mxGeometry>
        </mxCell>
        <mxCell id="htcTJ87A9hfYxTRruonu-71" style="shape=tableRow;horizontal=0;startSize=0;swimlaneHead=0;swimlaneBody=0;fillColor=none;collapsible=0;dropTarget=0;points=[[0,0.5],[1,0.5]];portConstraint=eastwest;top=0;left=0;right=0;bottom=0;fontSize=15;fontColor=#000000;labelBorderColor=none;labelBackgroundColor=none;strokeColor=#000000;" vertex="1" parent="SNQ56c9XRR32mOw2F68g-288">
          <mxGeometry y="120" width="340" height="30" as="geometry" />
        </mxCell>
        <mxCell id="htcTJ87A9hfYxTRruonu-72" style="shape=partialRectangle;connectable=0;fillColor=none;top=0;left=0;bottom=0;right=0;editable=1;overflow=hidden;whiteSpace=wrap;html=1;fontSize=15;fontColor=#000000;labelBorderColor=none;labelBackgroundColor=none;strokeColor=#000000;" vertex="1" parent="htcTJ87A9hfYxTRruonu-71">
          <mxGeometry width="30" height="30" as="geometry">
            <mxRectangle width="30" height="30" as="alternateBounds" />
          </mxGeometry>
        </mxCell>
        <mxCell id="htcTJ87A9hfYxTRruonu-73" value="lead_behaviour_profile" style="shape=partialRectangle;connectable=0;fillColor=none;top=0;left=0;bottom=0;right=0;align=left;spacingLeft=6;overflow=hidden;whiteSpace=wrap;html=1;fontSize=15;fontColor=#000000;labelBorderColor=none;labelBackgroundColor=none;strokeColor=#000000;" vertex="1" parent="htcTJ87A9hfYxTRruonu-71">
          <mxGeometry x="30" width="180" height="30" as="geometry">
            <mxRectangle width="180" height="30" as="alternateBounds" />
          </mxGeometry>
        </mxCell>
        <mxCell id="htcTJ87A9hfYxTRruonu-74" value="NVARCHAR(255)" style="shape=partialRectangle;connectable=0;fillColor=none;top=0;left=0;bottom=0;right=0;align=left;spacingLeft=6;overflow=hidden;whiteSpace=wrap;html=1;fontSize=15;fontColor=#000000;labelBorderColor=none;labelBackgroundColor=none;strokeColor=#000000;" vertex="1" parent="htcTJ87A9hfYxTRruonu-71">
          <mxGeometry x="210" width="130" height="30" as="geometry">
            <mxRectangle width="130" height="30" as="alternateBounds" />
          </mxGeometry>
        </mxCell>
        <mxCell id="htcTJ87A9hfYxTRruonu-67" style="shape=tableRow;horizontal=0;startSize=0;swimlaneHead=0;swimlaneBody=0;fillColor=none;collapsible=0;dropTarget=0;points=[[0,0.5],[1,0.5]];portConstraint=eastwest;top=0;left=0;right=0;bottom=0;fontSize=15;fontColor=#000000;labelBorderColor=none;labelBackgroundColor=none;strokeColor=#000000;" vertex="1" parent="SNQ56c9XRR32mOw2F68g-288">
          <mxGeometry y="150" width="340" height="30" as="geometry" />
        </mxCell>
        <mxCell id="htcTJ87A9hfYxTRruonu-68" style="shape=partialRectangle;connectable=0;fillColor=none;top=0;left=0;bottom=0;right=0;editable=1;overflow=hidden;whiteSpace=wrap;html=1;fontSize=15;fontColor=#000000;labelBorderColor=none;labelBackgroundColor=none;strokeColor=#000000;" vertex="1" parent="htcTJ87A9hfYxTRruonu-67">
          <mxGeometry width="30" height="30" as="geometry">
            <mxRectangle width="30" height="30" as="alternateBounds" />
          </mxGeometry>
        </mxCell>
        <mxCell id="htcTJ87A9hfYxTRruonu-69" value="business_type" style="shape=partialRectangle;connectable=0;fillColor=none;top=0;left=0;bottom=0;right=0;align=left;spacingLeft=6;overflow=hidden;whiteSpace=wrap;html=1;fontSize=15;fontColor=#000000;labelBorderColor=none;labelBackgroundColor=none;strokeColor=#000000;" vertex="1" parent="htcTJ87A9hfYxTRruonu-67">
          <mxGeometry x="30" width="180" height="30" as="geometry">
            <mxRectangle width="180" height="30" as="alternateBounds" />
          </mxGeometry>
        </mxCell>
        <mxCell id="htcTJ87A9hfYxTRruonu-70" value="NVARCHAR(255)" style="shape=partialRectangle;connectable=0;fillColor=none;top=0;left=0;bottom=0;right=0;align=left;spacingLeft=6;overflow=hidden;whiteSpace=wrap;html=1;fontSize=15;fontColor=#000000;labelBorderColor=none;labelBackgroundColor=none;strokeColor=#000000;" vertex="1" parent="htcTJ87A9hfYxTRruonu-67">
          <mxGeometry x="210" width="130" height="30" as="geometry">
            <mxRectangle width="130" height="30" as="alternateBounds" />
          </mxGeometry>
        </mxCell>
        <mxCell id="SNQ56c9XRR32mOw2F68g-298" value="" style="shape=tableRow;horizontal=0;startSize=0;swimlaneHead=0;swimlaneBody=0;fillColor=none;collapsible=0;dropTarget=0;points=[[0,0.5],[1,0.5]];portConstraint=eastwest;top=0;left=0;right=0;bottom=0;fontSize=15;fontColor=#000000;labelBorderColor=none;labelBackgroundColor=none;strokeColor=#000000;" parent="SNQ56c9XRR32mOw2F68g-288" vertex="1">
          <mxGeometry y="180" width="340" height="30" as="geometry" />
        </mxCell>
        <mxCell id="SNQ56c9XRR32mOw2F68g-299" value="" style="shape=partialRectangle;connectable=0;fillColor=none;top=0;left=0;bottom=0;right=0;editable=1;overflow=hidden;whiteSpace=wrap;html=1;fontSize=15;fontColor=#000000;labelBorderColor=none;labelBackgroundColor=none;strokeColor=#000000;" parent="SNQ56c9XRR32mOw2F68g-298" vertex="1">
          <mxGeometry width="30" height="30" as="geometry">
            <mxRectangle width="30" height="30" as="alternateBounds" />
          </mxGeometry>
        </mxCell>
        <mxCell id="SNQ56c9XRR32mOw2F68g-300" value="origin" style="shape=partialRectangle;connectable=0;fillColor=none;top=0;left=0;bottom=0;right=0;align=left;spacingLeft=6;overflow=hidden;whiteSpace=wrap;html=1;fontSize=15;fontColor=#000000;labelBorderColor=none;labelBackgroundColor=none;strokeColor=#000000;" parent="SNQ56c9XRR32mOw2F68g-298" vertex="1">
          <mxGeometry x="30" width="180" height="30" as="geometry">
            <mxRectangle width="180" height="30" as="alternateBounds" />
          </mxGeometry>
        </mxCell>
        <mxCell id="SNQ56c9XRR32mOw2F68g-304" value="NVARCHAR(255)" style="shape=partialRectangle;connectable=0;fillColor=none;top=0;left=0;bottom=0;right=0;align=left;spacingLeft=6;overflow=hidden;whiteSpace=wrap;html=1;fontSize=15;fontColor=#000000;labelBorderColor=none;labelBackgroundColor=none;strokeColor=#000000;" parent="SNQ56c9XRR32mOw2F68g-298" vertex="1">
          <mxGeometry x="210" width="130" height="30" as="geometry">
            <mxRectangle width="130" height="30" as="alternateBounds" />
          </mxGeometry>
        </mxCell>
        <mxCell id="htcTJ87A9hfYxTRruonu-49" style="shape=tableRow;horizontal=0;startSize=0;swimlaneHead=0;swimlaneBody=0;fillColor=none;collapsible=0;dropTarget=0;points=[[0,0.5],[1,0.5]];portConstraint=eastwest;top=0;left=0;right=0;bottom=0;fontSize=15;fontColor=#000000;labelBorderColor=none;labelBackgroundColor=none;strokeColor=#000000;" vertex="1" parent="SNQ56c9XRR32mOw2F68g-288">
          <mxGeometry y="210" width="340" height="30" as="geometry" />
        </mxCell>
        <mxCell id="htcTJ87A9hfYxTRruonu-50" style="shape=partialRectangle;connectable=0;fillColor=none;top=0;left=0;bottom=0;right=0;editable=1;overflow=hidden;whiteSpace=wrap;html=1;fontSize=15;fontColor=#000000;labelBorderColor=none;labelBackgroundColor=none;strokeColor=#000000;" vertex="1" parent="htcTJ87A9hfYxTRruonu-49">
          <mxGeometry width="30" height="30" as="geometry">
            <mxRectangle width="30" height="30" as="alternateBounds" />
          </mxGeometry>
        </mxCell>
        <mxCell id="htcTJ87A9hfYxTRruonu-51" value="business_segment" style="shape=partialRectangle;connectable=0;fillColor=none;top=0;left=0;bottom=0;right=0;align=left;spacingLeft=6;overflow=hidden;whiteSpace=wrap;html=1;fontSize=15;fontColor=#000000;labelBorderColor=none;labelBackgroundColor=none;strokeColor=#000000;" vertex="1" parent="htcTJ87A9hfYxTRruonu-49">
          <mxGeometry x="30" width="180" height="30" as="geometry">
            <mxRectangle width="180" height="30" as="alternateBounds" />
          </mxGeometry>
        </mxCell>
        <mxCell id="htcTJ87A9hfYxTRruonu-52" value="NVARCHAR(255)" style="shape=partialRectangle;connectable=0;fillColor=none;top=0;left=0;bottom=0;right=0;align=left;spacingLeft=6;overflow=hidden;whiteSpace=wrap;html=1;fontSize=15;fontColor=#000000;labelBorderColor=none;labelBackgroundColor=none;strokeColor=#000000;" vertex="1" parent="htcTJ87A9hfYxTRruonu-49">
          <mxGeometry x="210" width="130" height="30" as="geometry">
            <mxRectangle width="130" height="30" as="alternateBounds" />
          </mxGeometry>
        </mxCell>
        <mxCell id="htcTJ87A9hfYxTRruonu-53" style="shape=tableRow;horizontal=0;startSize=0;swimlaneHead=0;swimlaneBody=0;fillColor=none;collapsible=0;dropTarget=0;points=[[0,0.5],[1,0.5]];portConstraint=eastwest;top=0;left=0;right=0;bottom=0;fontSize=15;fontColor=#000000;labelBorderColor=none;labelBackgroundColor=none;strokeColor=#000000;" vertex="1" parent="SNQ56c9XRR32mOw2F68g-288">
          <mxGeometry y="240" width="340" height="30" as="geometry" />
        </mxCell>
        <mxCell id="htcTJ87A9hfYxTRruonu-54" style="shape=partialRectangle;connectable=0;fillColor=none;top=0;left=0;bottom=0;right=0;editable=1;overflow=hidden;whiteSpace=wrap;html=1;fontSize=15;fontColor=#000000;labelBorderColor=none;labelBackgroundColor=none;strokeColor=#000000;" vertex="1" parent="htcTJ87A9hfYxTRruonu-53">
          <mxGeometry width="30" height="30" as="geometry">
            <mxRectangle width="30" height="30" as="alternateBounds" />
          </mxGeometry>
        </mxCell>
        <mxCell id="htcTJ87A9hfYxTRruonu-55" style="shape=partialRectangle;connectable=0;fillColor=none;top=0;left=0;bottom=0;right=0;align=left;spacingLeft=6;overflow=hidden;whiteSpace=wrap;html=1;fontSize=15;fontColor=#000000;labelBorderColor=none;labelBackgroundColor=none;strokeColor=#000000;" vertex="1" parent="htcTJ87A9hfYxTRruonu-53">
          <mxGeometry x="30" width="180" height="30" as="geometry">
            <mxRectangle width="180" height="30" as="alternateBounds" />
          </mxGeometry>
        </mxCell>
        <mxCell id="htcTJ87A9hfYxTRruonu-56" style="shape=partialRectangle;connectable=0;fillColor=none;top=0;left=0;bottom=0;right=0;align=left;spacingLeft=6;overflow=hidden;whiteSpace=wrap;html=1;fontSize=15;fontColor=#000000;labelBorderColor=none;labelBackgroundColor=none;strokeColor=#000000;" vertex="1" parent="htcTJ87A9hfYxTRruonu-53">
          <mxGeometry x="210" width="130" height="30" as="geometry">
            <mxRectangle width="130" height="30" as="alternateBounds" />
          </mxGeometry>
        </mxCell>
        <mxCell id="htcTJ87A9hfYxTRruonu-57" style="shape=tableRow;horizontal=0;startSize=0;swimlaneHead=0;swimlaneBody=0;fillColor=none;collapsible=0;dropTarget=0;points=[[0,0.5],[1,0.5]];portConstraint=eastwest;top=0;left=0;right=0;bottom=0;fontSize=15;fontColor=#000000;labelBorderColor=none;labelBackgroundColor=none;strokeColor=#000000;" vertex="1" parent="SNQ56c9XRR32mOw2F68g-288">
          <mxGeometry y="270" width="340" height="30" as="geometry" />
        </mxCell>
        <mxCell id="htcTJ87A9hfYxTRruonu-58" style="shape=partialRectangle;connectable=0;fillColor=none;top=0;left=0;bottom=0;right=0;editable=1;overflow=hidden;whiteSpace=wrap;html=1;fontSize=15;fontColor=#000000;labelBorderColor=none;labelBackgroundColor=none;strokeColor=#000000;" vertex="1" parent="htcTJ87A9hfYxTRruonu-57">
          <mxGeometry width="30" height="30" as="geometry">
            <mxRectangle width="30" height="30" as="alternateBounds" />
          </mxGeometry>
        </mxCell>
        <mxCell id="htcTJ87A9hfYxTRruonu-59" style="shape=partialRectangle;connectable=0;fillColor=none;top=0;left=0;bottom=0;right=0;align=left;spacingLeft=6;overflow=hidden;whiteSpace=wrap;html=1;fontSize=15;fontColor=#000000;labelBorderColor=none;labelBackgroundColor=none;strokeColor=#000000;" vertex="1" parent="htcTJ87A9hfYxTRruonu-57">
          <mxGeometry x="30" width="180" height="30" as="geometry">
            <mxRectangle width="180" height="30" as="alternateBounds" />
          </mxGeometry>
        </mxCell>
        <mxCell id="htcTJ87A9hfYxTRruonu-60" style="shape=partialRectangle;connectable=0;fillColor=none;top=0;left=0;bottom=0;right=0;align=left;spacingLeft=6;overflow=hidden;whiteSpace=wrap;html=1;fontSize=15;fontColor=#000000;labelBorderColor=none;labelBackgroundColor=none;strokeColor=#000000;" vertex="1" parent="htcTJ87A9hfYxTRruonu-57">
          <mxGeometry x="210" width="130" height="30" as="geometry">
            <mxRectangle width="130" height="30" as="alternateBounds" />
          </mxGeometry>
        </mxCell>
        <mxCell id="SNQ56c9XRR32mOw2F68g-318" value="&lt;font color=&quot;#ffffff&quot;&gt;fact_qualified_deals&lt;/font&gt;" style="shape=table;startSize=30;container=1;collapsible=1;childLayout=tableLayout;fixedRows=1;rowLines=0;fontStyle=1;align=center;resizeLast=1;html=1;fillColor=#0050ef;fontColor=#000000;strokeColor=#000000;fontSize=15;labelBorderColor=none;labelBackgroundColor=none;" parent="1" vertex="1">
          <mxGeometry x="1340" y="660" width="410" height="360" as="geometry" />
        </mxCell>
        <mxCell id="SNQ56c9XRR32mOw2F68g-319" value="" style="shape=tableRow;horizontal=0;startSize=0;swimlaneHead=0;swimlaneBody=0;fillColor=none;collapsible=0;dropTarget=0;points=[[0,0.5],[1,0.5]];portConstraint=eastwest;top=0;left=0;right=0;bottom=1;fontSize=15;fontColor=#000000;labelBorderColor=none;labelBackgroundColor=none;strokeColor=#000000;" parent="SNQ56c9XRR32mOw2F68g-318" vertex="1">
          <mxGeometry y="30" width="410" height="30" as="geometry" />
        </mxCell>
        <mxCell id="SNQ56c9XRR32mOw2F68g-320" value="PK, FK" style="shape=partialRectangle;connectable=0;fillColor=none;top=0;left=0;bottom=0;right=0;fontStyle=1;overflow=hidden;whiteSpace=wrap;html=1;fontSize=15;fontColor=#000000;labelBorderColor=none;labelBackgroundColor=none;strokeColor=#000000;" parent="SNQ56c9XRR32mOw2F68g-319" vertex="1">
          <mxGeometry width="60" height="30" as="geometry">
            <mxRectangle width="60" height="30" as="alternateBounds" />
          </mxGeometry>
        </mxCell>
        <mxCell id="SNQ56c9XRR32mOw2F68g-321" value="mql_key" style="shape=partialRectangle;connectable=0;fillColor=none;top=0;left=0;bottom=0;right=0;align=left;spacingLeft=6;fontStyle=5;overflow=hidden;whiteSpace=wrap;html=1;fontSize=15;fontColor=#000000;labelBorderColor=none;labelBackgroundColor=none;strokeColor=#000000;" parent="SNQ56c9XRR32mOw2F68g-319" vertex="1">
          <mxGeometry x="60" width="220" height="30" as="geometry">
            <mxRectangle width="220" height="30" as="alternateBounds" />
          </mxGeometry>
        </mxCell>
        <mxCell id="SNQ56c9XRR32mOw2F68g-331" value="NVARCHAR(255)" style="shape=partialRectangle;connectable=0;fillColor=none;top=0;left=0;bottom=0;right=0;align=left;spacingLeft=6;fontStyle=5;overflow=hidden;whiteSpace=wrap;html=1;fontSize=15;fontColor=#000000;labelBorderColor=none;labelBackgroundColor=none;strokeColor=#000000;" parent="SNQ56c9XRR32mOw2F68g-319" vertex="1">
          <mxGeometry x="280" width="130" height="30" as="geometry">
            <mxRectangle width="130" height="30" as="alternateBounds" />
          </mxGeometry>
        </mxCell>
        <mxCell id="SNQ56c9XRR32mOw2F68g-322" value="" style="shape=tableRow;horizontal=0;startSize=0;swimlaneHead=0;swimlaneBody=0;fillColor=none;collapsible=0;dropTarget=0;points=[[0,0.5],[1,0.5]];portConstraint=eastwest;top=0;left=0;right=0;bottom=0;fontSize=15;fontColor=#000000;labelBorderColor=none;labelBackgroundColor=none;strokeColor=#000000;" parent="SNQ56c9XRR32mOw2F68g-318" vertex="1">
          <mxGeometry y="60" width="410" height="30" as="geometry" />
        </mxCell>
        <mxCell id="SNQ56c9XRR32mOw2F68g-323" value="FK" style="shape=partialRectangle;connectable=0;fillColor=none;top=0;left=0;bottom=0;right=0;editable=1;overflow=hidden;whiteSpace=wrap;html=1;fontSize=15;fontColor=#000000;labelBorderColor=none;labelBackgroundColor=none;strokeColor=#000000;fontStyle=1" parent="SNQ56c9XRR32mOw2F68g-322" vertex="1">
          <mxGeometry width="60" height="30" as="geometry">
            <mxRectangle width="60" height="30" as="alternateBounds" />
          </mxGeometry>
        </mxCell>
        <mxCell id="SNQ56c9XRR32mOw2F68g-324" value="seller_id" style="shape=partialRectangle;connectable=0;fillColor=none;top=0;left=0;bottom=0;right=0;align=left;spacingLeft=6;overflow=hidden;whiteSpace=wrap;html=1;fontSize=15;fontColor=#000000;labelBorderColor=none;labelBackgroundColor=none;strokeColor=#000000;" parent="SNQ56c9XRR32mOw2F68g-322" vertex="1">
          <mxGeometry x="60" width="220" height="30" as="geometry">
            <mxRectangle width="220" height="30" as="alternateBounds" />
          </mxGeometry>
        </mxCell>
        <mxCell id="SNQ56c9XRR32mOw2F68g-332" value="NVARCHAR(255)" style="shape=partialRectangle;connectable=0;fillColor=none;top=0;left=0;bottom=0;right=0;align=left;spacingLeft=6;overflow=hidden;whiteSpace=wrap;html=1;fontSize=15;fontColor=#000000;labelBorderColor=none;labelBackgroundColor=none;strokeColor=#000000;" parent="SNQ56c9XRR32mOw2F68g-322" vertex="1">
          <mxGeometry x="280" width="130" height="30" as="geometry">
            <mxRectangle width="130" height="30" as="alternateBounds" />
          </mxGeometry>
        </mxCell>
        <mxCell id="SNQ56c9XRR32mOw2F68g-325" value="" style="shape=tableRow;horizontal=0;startSize=0;swimlaneHead=0;swimlaneBody=0;fillColor=none;collapsible=0;dropTarget=0;points=[[0,0.5],[1,0.5]];portConstraint=eastwest;top=0;left=0;right=0;bottom=0;fontSize=15;fontColor=#000000;labelBorderColor=none;labelBackgroundColor=none;strokeColor=#000000;" parent="SNQ56c9XRR32mOw2F68g-318" vertex="1">
          <mxGeometry y="90" width="410" height="30" as="geometry" />
        </mxCell>
        <mxCell id="SNQ56c9XRR32mOw2F68g-326" value="FK" style="shape=partialRectangle;connectable=0;fillColor=none;top=0;left=0;bottom=0;right=0;editable=1;overflow=hidden;whiteSpace=wrap;html=1;fontSize=15;fontColor=#000000;labelBorderColor=none;labelBackgroundColor=none;strokeColor=#000000;fontStyle=1" parent="SNQ56c9XRR32mOw2F68g-325" vertex="1">
          <mxGeometry width="60" height="30" as="geometry">
            <mxRectangle width="60" height="30" as="alternateBounds" />
          </mxGeometry>
        </mxCell>
        <mxCell id="SNQ56c9XRR32mOw2F68g-327" value="sdr_id" style="shape=partialRectangle;connectable=0;fillColor=none;top=0;left=0;bottom=0;right=0;align=left;spacingLeft=6;overflow=hidden;whiteSpace=wrap;html=1;fontSize=15;fontColor=#000000;labelBorderColor=none;labelBackgroundColor=none;strokeColor=#000000;" parent="SNQ56c9XRR32mOw2F68g-325" vertex="1">
          <mxGeometry x="60" width="220" height="30" as="geometry">
            <mxRectangle width="220" height="30" as="alternateBounds" />
          </mxGeometry>
        </mxCell>
        <mxCell id="SNQ56c9XRR32mOw2F68g-333" value="NVARCHAR(255)" style="shape=partialRectangle;connectable=0;fillColor=none;top=0;left=0;bottom=0;right=0;align=left;spacingLeft=6;overflow=hidden;whiteSpace=wrap;html=1;fontSize=15;fontColor=#000000;labelBorderColor=none;labelBackgroundColor=none;strokeColor=#000000;" parent="SNQ56c9XRR32mOw2F68g-325" vertex="1">
          <mxGeometry x="280" width="130" height="30" as="geometry">
            <mxRectangle width="130" height="30" as="alternateBounds" />
          </mxGeometry>
        </mxCell>
        <mxCell id="SNQ56c9XRR32mOw2F68g-328" value="" style="shape=tableRow;horizontal=0;startSize=0;swimlaneHead=0;swimlaneBody=0;fillColor=none;collapsible=0;dropTarget=0;points=[[0,0.5],[1,0.5]];portConstraint=eastwest;top=0;left=0;right=0;bottom=0;fontSize=15;fontColor=#000000;labelBorderColor=none;labelBackgroundColor=none;strokeColor=#000000;" parent="SNQ56c9XRR32mOw2F68g-318" vertex="1">
          <mxGeometry y="120" width="410" height="30" as="geometry" />
        </mxCell>
        <mxCell id="SNQ56c9XRR32mOw2F68g-329" value="FK" style="shape=partialRectangle;connectable=0;fillColor=none;top=0;left=0;bottom=0;right=0;editable=1;overflow=hidden;whiteSpace=wrap;html=1;fontSize=15;fontColor=#000000;labelBorderColor=none;labelBackgroundColor=none;strokeColor=#000000;fontStyle=1" parent="SNQ56c9XRR32mOw2F68g-328" vertex="1">
          <mxGeometry width="60" height="30" as="geometry">
            <mxRectangle width="60" height="30" as="alternateBounds" />
          </mxGeometry>
        </mxCell>
        <mxCell id="SNQ56c9XRR32mOw2F68g-330" value="sr_id" style="shape=partialRectangle;connectable=0;fillColor=none;top=0;left=0;bottom=0;right=0;align=left;spacingLeft=6;overflow=hidden;whiteSpace=wrap;html=1;fontSize=15;fontColor=#000000;labelBorderColor=none;labelBackgroundColor=none;strokeColor=#000000;" parent="SNQ56c9XRR32mOw2F68g-328" vertex="1">
          <mxGeometry x="60" width="220" height="30" as="geometry">
            <mxRectangle width="220" height="30" as="alternateBounds" />
          </mxGeometry>
        </mxCell>
        <mxCell id="SNQ56c9XRR32mOw2F68g-334" value="NVARCHAR(255)" style="shape=partialRectangle;connectable=0;fillColor=none;top=0;left=0;bottom=0;right=0;align=left;spacingLeft=6;overflow=hidden;whiteSpace=wrap;html=1;fontSize=15;fontColor=#000000;labelBorderColor=none;labelBackgroundColor=none;strokeColor=#000000;" parent="SNQ56c9XRR32mOw2F68g-328" vertex="1">
          <mxGeometry x="280" width="130" height="30" as="geometry">
            <mxRectangle width="130" height="30" as="alternateBounds" />
          </mxGeometry>
        </mxCell>
        <mxCell id="htcTJ87A9hfYxTRruonu-41" style="shape=tableRow;horizontal=0;startSize=0;swimlaneHead=0;swimlaneBody=0;fillColor=none;collapsible=0;dropTarget=0;points=[[0,0.5],[1,0.5]];portConstraint=eastwest;top=0;left=0;right=0;bottom=0;fontSize=15;fontColor=#000000;labelBorderColor=none;labelBackgroundColor=none;strokeColor=#000000;" vertex="1" parent="SNQ56c9XRR32mOw2F68g-318">
          <mxGeometry y="150" width="410" height="30" as="geometry" />
        </mxCell>
        <mxCell id="htcTJ87A9hfYxTRruonu-42" style="shape=partialRectangle;connectable=0;fillColor=none;top=0;left=0;bottom=0;right=0;editable=1;overflow=hidden;whiteSpace=wrap;html=1;fontSize=15;fontColor=#000000;labelBorderColor=none;labelBackgroundColor=none;strokeColor=#000000;fontStyle=1" vertex="1" parent="htcTJ87A9hfYxTRruonu-41">
          <mxGeometry width="60" height="30" as="geometry">
            <mxRectangle width="60" height="30" as="alternateBounds" />
          </mxGeometry>
        </mxCell>
        <mxCell id="htcTJ87A9hfYxTRruonu-43" value="landing_page_id" style="shape=partialRectangle;connectable=0;fillColor=none;top=0;left=0;bottom=0;right=0;align=left;spacingLeft=6;overflow=hidden;whiteSpace=wrap;html=1;fontSize=15;fontColor=#000000;labelBorderColor=none;labelBackgroundColor=none;strokeColor=#000000;" vertex="1" parent="htcTJ87A9hfYxTRruonu-41">
          <mxGeometry x="60" width="220" height="30" as="geometry">
            <mxRectangle width="220" height="30" as="alternateBounds" />
          </mxGeometry>
        </mxCell>
        <mxCell id="htcTJ87A9hfYxTRruonu-44" value="NVARCHAR(255)" style="shape=partialRectangle;connectable=0;fillColor=none;top=0;left=0;bottom=0;right=0;align=left;spacingLeft=6;overflow=hidden;whiteSpace=wrap;html=1;fontSize=15;fontColor=#000000;labelBorderColor=none;labelBackgroundColor=none;strokeColor=#000000;" vertex="1" parent="htcTJ87A9hfYxTRruonu-41">
          <mxGeometry x="280" width="130" height="30" as="geometry">
            <mxRectangle width="130" height="30" as="alternateBounds" />
          </mxGeometry>
        </mxCell>
        <mxCell id="htcTJ87A9hfYxTRruonu-45" style="shape=tableRow;horizontal=0;startSize=0;swimlaneHead=0;swimlaneBody=0;fillColor=none;collapsible=0;dropTarget=0;points=[[0,0.5],[1,0.5]];portConstraint=eastwest;top=0;left=0;right=0;bottom=0;fontSize=15;fontColor=#000000;labelBorderColor=none;labelBackgroundColor=none;strokeColor=#000000;" vertex="1" parent="SNQ56c9XRR32mOw2F68g-318">
          <mxGeometry y="180" width="410" height="30" as="geometry" />
        </mxCell>
        <mxCell id="htcTJ87A9hfYxTRruonu-46" style="shape=partialRectangle;connectable=0;fillColor=none;top=0;left=0;bottom=0;right=0;editable=1;overflow=hidden;whiteSpace=wrap;html=1;fontSize=15;fontColor=#000000;labelBorderColor=none;labelBackgroundColor=none;strokeColor=#000000;fontStyle=1" vertex="1" parent="htcTJ87A9hfYxTRruonu-45">
          <mxGeometry width="60" height="30" as="geometry">
            <mxRectangle width="60" height="30" as="alternateBounds" />
          </mxGeometry>
        </mxCell>
        <mxCell id="htcTJ87A9hfYxTRruonu-47" value="first_contact_date_key" style="shape=partialRectangle;connectable=0;fillColor=none;top=0;left=0;bottom=0;right=0;align=left;spacingLeft=6;overflow=hidden;whiteSpace=wrap;html=1;fontSize=15;fontColor=#000000;labelBorderColor=none;labelBackgroundColor=none;strokeColor=#000000;" vertex="1" parent="htcTJ87A9hfYxTRruonu-45">
          <mxGeometry x="60" width="220" height="30" as="geometry">
            <mxRectangle width="220" height="30" as="alternateBounds" />
          </mxGeometry>
        </mxCell>
        <mxCell id="htcTJ87A9hfYxTRruonu-48" value="INT" style="shape=partialRectangle;connectable=0;fillColor=none;top=0;left=0;bottom=0;right=0;align=left;spacingLeft=6;overflow=hidden;whiteSpace=wrap;html=1;fontSize=15;fontColor=#000000;labelBorderColor=none;labelBackgroundColor=none;strokeColor=#000000;" vertex="1" parent="htcTJ87A9hfYxTRruonu-45">
          <mxGeometry x="280" width="130" height="30" as="geometry">
            <mxRectangle width="130" height="30" as="alternateBounds" />
          </mxGeometry>
        </mxCell>
        <mxCell id="SNQ56c9XRR32mOw2F68g-339" style="shape=tableRow;horizontal=0;startSize=0;swimlaneHead=0;swimlaneBody=0;fillColor=none;collapsible=0;dropTarget=0;points=[[0,0.5],[1,0.5]];portConstraint=eastwest;top=0;left=0;right=0;bottom=0;fontSize=15;fontColor=#000000;labelBorderColor=none;labelBackgroundColor=none;strokeColor=#000000;" parent="SNQ56c9XRR32mOw2F68g-318" vertex="1">
          <mxGeometry y="210" width="410" height="30" as="geometry" />
        </mxCell>
        <mxCell id="SNQ56c9XRR32mOw2F68g-340" value="" style="shape=partialRectangle;connectable=0;fillColor=none;top=0;left=0;bottom=0;right=0;editable=1;overflow=hidden;whiteSpace=wrap;html=1;fontSize=15;fontColor=#000000;labelBorderColor=none;labelBackgroundColor=none;strokeColor=#000000;fontStyle=1" parent="SNQ56c9XRR32mOw2F68g-339" vertex="1">
          <mxGeometry width="60" height="30" as="geometry">
            <mxRectangle width="60" height="30" as="alternateBounds" />
          </mxGeometry>
        </mxCell>
        <mxCell id="SNQ56c9XRR32mOw2F68g-341" value="won_date_key" style="shape=partialRectangle;connectable=0;fillColor=none;top=0;left=0;bottom=0;right=0;align=left;spacingLeft=6;overflow=hidden;whiteSpace=wrap;html=1;fontSize=15;fontColor=#000000;labelBorderColor=none;labelBackgroundColor=none;strokeColor=#000000;" parent="SNQ56c9XRR32mOw2F68g-339" vertex="1">
          <mxGeometry x="60" width="220" height="30" as="geometry">
            <mxRectangle width="220" height="30" as="alternateBounds" />
          </mxGeometry>
        </mxCell>
        <mxCell id="SNQ56c9XRR32mOw2F68g-342" value="INT" style="shape=partialRectangle;connectable=0;fillColor=none;top=0;left=0;bottom=0;right=0;align=left;spacingLeft=6;overflow=hidden;whiteSpace=wrap;html=1;fontSize=15;fontColor=#000000;labelBorderColor=none;labelBackgroundColor=none;strokeColor=#000000;" parent="SNQ56c9XRR32mOw2F68g-339" vertex="1">
          <mxGeometry x="280" width="130" height="30" as="geometry">
            <mxRectangle width="130" height="30" as="alternateBounds" />
          </mxGeometry>
        </mxCell>
        <mxCell id="htcTJ87A9hfYxTRruonu-75" style="shape=tableRow;horizontal=0;startSize=0;swimlaneHead=0;swimlaneBody=0;fillColor=none;collapsible=0;dropTarget=0;points=[[0,0.5],[1,0.5]];portConstraint=eastwest;top=0;left=0;right=0;bottom=0;fontSize=15;fontColor=#000000;labelBorderColor=none;labelBackgroundColor=none;strokeColor=#000000;" vertex="1" parent="SNQ56c9XRR32mOw2F68g-318">
          <mxGeometry y="240" width="410" height="30" as="geometry" />
        </mxCell>
        <mxCell id="htcTJ87A9hfYxTRruonu-76" style="shape=partialRectangle;connectable=0;fillColor=none;top=0;left=0;bottom=0;right=0;editable=1;overflow=hidden;whiteSpace=wrap;html=1;fontSize=15;fontColor=#000000;labelBorderColor=none;labelBackgroundColor=none;strokeColor=#000000;fontStyle=1" vertex="1" parent="htcTJ87A9hfYxTRruonu-75">
          <mxGeometry width="60" height="30" as="geometry">
            <mxRectangle width="60" height="30" as="alternateBounds" />
          </mxGeometry>
        </mxCell>
        <mxCell id="htcTJ87A9hfYxTRruonu-77" value="is_closed" style="shape=partialRectangle;connectable=0;fillColor=none;top=0;left=0;bottom=0;right=0;align=left;spacingLeft=6;overflow=hidden;whiteSpace=wrap;html=1;fontSize=15;fontColor=#000000;labelBorderColor=none;labelBackgroundColor=none;strokeColor=#000000;" vertex="1" parent="htcTJ87A9hfYxTRruonu-75">
          <mxGeometry x="60" width="220" height="30" as="geometry">
            <mxRectangle width="220" height="30" as="alternateBounds" />
          </mxGeometry>
        </mxCell>
        <mxCell id="htcTJ87A9hfYxTRruonu-78" value="BIT" style="shape=partialRectangle;connectable=0;fillColor=none;top=0;left=0;bottom=0;right=0;align=left;spacingLeft=6;overflow=hidden;whiteSpace=wrap;html=1;fontSize=15;fontColor=#000000;labelBorderColor=none;labelBackgroundColor=none;strokeColor=#000000;" vertex="1" parent="htcTJ87A9hfYxTRruonu-75">
          <mxGeometry x="280" width="130" height="30" as="geometry">
            <mxRectangle width="130" height="30" as="alternateBounds" />
          </mxGeometry>
        </mxCell>
        <mxCell id="SNQ56c9XRR32mOw2F68g-355" style="shape=tableRow;horizontal=0;startSize=0;swimlaneHead=0;swimlaneBody=0;fillColor=none;collapsible=0;dropTarget=0;points=[[0,0.5],[1,0.5]];portConstraint=eastwest;top=0;left=0;right=0;bottom=0;fontSize=15;fontColor=#000000;labelBorderColor=none;labelBackgroundColor=none;strokeColor=#000000;" parent="SNQ56c9XRR32mOw2F68g-318" vertex="1">
          <mxGeometry y="270" width="410" height="30" as="geometry" />
        </mxCell>
        <mxCell id="SNQ56c9XRR32mOw2F68g-356" style="shape=partialRectangle;connectable=0;fillColor=none;top=0;left=0;bottom=0;right=0;editable=1;overflow=hidden;whiteSpace=wrap;html=1;fontSize=15;fontColor=#000000;labelBorderColor=none;labelBackgroundColor=none;strokeColor=#000000;" parent="SNQ56c9XRR32mOw2F68g-355" vertex="1">
          <mxGeometry width="60" height="30" as="geometry">
            <mxRectangle width="60" height="30" as="alternateBounds" />
          </mxGeometry>
        </mxCell>
        <mxCell id="SNQ56c9XRR32mOw2F68g-357" value="&lt;pre style=&quot;border: none; margin: 0px; padding: 0px; overflow: auto; word-break: break-all; overflow-wrap: break-word; text-wrap-mode: wrap; font-family: menlo, consolas, &amp;quot;DejaVu Sans Mono&amp;quot;, monospace; line-height: 1.3077;&quot; data--h-bstatus=&quot;0OBSERVED&quot;&gt;has_company&lt;/pre&gt;" style="shape=partialRectangle;connectable=0;fillColor=none;top=0;left=0;bottom=0;right=0;align=left;spacingLeft=6;overflow=hidden;whiteSpace=wrap;html=1;fontSize=15;fontColor=#000000;labelBorderColor=none;labelBackgroundColor=none;strokeColor=#000000;" parent="SNQ56c9XRR32mOw2F68g-355" vertex="1">
          <mxGeometry x="60" width="220" height="30" as="geometry">
            <mxRectangle width="220" height="30" as="alternateBounds" />
          </mxGeometry>
        </mxCell>
        <mxCell id="SNQ56c9XRR32mOw2F68g-358" value="BIT" style="shape=partialRectangle;connectable=0;fillColor=none;top=0;left=0;bottom=0;right=0;align=left;spacingLeft=6;overflow=hidden;whiteSpace=wrap;html=1;fontSize=15;fontColor=#000000;labelBorderColor=none;labelBackgroundColor=none;strokeColor=#000000;" parent="SNQ56c9XRR32mOw2F68g-355" vertex="1">
          <mxGeometry x="280" width="130" height="30" as="geometry">
            <mxRectangle width="130" height="30" as="alternateBounds" />
          </mxGeometry>
        </mxCell>
        <mxCell id="SNQ56c9XRR32mOw2F68g-375" style="shape=tableRow;horizontal=0;startSize=0;swimlaneHead=0;swimlaneBody=0;fillColor=none;collapsible=0;dropTarget=0;points=[[0,0.5],[1,0.5]];portConstraint=eastwest;top=0;left=0;right=0;bottom=0;fontSize=15;fontColor=#000000;labelBorderColor=none;labelBackgroundColor=none;strokeColor=#000000;" parent="SNQ56c9XRR32mOw2F68g-318" vertex="1">
          <mxGeometry y="300" width="410" height="30" as="geometry" />
        </mxCell>
        <mxCell id="SNQ56c9XRR32mOw2F68g-376" style="shape=partialRectangle;connectable=0;fillColor=none;top=0;left=0;bottom=0;right=0;editable=1;overflow=hidden;whiteSpace=wrap;html=1;fontSize=15;fontColor=#000000;labelBorderColor=none;labelBackgroundColor=none;strokeColor=#000000;" parent="SNQ56c9XRR32mOw2F68g-375" vertex="1">
          <mxGeometry width="60" height="30" as="geometry">
            <mxRectangle width="60" height="30" as="alternateBounds" />
          </mxGeometry>
        </mxCell>
        <mxCell id="SNQ56c9XRR32mOw2F68g-377" value="declared_product_catalog_size" style="shape=partialRectangle;connectable=0;fillColor=none;top=0;left=0;bottom=0;right=0;align=left;spacingLeft=6;overflow=hidden;whiteSpace=wrap;html=1;fontSize=15;fontColor=#000000;labelBorderColor=none;labelBackgroundColor=none;strokeColor=#000000;" parent="SNQ56c9XRR32mOw2F68g-375" vertex="1">
          <mxGeometry x="60" width="220" height="30" as="geometry">
            <mxRectangle width="220" height="30" as="alternateBounds" />
          </mxGeometry>
        </mxCell>
        <mxCell id="SNQ56c9XRR32mOw2F68g-378" value="INT" style="shape=partialRectangle;connectable=0;fillColor=none;top=0;left=0;bottom=0;right=0;align=left;spacingLeft=6;overflow=hidden;whiteSpace=wrap;html=1;fontSize=15;fontColor=#000000;labelBorderColor=none;labelBackgroundColor=none;strokeColor=#000000;" parent="SNQ56c9XRR32mOw2F68g-375" vertex="1">
          <mxGeometry x="280" width="130" height="30" as="geometry">
            <mxRectangle width="130" height="30" as="alternateBounds" />
          </mxGeometry>
        </mxCell>
        <mxCell id="SNQ56c9XRR32mOw2F68g-379" style="shape=tableRow;horizontal=0;startSize=0;swimlaneHead=0;swimlaneBody=0;fillColor=none;collapsible=0;dropTarget=0;points=[[0,0.5],[1,0.5]];portConstraint=eastwest;top=0;left=0;right=0;bottom=0;fontSize=15;fontColor=#000000;labelBorderColor=none;labelBackgroundColor=none;strokeColor=#000000;" parent="SNQ56c9XRR32mOw2F68g-318" vertex="1">
          <mxGeometry y="330" width="410" height="30" as="geometry" />
        </mxCell>
        <mxCell id="SNQ56c9XRR32mOw2F68g-380" style="shape=partialRectangle;connectable=0;fillColor=none;top=0;left=0;bottom=0;right=0;editable=1;overflow=hidden;whiteSpace=wrap;html=1;fontSize=15;fontColor=#000000;labelBorderColor=none;labelBackgroundColor=none;strokeColor=#000000;" parent="SNQ56c9XRR32mOw2F68g-379" vertex="1">
          <mxGeometry width="60" height="30" as="geometry">
            <mxRectangle width="60" height="30" as="alternateBounds" />
          </mxGeometry>
        </mxCell>
        <mxCell id="SNQ56c9XRR32mOw2F68g-381" value="&lt;pre style=&quot;border: none; margin: 0px; padding: 0px; overflow: auto; word-break: break-all; overflow-wrap: break-word; text-wrap-mode: wrap; font-family: menlo, consolas, &amp;quot;DejaVu Sans Mono&amp;quot;, monospace; line-height: 1.3077;&quot; data--h-bstatus=&quot;0OBSERVED&quot;&gt;declared_monthly_revenue&lt;/pre&gt;" style="shape=partialRectangle;connectable=0;fillColor=none;top=0;left=0;bottom=0;right=0;align=left;spacingLeft=6;overflow=hidden;whiteSpace=wrap;html=1;fontSize=15;fontColor=#000000;labelBorderColor=none;labelBackgroundColor=none;strokeColor=#000000;" parent="SNQ56c9XRR32mOw2F68g-379" vertex="1">
          <mxGeometry x="60" width="220" height="30" as="geometry">
            <mxRectangle width="220" height="30" as="alternateBounds" />
          </mxGeometry>
        </mxCell>
        <mxCell id="SNQ56c9XRR32mOw2F68g-382" value="DECIMAL(18, 2)" style="shape=partialRectangle;connectable=0;fillColor=none;top=0;left=0;bottom=0;right=0;align=left;spacingLeft=6;overflow=hidden;whiteSpace=wrap;html=1;fontSize=15;fontColor=#000000;labelBorderColor=none;labelBackgroundColor=none;strokeColor=#000000;" parent="SNQ56c9XRR32mOw2F68g-379" vertex="1">
          <mxGeometry x="280" width="130" height="30" as="geometry">
            <mxRectangle width="130" height="30" as="alternateBounds" />
          </mxGeometry>
        </mxCell>
        <mxCell id="SNQ56c9XRR32mOw2F68g-387" value="" style="edgeStyle=entityRelationEdgeStyle;fontSize=15;html=1;endArrow=ERoneToMany;startArrow=ERmandOne;rounded=0;exitX=1;exitY=0.5;exitDx=0;exitDy=0;entryX=0;entryY=0.5;entryDx=0;entryDy=0;fontColor=#000000;labelBorderColor=none;labelBackgroundColor=none;strokeColor=#000000;" parent="1" source="SNQ56c9XRR32mOw2F68g-247" target="SNQ56c9XRR32mOw2F68g-2" edge="1">
          <mxGeometry width="100" height="100" relative="1" as="geometry">
            <mxPoint x="240" y="340" as="sourcePoint" />
            <mxPoint x="340" y="240" as="targetPoint" />
          </mxGeometry>
        </mxCell>
        <mxCell id="SNQ56c9XRR32mOw2F68g-389" value="" style="edgeStyle=entityRelationEdgeStyle;fontSize=15;html=1;endArrow=ERoneToMany;startArrow=ERzeroToOne;rounded=0;exitX=1;exitY=0.5;exitDx=0;exitDy=0;entryX=0;entryY=0.5;entryDx=0;entryDy=0;fontColor=#000000;labelBorderColor=none;labelBackgroundColor=none;strokeColor=#000000;" parent="1" source="htcTJ87A9hfYxTRruonu-9" target="SNQ56c9XRR32mOw2F68g-122" edge="1">
          <mxGeometry width="100" height="100" relative="1" as="geometry">
            <mxPoint x="918.999" y="614" as="sourcePoint" />
            <mxPoint x="1006.05" y="280" as="targetPoint" />
          </mxGeometry>
        </mxCell>
        <mxCell id="SNQ56c9XRR32mOw2F68g-390" value="" style="edgeStyle=entityRelationEdgeStyle;fontSize=15;html=1;endArrow=ERoneToMany;startArrow=ERzeroToOne;rounded=0;exitX=1;exitY=0.5;exitDx=0;exitDy=0;entryX=0;entryY=0.5;entryDx=0;entryDy=0;fontColor=#000000;labelBorderColor=none;labelBackgroundColor=none;strokeColor=#000000;" parent="1" source="SNQ56c9XRR32mOw2F68g-176" target="SNQ56c9XRR32mOw2F68g-65" edge="1">
          <mxGeometry width="100" height="100" relative="1" as="geometry">
            <mxPoint x="310" y="972" as="sourcePoint" />
            <mxPoint x="397.05099999999993" y="638" as="targetPoint" />
          </mxGeometry>
        </mxCell>
        <mxCell id="SNQ56c9XRR32mOw2F68g-391" value="" style="edgeStyle=entityRelationEdgeStyle;fontSize=15;html=1;endArrow=ERoneToMany;startArrow=ERzeroToOne;rounded=0;entryX=1;entryY=0.5;entryDx=0;entryDy=0;fontColor=#000000;labelBorderColor=none;labelBackgroundColor=none;strokeColor=#000000;" parent="1" source="SNQ56c9XRR32mOw2F68g-268" target="SNQ56c9XRR32mOw2F68g-68" edge="1">
          <mxGeometry width="100" height="100" relative="1" as="geometry">
            <mxPoint x="960" y="784" as="sourcePoint" />
            <mxPoint x="900" y="680" as="targetPoint" />
          </mxGeometry>
        </mxCell>
        <mxCell id="SNQ56c9XRR32mOw2F68g-392" value="" style="edgeStyle=entityRelationEdgeStyle;fontSize=15;html=1;endArrow=ERoneToMany;startArrow=ERzeroToOne;rounded=0;entryX=1;entryY=0.5;entryDx=0;entryDy=0;exitX=0;exitY=0.5;exitDx=0;exitDy=0;jumpStyle=gap;fontColor=#000000;labelBorderColor=none;labelBackgroundColor=none;strokeColor=#000000;" parent="1" source="SNQ56c9XRR32mOw2F68g-147" target="SNQ56c9XRR32mOw2F68g-284" edge="1">
          <mxGeometry width="100" height="100" relative="1" as="geometry">
            <mxPoint x="1300" y="780" as="sourcePoint" />
            <mxPoint x="1210" y="860" as="targetPoint" />
          </mxGeometry>
        </mxCell>
        <mxCell id="SNQ56c9XRR32mOw2F68g-393" value="" style="edgeStyle=entityRelationEdgeStyle;fontSize=15;html=1;endArrow=ERoneToMany;startArrow=ERzeroToOne;rounded=0;entryX=1;entryY=0.5;entryDx=0;entryDy=0;exitX=0;exitY=0.5;exitDx=0;exitDy=0;jumpStyle=gap;fontColor=#000000;labelBorderColor=none;labelBackgroundColor=none;strokeColor=#000000;" parent="1" source="SNQ56c9XRR32mOw2F68g-147" target="SNQ56c9XRR32mOw2F68g-142" edge="1">
          <mxGeometry width="100" height="100" relative="1" as="geometry">
            <mxPoint x="1250" y="510" as="sourcePoint" />
            <mxPoint x="1160" y="590" as="targetPoint" />
          </mxGeometry>
        </mxCell>
        <mxCell id="SNQ56c9XRR32mOw2F68g-394" value="" style="edgeStyle=entityRelationEdgeStyle;fontSize=15;html=1;endArrow=ERoneToMany;startArrow=ERzeroToOne;rounded=0;entryX=0;entryY=0.5;entryDx=0;entryDy=0;exitX=1;exitY=0.5;exitDx=0;exitDy=0;jumpStyle=gap;fontColor=#000000;labelBorderColor=none;labelBackgroundColor=none;strokeColor=#000000;" parent="1" source="SNQ56c9XRR32mOw2F68g-268" target="SNQ56c9XRR32mOw2F68g-322" edge="1">
          <mxGeometry width="100" height="100" relative="1" as="geometry">
            <mxPoint x="1380" y="740" as="sourcePoint" />
            <mxPoint x="1300" y="1050" as="targetPoint" />
          </mxGeometry>
        </mxCell>
        <mxCell id="SNQ56c9XRR32mOw2F68g-395" value="" style="edgeStyle=entityRelationEdgeStyle;fontSize=15;html=1;endArrow=ERoneToMany;startArrow=ERzeroToOne;rounded=0;entryX=0;entryY=0.5;entryDx=0;entryDy=0;exitX=1;exitY=0.5;exitDx=0;exitDy=0;jumpStyle=gap;fontColor=#000000;labelBorderColor=none;labelBackgroundColor=none;strokeColor=#000000;" parent="1" source="SNQ56c9XRR32mOw2F68g-217" target="SNQ56c9XRR32mOw2F68g-325" edge="1">
          <mxGeometry width="100" height="100" relative="1" as="geometry">
            <mxPoint x="1290" y="990" as="sourcePoint" />
            <mxPoint x="1390" y="1020" as="targetPoint" />
          </mxGeometry>
        </mxCell>
        <mxCell id="SNQ56c9XRR32mOw2F68g-396" value="" style="edgeStyle=entityRelationEdgeStyle;fontSize=15;html=1;endArrow=ERoneToMany;startArrow=ERzeroToOne;rounded=0;entryX=0;entryY=0.5;entryDx=0;entryDy=0;exitX=1;exitY=0.5;exitDx=0;exitDy=0;jumpStyle=gap;fontColor=#000000;labelBorderColor=none;labelBackgroundColor=none;strokeColor=#000000;" parent="1" source="SNQ56c9XRR32mOw2F68g-217" target="SNQ56c9XRR32mOw2F68g-328" edge="1">
          <mxGeometry width="100" height="100" relative="1" as="geometry">
            <mxPoint x="1340" y="920" as="sourcePoint" />
            <mxPoint x="1440" y="950" as="targetPoint" />
          </mxGeometry>
        </mxCell>
        <mxCell id="SNQ56c9XRR32mOw2F68g-397" value="" style="edgeStyle=entityRelationEdgeStyle;fontSize=15;html=1;endArrow=ERzeroToOne;startArrow=ERmandOne;rounded=0;exitX=1;exitY=0.5;exitDx=0;exitDy=0;fontColor=#000000;labelBorderColor=none;labelBackgroundColor=none;strokeColor=#000000;" parent="1" source="SNQ56c9XRR32mOw2F68g-319" target="SNQ56c9XRR32mOw2F68g-289" edge="1">
          <mxGeometry width="100" height="100" relative="1" as="geometry">
            <mxPoint x="1770" y="1030" as="sourcePoint" />
            <mxPoint x="1870" y="930" as="targetPoint" />
            <Array as="points">
              <mxPoint x="1840" y="1030" />
            </Array>
          </mxGeometry>
        </mxCell>
        <mxCell id="htcTJ87A9hfYxTRruonu-13" value="dim_order" style="swimlane;fontStyle=1;childLayout=stackLayout;horizontal=1;startSize=26;horizontalStack=0;resizeParent=1;resizeParentMax=0;resizeLast=0;collapsible=1;marginBottom=0;align=center;fontSize=15;strokeColor=#000000;verticalAlign=middle;fontFamily=Helvetica;fontColor=#FFFFFF;labelBorderColor=none;labelBackgroundColor=none;fillColor=#0050ef;" vertex="1" parent="1">
          <mxGeometry x="300" y="490" width="160" height="146" as="geometry" />
        </mxCell>
        <mxCell id="htcTJ87A9hfYxTRruonu-14" value="order_id" style="text;strokeColor=none;fillColor=none;spacingLeft=4;spacingRight=4;overflow=hidden;rotatable=0;points=[[0,0.5],[1,0.5]];portConstraint=eastwest;fontSize=15;whiteSpace=wrap;html=1;fontFamily=Helvetica;fontColor=#000000;fontStyle=1;labelBorderColor=none;labelBackgroundColor=none;" vertex="1" parent="htcTJ87A9hfYxTRruonu-13">
          <mxGeometry y="26" width="160" height="30" as="geometry" />
        </mxCell>
        <mxCell id="htcTJ87A9hfYxTRruonu-15" value="comment_title" style="text;strokeColor=none;fillColor=none;spacingLeft=4;spacingRight=4;overflow=hidden;rotatable=0;points=[[0,0.5],[1,0.5]];portConstraint=eastwest;fontSize=15;whiteSpace=wrap;html=1;fontFamily=Helvetica;fontColor=#000000;fontStyle=1;labelBorderColor=none;labelBackgroundColor=none;" vertex="1" parent="htcTJ87A9hfYxTRruonu-13">
          <mxGeometry y="56" width="160" height="30" as="geometry" />
        </mxCell>
        <mxCell id="htcTJ87A9hfYxTRruonu-16" value="comment_message" style="text;strokeColor=none;fillColor=none;spacingLeft=4;spacingRight=4;overflow=hidden;rotatable=0;points=[[0,0.5],[1,0.5]];portConstraint=eastwest;fontSize=15;whiteSpace=wrap;html=1;fontFamily=Helvetica;fontColor=#000000;fontStyle=1;labelBorderColor=none;labelBackgroundColor=none;" vertex="1" parent="htcTJ87A9hfYxTRruonu-13">
          <mxGeometry y="86" width="160" height="30" as="geometry" />
        </mxCell>
        <mxCell id="htcTJ87A9hfYxTRruonu-87" value="order_status" style="text;strokeColor=none;fillColor=none;spacingLeft=4;spacingRight=4;overflow=hidden;rotatable=0;points=[[0,0.5],[1,0.5]];portConstraint=eastwest;fontSize=15;whiteSpace=wrap;html=1;fontFamily=Helvetica;fontColor=#000000;fontStyle=1;labelBorderColor=none;labelBackgroundColor=none;" vertex="1" parent="htcTJ87A9hfYxTRruonu-13">
          <mxGeometry y="116" width="160" height="30" as="geometry" />
        </mxCell>
        <mxCell id="htcTJ87A9hfYxTRruonu-17" value="dim_date" style="shape=table;startSize=30;container=1;collapsible=1;childLayout=tableLayout;fixedRows=1;rowLines=0;fontStyle=1;align=center;resizeLast=1;html=1;fillColor=#0050ef;fontColor=#ffffff;strokeColor=#001DBC;" vertex="1" parent="1">
          <mxGeometry x="610" y="940" width="180" height="180" as="geometry" />
        </mxCell>
        <mxCell id="htcTJ87A9hfYxTRruonu-18" value="" style="shape=tableRow;horizontal=0;startSize=0;swimlaneHead=0;swimlaneBody=0;fillColor=none;collapsible=0;dropTarget=0;points=[[0,0.5],[1,0.5]];portConstraint=eastwest;top=0;left=0;right=0;bottom=1;strokeColor=#000000;" vertex="1" parent="htcTJ87A9hfYxTRruonu-17">
          <mxGeometry y="30" width="180" height="30" as="geometry" />
        </mxCell>
        <mxCell id="htcTJ87A9hfYxTRruonu-19" value="PK" style="shape=partialRectangle;connectable=0;fillColor=none;top=0;left=0;bottom=0;right=0;fontStyle=1;overflow=hidden;whiteSpace=wrap;html=1;strokeColor=#000000;align=left;verticalAlign=top;spacingLeft=4;spacingRight=4;fontFamily=Helvetica;fontSize=15;fontColor=#000000;labelBorderColor=none;labelBackgroundColor=none;gradientColor=none;" vertex="1" parent="htcTJ87A9hfYxTRruonu-18">
          <mxGeometry width="30" height="30" as="geometry">
            <mxRectangle width="30" height="30" as="alternateBounds" />
          </mxGeometry>
        </mxCell>
        <mxCell id="htcTJ87A9hfYxTRruonu-20" value="date_key" style="shape=partialRectangle;connectable=0;fillColor=none;top=0;left=0;bottom=0;right=0;align=left;spacingLeft=4;fontStyle=1;overflow=hidden;whiteSpace=wrap;html=1;strokeColor=#000000;verticalAlign=top;spacingRight=4;fontFamily=Helvetica;fontSize=15;fontColor=#000000;labelBorderColor=none;labelBackgroundColor=none;gradientColor=none;" vertex="1" parent="htcTJ87A9hfYxTRruonu-18">
          <mxGeometry x="30" width="150" height="30" as="geometry">
            <mxRectangle width="150" height="30" as="alternateBounds" />
          </mxGeometry>
        </mxCell>
        <mxCell id="htcTJ87A9hfYxTRruonu-21" value="" style="shape=tableRow;horizontal=0;startSize=0;swimlaneHead=0;swimlaneBody=0;fillColor=none;collapsible=0;dropTarget=0;points=[[0,0.5],[1,0.5]];portConstraint=eastwest;top=0;left=0;right=0;bottom=0;strokeColor=#000000;align=left;verticalAlign=top;spacingLeft=4;spacingRight=4;fontFamily=Helvetica;fontSize=15;fontColor=#000000;fontStyle=1;labelBorderColor=none;labelBackgroundColor=none;gradientColor=none;" vertex="1" parent="htcTJ87A9hfYxTRruonu-17">
          <mxGeometry y="60" width="180" height="30" as="geometry" />
        </mxCell>
        <mxCell id="htcTJ87A9hfYxTRruonu-22" value="" style="shape=partialRectangle;connectable=0;fillColor=none;top=0;left=0;bottom=0;right=0;editable=1;overflow=hidden;whiteSpace=wrap;html=1;strokeColor=#000000;align=left;verticalAlign=top;spacingLeft=4;spacingRight=4;fontFamily=Helvetica;fontSize=15;fontColor=#000000;fontStyle=1;labelBorderColor=none;labelBackgroundColor=none;gradientColor=none;" vertex="1" parent="htcTJ87A9hfYxTRruonu-21">
          <mxGeometry width="30" height="30" as="geometry">
            <mxRectangle width="30" height="30" as="alternateBounds" />
          </mxGeometry>
        </mxCell>
        <mxCell id="htcTJ87A9hfYxTRruonu-23" value="date" style="shape=partialRectangle;connectable=0;fillColor=none;top=0;left=0;bottom=0;right=0;align=left;spacingLeft=4;overflow=hidden;whiteSpace=wrap;html=1;strokeColor=#000000;verticalAlign=top;spacingRight=4;fontFamily=Helvetica;fontSize=15;fontColor=#000000;fontStyle=1;labelBorderColor=none;labelBackgroundColor=none;gradientColor=none;" vertex="1" parent="htcTJ87A9hfYxTRruonu-21">
          <mxGeometry x="30" width="150" height="30" as="geometry">
            <mxRectangle width="150" height="30" as="alternateBounds" />
          </mxGeometry>
        </mxCell>
        <mxCell id="htcTJ87A9hfYxTRruonu-24" value="" style="shape=tableRow;horizontal=0;startSize=0;swimlaneHead=0;swimlaneBody=0;fillColor=none;collapsible=0;dropTarget=0;points=[[0,0.5],[1,0.5]];portConstraint=eastwest;top=0;left=0;right=0;bottom=0;strokeColor=#000000;align=left;verticalAlign=top;spacingLeft=4;spacingRight=4;fontFamily=Helvetica;fontSize=15;fontColor=#000000;fontStyle=1;labelBorderColor=none;labelBackgroundColor=none;gradientColor=none;" vertex="1" parent="htcTJ87A9hfYxTRruonu-17">
          <mxGeometry y="90" width="180" height="30" as="geometry" />
        </mxCell>
        <mxCell id="htcTJ87A9hfYxTRruonu-25" value="" style="shape=partialRectangle;connectable=0;fillColor=none;top=0;left=0;bottom=0;right=0;editable=1;overflow=hidden;whiteSpace=wrap;html=1;strokeColor=#000000;align=left;verticalAlign=top;spacingLeft=4;spacingRight=4;fontFamily=Helvetica;fontSize=15;fontColor=#000000;fontStyle=1;labelBorderColor=none;labelBackgroundColor=none;gradientColor=none;" vertex="1" parent="htcTJ87A9hfYxTRruonu-24">
          <mxGeometry width="30" height="30" as="geometry">
            <mxRectangle width="30" height="30" as="alternateBounds" />
          </mxGeometry>
        </mxCell>
        <mxCell id="htcTJ87A9hfYxTRruonu-26" value="year" style="shape=partialRectangle;connectable=0;fillColor=none;top=0;left=0;bottom=0;right=0;align=left;spacingLeft=4;overflow=hidden;whiteSpace=wrap;html=1;strokeColor=#000000;verticalAlign=top;spacingRight=4;fontFamily=Helvetica;fontSize=15;fontColor=#000000;fontStyle=1;labelBorderColor=none;labelBackgroundColor=none;gradientColor=none;" vertex="1" parent="htcTJ87A9hfYxTRruonu-24">
          <mxGeometry x="30" width="150" height="30" as="geometry">
            <mxRectangle width="150" height="30" as="alternateBounds" />
          </mxGeometry>
        </mxCell>
        <mxCell id="htcTJ87A9hfYxTRruonu-27" value="" style="shape=tableRow;horizontal=0;startSize=0;swimlaneHead=0;swimlaneBody=0;fillColor=none;collapsible=0;dropTarget=0;points=[[0,0.5],[1,0.5]];portConstraint=eastwest;top=0;left=0;right=0;bottom=0;strokeColor=#000000;align=left;verticalAlign=top;spacingLeft=4;spacingRight=4;fontFamily=Helvetica;fontSize=15;fontColor=#000000;fontStyle=1;labelBorderColor=none;labelBackgroundColor=none;gradientColor=none;" vertex="1" parent="htcTJ87A9hfYxTRruonu-17">
          <mxGeometry y="120" width="180" height="30" as="geometry" />
        </mxCell>
        <mxCell id="htcTJ87A9hfYxTRruonu-28" value="" style="shape=partialRectangle;connectable=0;fillColor=none;top=0;left=0;bottom=0;right=0;editable=1;overflow=hidden;whiteSpace=wrap;html=1;strokeColor=#000000;align=left;verticalAlign=top;spacingLeft=4;spacingRight=4;fontFamily=Helvetica;fontSize=15;fontColor=#000000;fontStyle=1;labelBorderColor=none;labelBackgroundColor=none;gradientColor=none;" vertex="1" parent="htcTJ87A9hfYxTRruonu-27">
          <mxGeometry width="30" height="30" as="geometry">
            <mxRectangle width="30" height="30" as="alternateBounds" />
          </mxGeometry>
        </mxCell>
        <mxCell id="htcTJ87A9hfYxTRruonu-29" value="month" style="shape=partialRectangle;connectable=0;fillColor=none;top=0;left=0;bottom=0;right=0;align=left;spacingLeft=4;overflow=hidden;whiteSpace=wrap;html=1;strokeColor=#000000;verticalAlign=top;spacingRight=4;fontFamily=Helvetica;fontSize=15;fontColor=#000000;fontStyle=1;labelBorderColor=none;labelBackgroundColor=none;gradientColor=none;" vertex="1" parent="htcTJ87A9hfYxTRruonu-27">
          <mxGeometry x="30" width="150" height="30" as="geometry">
            <mxRectangle width="150" height="30" as="alternateBounds" />
          </mxGeometry>
        </mxCell>
        <mxCell id="htcTJ87A9hfYxTRruonu-34" style="shape=tableRow;horizontal=0;startSize=0;swimlaneHead=0;swimlaneBody=0;fillColor=none;collapsible=0;dropTarget=0;points=[[0,0.5],[1,0.5]];portConstraint=eastwest;top=0;left=0;right=0;bottom=0;strokeColor=#000000;align=left;verticalAlign=top;spacingLeft=4;spacingRight=4;fontFamily=Helvetica;fontSize=15;fontColor=#000000;fontStyle=1;labelBorderColor=none;labelBackgroundColor=none;gradientColor=none;" vertex="1" parent="htcTJ87A9hfYxTRruonu-17">
          <mxGeometry y="150" width="180" height="30" as="geometry" />
        </mxCell>
        <mxCell id="htcTJ87A9hfYxTRruonu-35" style="shape=partialRectangle;connectable=0;fillColor=none;top=0;left=0;bottom=0;right=0;editable=1;overflow=hidden;whiteSpace=wrap;html=1;strokeColor=#000000;align=left;verticalAlign=top;spacingLeft=4;spacingRight=4;fontFamily=Helvetica;fontSize=15;fontColor=#000000;fontStyle=1;labelBorderColor=none;labelBackgroundColor=none;gradientColor=none;" vertex="1" parent="htcTJ87A9hfYxTRruonu-34">
          <mxGeometry width="30" height="30" as="geometry">
            <mxRectangle width="30" height="30" as="alternateBounds" />
          </mxGeometry>
        </mxCell>
        <mxCell id="htcTJ87A9hfYxTRruonu-36" value="date" style="shape=partialRectangle;connectable=0;fillColor=none;top=0;left=0;bottom=0;right=0;align=left;spacingLeft=4;overflow=hidden;whiteSpace=wrap;html=1;strokeColor=#000000;verticalAlign=top;spacingRight=4;fontFamily=Helvetica;fontSize=15;fontColor=#000000;fontStyle=1;labelBorderColor=none;labelBackgroundColor=none;gradientColor=none;" vertex="1" parent="htcTJ87A9hfYxTRruonu-34">
          <mxGeometry x="30" width="150" height="30" as="geometry">
            <mxRectangle width="150" height="30" as="alternateBounds" />
          </mxGeometry>
        </mxCell>
        <mxCell id="htcTJ87A9hfYxTRruonu-92" value="" style="edgeStyle=entityRelationEdgeStyle;fontSize=12;html=1;endArrow=ERmandOne;startArrow=ERmandOne;rounded=0;entryX=0;entryY=0.5;entryDx=0;entryDy=0;exitX=1;exitY=0.5;exitDx=0;exitDy=0;strokeColor=#000000;" edge="1" parent="1" source="htcTJ87A9hfYxTRruonu-14" target="SNQ56c9XRR32mOw2F68g-2">
          <mxGeometry width="100" height="100" relative="1" as="geometry">
            <mxPoint x="410" y="520" as="sourcePoint" />
            <mxPoint x="510" y="420" as="targetPoint" />
          </mxGeometry>
        </mxCell>
        <mxCell id="htcTJ87A9hfYxTRruonu-93" value="" style="edgeStyle=orthogonalEdgeStyle;fontSize=15;html=1;endArrow=ERoneToMany;startArrow=ERmandOne;rounded=0;fontColor=#000000;labelBorderColor=none;labelBackgroundColor=none;strokeColor=#000000;exitX=1;exitY=0.5;exitDx=0;exitDy=0;entryX=0;entryY=0.5;entryDx=0;entryDy=0;" edge="1" parent="1" source="htcTJ87A9hfYxTRruonu-14">
          <mxGeometry width="100" height="100" relative="1" as="geometry">
            <mxPoint x="500" y="580" as="sourcePoint" />
            <mxPoint x="590" y="705" as="targetPoint" />
            <Array as="points">
              <mxPoint x="500" y="531" />
              <mxPoint x="500" y="705" />
            </Array>
          </mxGeometry>
        </mxCell>
        <mxCell id="htcTJ87A9hfYxTRruonu-107" value="" style="shape=tableRow;horizontal=0;startSize=0;swimlaneHead=0;swimlaneBody=0;fillColor=none;collapsible=0;dropTarget=0;points=[[0,0.5],[1,0.5]];portConstraint=eastwest;top=0;left=0;right=0;bottom=1;html=1;fontSize=15;fontColor=#000000;labelBorderColor=none;labelBackgroundColor=none;strokeColor=#000000;" vertex="1" parent="1">
          <mxGeometry x="590" y="450" width="380" height="30" as="geometry" />
        </mxCell>
        <mxCell id="htcTJ87A9hfYxTRruonu-108" value="PK" style="shape=partialRectangle;connectable=0;fillColor=none;top=0;left=0;bottom=0;right=0;fontStyle=1;overflow=hidden;html=1;whiteSpace=wrap;fontSize=15;fontColor=#000000;labelBorderColor=none;labelBackgroundColor=none;strokeColor=#000000;" vertex="1" parent="htcTJ87A9hfYxTRruonu-107">
          <mxGeometry width="60" height="30" as="geometry">
            <mxRectangle width="60" height="30" as="alternateBounds" />
          </mxGeometry>
        </mxCell>
        <mxCell id="htcTJ87A9hfYxTRruonu-109" value="order_item_id" style="shape=partialRectangle;connectable=0;fillColor=none;top=0;left=0;bottom=0;right=0;align=left;spacingLeft=6;fontStyle=5;overflow=hidden;html=1;whiteSpace=wrap;fontSize=15;fontColor=#000000;labelBorderColor=none;labelBackgroundColor=none;strokeColor=#000000;" vertex="1" parent="htcTJ87A9hfYxTRruonu-107">
          <mxGeometry x="60" width="250" height="30" as="geometry">
            <mxRectangle width="250" height="30" as="alternateBounds" />
          </mxGeometry>
        </mxCell>
        <mxCell id="htcTJ87A9hfYxTRruonu-110" value="INT" style="shape=partialRectangle;connectable=0;fillColor=none;top=0;left=0;bottom=0;right=0;align=left;spacingLeft=6;fontStyle=5;overflow=hidden;html=1;whiteSpace=wrap;fontSize=15;fontColor=#000000;labelBorderColor=none;labelBackgroundColor=none;strokeColor=#000000;" vertex="1" parent="htcTJ87A9hfYxTRruonu-107">
          <mxGeometry x="310" width="70" height="30" as="geometry">
            <mxRectangle width="70" height="30" as="alternateBounds" />
          </mxGeometry>
        </mxCell>
        <mxCell id="htcTJ87A9hfYxTRruonu-115" style="edgeStyle=orthogonalEdgeStyle;rounded=0;orthogonalLoop=1;jettySize=auto;html=1;exitX=0;exitY=0.5;exitDx=0;exitDy=0;" edge="1" parent="1" source="SNQ56c9XRR32mOw2F68g-65">
          <mxGeometry relative="1" as="geometry">
            <mxPoint x="590" y="705" as="targetPoint" />
          </mxGeometry>
        </mxCell>
      </root>
    </mxGraphModel>
  </diagram>
</mxfile>
